<?xml version="1.0" encoding="UTF-8"?>
<svg id="Layer_1" xmlns="http://www.w3.org/2000/svg" version="1.1" viewBox="0 0 111.5 77.2">
  <!-- Generator: Adobe Illustrator 29.0.0, SVG Export Plug-In . SVG Version: 2.1.0 Build 186)  -->
  <defs>
    <style>
      .st0 {
        fill: #07182d;
      }
    </style>
  </defs>
  <path class="st0" d="M85.3,51.2c0,3.7-2.8,6.7-6.5,6.7s-6.7-2.8-6.7-6.5c0-3.7,2.8-6.7,6.5-6.7,0,0,0,0,.1,0,3.5-.1,6.5,2.7,6.6,6.2,0,0,0,.2,0,.2ZM78.7,47.9c-1.8,0-3.3,1.4-3.3,3.3s1.4,3.3,3.3,3.3c1.8,0,3.3-1.4,3.3-3.3,0,0,0,0,0,0,0-1.8-1.4-3.3-3.2-3.3,0,0,0,0,0,0Z"/>
  <path class="st0" d="M68.7,48.5c-.8-.4-1.7-.7-2.7-.7-1.8,0-3.4,1.4-3.5,3.2,0,1.8,1.4,3.4,3.2,3.5,0,0,.2,0,.2,0,.9,0,1.8-.2,2.7-.7v3.4c-.9.3-1.9.4-2.9.4-3.6.1-6.6-2.7-6.7-6.3-.1-3.6,2.7-6.6,6.3-6.7.1,0,.3,0,.4,0,1,0,1.9.2,2.9.4v3.4Z"/>
  <path class="st0" d="M55.2,47.8c-.8-.2-1.6-.4-2.5-.4-1.3,0-2,.4-2,1s.9,1,1.4,1.2l.9.3c1.7.4,2.9,1.8,3,3.6,0,3.1-2.8,4.2-5.2,4.2-1.1,0-2.3-.1-3.4-.3v-2.9c1,.3,2,.4,3,.5,1.6,0,2.3-.5,2.3-1.2s-.6-1-1.4-1.2c-.2,0-.5-.2-.7-.2-1.8-.6-3.2-1.6-3.2-3.7s1.8-3.9,4.7-3.9c1,0,2.1.1,3.1.4v2.7Z"/>
  <rect class="st0" x="40.1" y="45" width="3.2" height="12.5"/>
  <path class="st0" d="M35.8,48.5c-.8-.4-1.7-.7-2.7-.7-1.8,0-3.4,1.4-3.5,3.2,0,1.8,1.4,3.4,3.2,3.5,0,0,.2,0,.2,0,.9,0,1.8-.2,2.7-.7v3.4c-.9.3-1.9.4-2.9.4-3.6.1-6.6-2.7-6.7-6.3-.1-3.6,2.7-6.6,6.3-6.7.1,0,.2,0,.4,0,1,0,1.9.2,2.9.4v3.4Z"/>
  <rect class="st0" x="88.6" y="29.9" width="3.2" height="6.4" rx="1.6" ry="1.6"/>
  <rect class="st0" x="80" y="25.6" width="3.2" height="10.7" rx="1.6" ry="1.6"/>
  <rect class="st0" x="71.4" y="19.7" width="3.2" height="19.7" rx="1.6" ry="1.6"/>
  <path class="st0" d="M64.4,25.6h0c.9,0,1.6.7,1.6,1.6v7.6c0,.9-.7,1.6-1.6,1.6h0c-.9,0-1.6-.7-1.6-1.6v-7.6c0-.9.7-1.6,1.6-1.6Z"/>
  <path class="st0" d="M55.8,29.9h0c.9,0,1.6.7,1.6,1.6v3.3c0,.9-.7,1.6-1.6,1.6h0c-.9,0-1.6-.7-1.6-1.6v-3.3c0-.9.7-1.6,1.6-1.6Z"/>
  <path class="st0" d="M47.1,25.6h0c.9,0,1.6.7,1.6,1.6v7.6c0,.9-.7,1.6-1.6,1.6h0c-.9,0-1.6-.7-1.6-1.6v-7.6c0-.9.7-1.6,1.6-1.6Z"/>
  <path class="st0" d="M38.5,19.7h0c.9,0,1.6.7,1.6,1.6v16.6c0,.9-.7,1.6-1.6,1.6h0c-.9,0-1.6-.7-1.6-1.6v-16.6c0-.9.7-1.6,1.6-1.6Z"/>
  <path class="st0" d="M29.9,25.6h0c.9,0,1.6.7,1.6,1.6v7.6c0,.9-.7,1.6-1.6,1.6h0c-.9,0-1.6-.7-1.6-1.6v-7.6c0-.9.7-1.6,1.6-1.6Z"/>
  <path class="st0" d="M21.3,29.9h0c.9,0,1.6.7,1.6,1.6v3.3c0,.9-.7,1.6-1.6,1.6h0c-.9,0-1.6-.7-1.6-1.6v-3.3c0-.9.7-1.6,1.6-1.6Z"/>
</svg>