<svg width="41" height="40" viewBox="0 0 41 40" fill="none" xmlns="http://www.w3.org/2000/svg">
<g clip-path="url(#clip0_1013_7053)">
<rect x="0.664062" width="40" height="40" rx="8" fill="#F4F4F5"/>
<path d="M20.6484 12.8223C18.7422 12.8223 16.9139 13.5796 15.5662 14.9275C14.2183 16.2754 13.4609 18.1037 13.4609 20.0098C13.4609 21.9159 14.2182 23.7443 15.5662 25.0921C16.9141 26.4399 18.7423 27.1973 20.6484 27.1973C22.5545 27.1973 24.3829 26.44 25.7307 25.0921C27.0786 23.7441 27.8359 21.9159 27.8359 20.0098C27.8338 18.1042 27.0759 16.2773 25.7284 14.9298C24.3809 13.5824 22.554 12.8244 20.6484 12.8223ZM20.6484 25.0886C19.3015 25.0886 18.0096 24.5535 17.0571 23.6011C16.1046 22.6487 15.5696 21.3568 15.5696 20.0098C15.5696 18.6627 16.1047 17.3709 17.0571 16.4184C18.0095 15.4659 19.3014 14.9309 20.6484 14.9309C21.9955 14.9309 23.2873 15.466 24.2398 16.4184C25.1923 17.3709 25.7273 18.6627 25.7273 20.0098C25.7258 21.3563 25.1902 22.6473 24.238 23.5994C23.2859 24.5516 21.9949 25.0871 20.6484 25.0886Z" fill="url(#paint0_linear_1013_7053)"/>
<path d="M22.001 16.8926C21.9521 17.0553 21.8064 17.1615 21.6461 17.1615C21.611 17.1615 21.5752 17.1564 21.5395 17.1456L21.5286 17.1423C21.3302 17.0829 21.2176 16.8738 21.2772 16.6754C21.3368 16.4772 21.5448 16.364 21.7442 16.4241C21.9425 16.4835 22.0605 16.6942 22.001 16.8926ZM20.5779 16.1489C20.5746 16.1484 20.5656 16.1471 20.5621 16.1466C20.3563 16.1201 20.1682 16.2634 20.1409 16.4687C20.1136 16.6727 20.256 16.8603 20.4592 16.8895C20.4787 16.8926 20.4982 16.894 20.5173 16.894C20.6985 16.894 20.8584 16.7626 20.8878 16.5781C20.9204 16.3739 20.7821 16.1819 20.5779 16.1489ZM23.3418 17.3171C23.2143 17.1896 23.0766 17.0702 22.9332 16.9613C22.932 16.9604 22.9316 16.959 22.9304 16.9581C22.9259 16.9547 22.9163 16.9474 22.9116 16.9441C22.8787 16.9206 22.8421 16.9082 22.8056 16.8967C22.7998 16.895 22.7949 16.8907 22.7891 16.8892C22.6429 16.8506 22.4824 16.9009 22.389 17.0314C22.2707 17.197 22.3075 17.4255 22.4686 17.5477C22.4703 17.549 22.4709 17.551 22.4726 17.5522C22.5916 17.6422 22.7055 17.7414 22.8114 17.8473C23.4255 18.4614 23.7644 19.2779 23.7654 20.1465C23.7656 20.3534 23.9335 20.521 24.1404 20.521H24.1409C24.3479 20.5207 24.5156 20.3527 24.5154 20.1455C24.5141 19.077 24.0973 18.0725 23.3418 17.3171ZM11.1641 17.199C11.3712 17.199 11.5391 17.0311 11.5391 16.824V10.875H17.488C17.6952 10.875 17.863 10.7071 17.863 10.5C17.863 10.2929 17.6952 10.125 17.488 10.125H11.1641C10.9569 10.125 10.7891 10.2929 10.7891 10.5V16.824C10.7891 17.0311 10.9569 17.199 11.1641 17.199ZM30.1641 10.125H23.8401C23.6329 10.125 23.4651 10.2929 23.4651 10.5C23.4651 10.7071 23.6329 10.875 23.8401 10.875H29.7891V16.824C29.7891 17.0311 29.9569 17.199 30.1641 17.199C30.3712 17.199 30.5391 17.0311 30.5391 16.824V10.5C30.5391 10.2929 30.3712 10.125 30.1641 10.125ZM17.488 29.125H11.5391V23.176C11.5391 22.9689 11.3712 22.801 11.1641 22.801C10.9569 22.801 10.7891 22.9689 10.7891 23.176V29.5C10.7891 29.7071 10.9569 29.875 11.1641 29.875H17.488C17.6952 29.875 17.863 29.7071 17.863 29.5C17.863 29.2929 17.6952 29.125 17.488 29.125ZM30.1641 22.801C29.9569 22.801 29.7891 22.9689 29.7891 23.176V29.125H23.8401C23.6329 29.125 23.4651 29.2929 23.4651 29.5C23.4651 29.7071 23.6329 29.875 23.8401 29.875H30.1641C30.3712 29.875 30.5391 29.7071 30.5391 29.5V23.176C30.5391 22.9689 30.3712 22.801 30.1641 22.801ZM24.5042 23.8639C23.4747 24.8934 22.1058 25.4613 20.6499 25.463H20.6494C19.1925 25.463 17.8229 24.8957 16.7928 23.8656C15.7628 22.8358 15.1956 21.4662 15.1956 20.0091C15.1956 18.5521 15.7628 17.1829 16.7928 16.1527C17.8229 15.1226 19.1925 14.5553 20.6494 14.5553C22.1063 14.5553 23.4758 15.1226 24.5059 16.1527C25.536 17.1826 26.1033 18.5522 26.1033 20.0091C26.1016 21.4657 25.5337 22.8346 24.5042 23.8639ZM23.9739 23.3336C24.8619 22.4457 25.3518 21.2649 25.3533 20.0087C25.3533 18.7526 24.864 17.5713 23.9756 16.683C23.0872 15.7945 21.9059 15.3053 20.6494 15.3053C19.3929 15.3053 18.2115 15.7945 17.3231 16.683C16.4348 17.5715 15.9455 18.7527 15.9455 20.0091C15.9455 21.2656 16.4348 22.447 17.3231 23.3353C18.2114 24.2236 19.3927 24.7129 20.649 24.713C21.905 24.7116 23.0858 24.2217 23.9739 23.3336Z" fill="black"/>
</g>
<defs>
<linearGradient id="paint0_linear_1013_7053" x1="13.4609" y1="20.0098" x2="27.8359" y2="20.0098" gradientUnits="userSpaceOnUse">
<stop offset="0.1" stop-color="#FF712B"/>
<stop offset="0.9" stop-color="#FF0F7B"/>
</linearGradient>
<clipPath id="clip0_1013_7053">
<rect x="0.664062" width="40" height="40" rx="4" fill="white"/>
</clipPath>
</defs>
</svg>
