<svg width="41" height="40" viewBox="0 0 41 40" fill="none" xmlns="http://www.w3.org/2000/svg">
<g clip-path="url(#clip0_1013_7077)">
<rect x="0.664062" width="40" height="40" rx="8" fill="#F4F4F5"/>
<path d="M23.1082 11.2559V14.1909H21.4431V28.6309H12.9531V11.2559C12.9531 11.0487 13.121 10.8809 13.3281 10.8809H22.7332C22.9403 10.8809 23.1082 11.0487 23.1082 11.2559Z" fill="url(#paint0_linear_1013_7077)"/>
<path d="M28.2952 22.1777C28.2952 22.3848 28.1273 22.5527 27.9202 22.5527C27.713 22.5527 27.5452 22.3848 27.5452 22.1777V22.1641C27.5452 21.957 27.713 21.7891 27.9202 21.7891C28.1273 21.7891 28.2952 21.957 28.2952 22.1641V22.1777ZM27.9202 23.1558C27.713 23.1558 27.5452 23.3237 27.5452 23.5308V23.5444C27.5452 23.7515 27.713 23.9194 27.9202 23.9194C28.1273 23.9194 28.2952 23.7515 28.2952 23.5444V23.5308C28.2952 23.3237 28.1273 23.1558 27.9202 23.1558ZM26.4003 24.5288H23.1069C22.8998 24.5288 22.7319 24.6967 22.7319 24.9038C22.7319 25.1109 22.8998 25.2788 23.1069 25.2788H26.4003C26.6074 25.2788 26.7753 25.1109 26.7753 24.9038C26.7753 24.6967 26.6074 24.5288 26.4003 24.5288ZM26.4003 16.4945H23.1069C22.8998 16.4945 22.7319 16.6624 22.7319 16.8695C22.7319 17.0766 22.8998 17.2445 23.1069 17.2445H26.4003C26.6074 17.2445 26.7753 17.0766 26.7753 16.8695C26.7753 16.6624 26.6074 16.4945 26.4003 16.4945ZM26.4003 21.8507H23.1069C22.8998 21.8507 22.7319 22.0186 22.7319 22.2257C22.7319 22.4328 22.8998 22.6007 23.1069 22.6007H26.4003C26.6074 22.6007 26.7753 22.4328 26.7753 22.2257C26.7753 22.0186 26.6074 21.8507 26.4003 21.8507ZM26.4003 19.1726H23.1069C22.8998 19.1726 22.7319 19.3405 22.7319 19.5476C22.7319 19.7547 22.8998 19.9226 23.1069 19.9226H26.4003C26.6074 19.9226 26.7753 19.7547 26.7753 19.5476C26.7753 19.3405 26.6074 19.1726 26.4003 19.1726ZM15.7964 17.2445H19.0536C19.2607 17.2445 19.4286 17.0766 19.4286 16.8695C19.4286 16.6624 19.2607 16.4945 19.0536 16.4945H15.7964C15.5892 16.4945 15.4214 16.6624 15.4214 16.8695C15.4214 17.0766 15.5892 17.2445 15.7964 17.2445ZM15.7964 19.9226H17.8666C18.0737 19.9226 18.2384 19.7547 18.2384 19.5476C18.2384 19.3405 18.0675 19.1726 17.8603 19.1726H15.7964C15.5892 19.1726 15.4214 19.3405 15.4214 19.5476C15.4214 19.7547 15.5892 19.9226 15.7964 19.9226ZM19.0473 19.1726C18.8402 19.1726 18.6723 19.3405 18.6723 19.5476C18.6723 19.7547 18.8402 19.9226 19.0473 19.9226H19.0536C19.2607 19.9226 19.4254 19.7547 19.4254 19.5476C19.4254 19.3405 19.2545 19.1726 19.0473 19.1726ZM15.7964 22.6007H19.0536C19.2607 22.6007 19.4286 22.4328 19.4286 22.2257C19.4286 22.0186 19.2607 21.8507 19.0536 21.8507H15.7964C15.5892 21.8507 15.4214 22.0186 15.4214 22.2257C15.4214 22.4328 15.5892 22.6007 15.7964 22.6007ZM16.9795 14.5664H16.9912C17.1984 14.5664 17.3603 14.3985 17.3603 14.1914C17.3603 13.9843 17.1866 13.8164 16.9795 13.8164C16.7723 13.8164 16.6045 13.9843 16.6045 14.1914C16.6045 14.3985 16.7723 14.5664 16.9795 14.5664ZM15.7964 14.5664H15.8027C16.0099 14.5664 16.1746 14.3985 16.1746 14.1914C16.1746 13.9843 16.0035 13.8164 15.7964 13.8164C15.5892 13.8164 15.4214 13.9843 15.4214 14.1914C15.4214 14.3985 15.5892 14.5664 15.7964 14.5664ZM18.1742 14.5664H19.0536C19.2607 14.5664 19.4286 14.3985 19.4286 14.1914C19.4286 13.9843 19.2607 13.8164 19.0536 13.8164H18.1742C17.967 13.8164 17.7992 13.9843 17.7992 14.1914C17.7992 14.3985 17.967 14.5664 18.1742 14.5664ZM30.539 28.6676C30.539 28.8747 30.3712 29.0426 30.164 29.0426H11.1641C10.9569 29.0426 10.7891 28.8747 10.7891 28.6676C10.7891 28.4605 10.9569 28.2926 11.1641 28.2926H15.3467L15.3248 24.9063C15.3242 24.8064 15.3634 24.7103 15.4338 24.6395C15.5041 24.5687 15.6 24.5288 15.6998 24.5288H19.0294C19.2356 24.5288 19.4031 24.6953 19.4044 24.9015L19.4262 28.2926H21.0671V14.1914C21.0671 13.9843 21.235 13.8164 21.4421 13.8164H27.9203C28.1274 13.8164 28.2953 13.9843 28.2953 14.1914V20.8047C28.2953 21.0118 28.1274 21.1797 27.9203 21.1797C27.7131 21.1797 27.5453 21.0118 27.5453 20.8047V14.5664H21.8171V28.2926H27.5453V24.9038C27.5453 24.6967 27.7131 24.5288 27.9203 24.5288C28.1274 24.5288 28.2953 24.6967 28.2953 24.9038V28.2926H30.164C30.3712 28.2926 30.539 28.4605 30.539 28.6676ZM16.0967 28.2926H18.6761L18.6568 25.2788H16.0773L16.0967 28.2926Z" fill="black"/>
</g>
<defs>
<linearGradient id="paint0_linear_1013_7077" x1="18.0306" y1="28.6309" x2="18.0306" y2="10.8809" gradientUnits="userSpaceOnUse">
<stop offset="0.1" stop-color="#FF712B"/>
<stop offset="0.9" stop-color="#FF0F7B"/>
</linearGradient>
<clipPath id="clip0_1013_7077">
<rect x="0.664062" width="40" height="40" rx="4" fill="white"/>
</clipPath>
</defs>
</svg>
