<svg width="41" height="40" viewBox="0 0 41 40" fill="none" xmlns="http://www.w3.org/2000/svg">
<g clip-path="url(#clip0_1013_7045)">
<rect x="0.664062" width="40" height="40" rx="8" fill="#F4F4F5"/>
<g clip-path="url(#clip1_1013_7045)">
<path d="M31.7883 20.6305C30.5384 21.9542 26.0422 26.2729 20.6638 26.2729C15.2853 26.2729 10.7891 21.9542 9.53919 20.6305C9.20569 20.2773 9.20569 19.7241 9.53919 19.371C9.9043 18.9843 10.5073 18.3821 11.307 17.7085C11.307 17.7085 11.307 17.7084 11.3071 17.7084L11.3193 17.6981C11.4788 17.5657 11.7151 17.5878 11.8474 17.747C11.9797 17.9064 11.9577 18.1428 11.7984 18.2751C11.797 18.2763 11.7952 18.2766 11.7938 18.2778C11.7926 18.2788 11.7921 18.2804 11.7909 18.2814C11.0179 18.9326 10.4363 19.5133 10.0845 19.8859C10.0237 19.9502 10.0237 20.0512 10.0845 20.1156C11.2823 21.3841 15.5853 25.5229 20.6637 25.5229C25.7422 25.5229 30.0451 21.3841 31.243 20.1156C31.3038 20.0512 31.3038 19.9502 31.243 19.8859C30.0451 18.6174 25.7422 14.4785 20.6637 14.4785C19.2912 14.4785 18.3694 14.5127 17.1452 14.9875C16.9522 15.0623 16.735 14.9666 16.66 14.7736C16.5851 14.5804 16.681 14.3632 16.874 14.2883C18.217 13.7675 19.2464 13.7285 20.6637 13.7285C26.0422 13.7285 30.5384 18.0473 31.7883 19.371C32.1218 19.7241 32.1218 20.2773 31.7883 20.6305ZM12.5382 17.5843C12.6162 17.5843 12.6948 17.5601 12.762 17.51L12.7747 17.5004C12.9396 17.3752 12.9718 17.14 12.8466 16.975C12.7215 16.8102 12.4862 16.7778 12.3212 16.9031L12.3138 16.9086C12.1477 17.0324 12.1135 17.2674 12.2373 17.4334C12.3109 17.5322 12.4238 17.5843 12.5382 17.5843ZM13.5723 16.8599C13.6422 16.8599 13.713 16.8403 13.7761 16.7994C13.7774 16.7986 13.7891 16.7909 13.7904 16.79C13.9627 16.6752 14.0092 16.4423 13.8944 16.27C13.7795 16.0978 13.5467 16.0512 13.3743 16.166L13.3678 16.1704C13.1941 16.2831 13.1446 16.5153 13.2574 16.689C13.3292 16.7997 13.4495 16.8599 13.5723 16.8599ZM15.776 15.6324C15.8276 15.6324 15.88 15.6217 15.9301 15.599C15.9323 15.598 15.9459 15.5918 15.9481 15.5908C16.1347 15.502 16.2135 15.2794 16.1253 15.0925C16.0371 14.9055 15.8132 14.8254 15.6262 14.9133L15.6214 14.9155C15.4327 15.0007 15.3488 15.2229 15.434 15.4116C15.4967 15.5503 15.6331 15.6324 15.776 15.6324ZM14.6517 16.2053C14.7128 16.2053 14.7747 16.1904 14.832 16.1588L14.8495 16.1491C15.0285 16.0459 15.0894 15.8178 14.9868 15.6384C14.8842 15.459 14.6549 15.3969 14.4752 15.4991L14.4706 15.5017C14.2891 15.6015 14.2229 15.8295 14.3228 16.011C14.391 16.1351 14.5193 16.2053 14.6517 16.2053ZM22.94 21.4964L24.6379 19.095C24.7575 18.9259 24.7174 18.6918 24.5482 18.5723C24.3792 18.4528 24.1451 18.4929 24.0255 18.662L22.3276 21.0634C22.208 21.2326 22.2482 21.4666 22.4173 21.5861C22.483 21.6326 22.5586 21.655 22.6335 21.655C22.7511 21.655 22.867 21.5997 22.94 21.4964ZM21.5338 21.6735C21.6224 21.6735 21.7114 21.6423 21.7829 21.5787C21.9376 21.4411 21.9515 21.2041 21.8139 21.0493L20.1406 19.1677C20.003 19.0129 19.7661 18.9991 19.6112 19.1367C19.4565 19.2743 19.4426 19.5113 19.5802 19.6661L21.2535 21.5477C21.3276 21.6311 21.4305 21.6735 21.5338 21.6735ZM17.5707 20.6735L18.7712 19.5375C18.9217 19.3952 18.9282 19.1578 18.7859 19.0074C18.6434 18.8569 18.4061 18.8505 18.2557 18.9927L17.0552 20.1287C16.9048 20.271 16.8983 20.5084 17.0406 20.6588C17.1144 20.7368 17.2136 20.7761 17.3131 20.7761C17.4056 20.7761 17.4982 20.7421 17.5707 20.6735Z" fill="black"/>
<path d="M15.3359 21.1717C15.3359 20.8265 15.4759 20.514 15.7021 20.2878C15.9283 20.0616 16.2408 19.9217 16.5859 19.9217C17.2763 19.9217 17.8359 20.4814 17.8359 21.1717C17.8359 21.8621 17.2763 22.4217 16.5859 22.4217C15.8956 22.4217 15.3359 21.8621 15.3359 21.1717ZM22.0638 23.3728C22.7541 23.3728 23.3138 22.8131 23.3138 22.1228C23.3138 21.4324 22.7541 20.8728 22.0638 20.8728C21.7186 20.8728 21.4061 21.0127 21.1799 21.2389C20.9537 21.4651 20.8138 21.7776 20.8138 22.1228C20.8138 22.8131 21.3734 23.3728 22.0638 23.3728ZM24.7345 19.2441C25.4248 19.2441 25.9845 18.6845 25.9845 17.9941C25.9845 17.3038 25.4248 16.7441 24.7345 16.7441C24.3893 16.7441 24.0768 16.8841 23.8506 17.1103C23.6244 17.3365 23.4845 17.649 23.4845 17.9941C23.4845 18.6845 24.0441 19.2441 24.7345 19.2441ZM19.2651 19.8976C19.9554 19.8976 20.5151 19.338 20.5151 18.6476C20.5151 17.9573 19.9554 17.3976 19.2651 17.3976C18.9199 17.3976 18.6074 17.5375 18.3812 17.7637C18.155 17.9899 18.0151 18.3024 18.0151 18.6476C18.0151 19.338 18.5747 19.8976 19.2651 19.8976Z" fill="url(#paint0_linear_1013_7045)"/>
</g>
</g>
<defs>
<linearGradient id="paint0_linear_1013_7045" x1="15.3359" y1="20.0584" x2="25.9844" y2="20.0584" gradientUnits="userSpaceOnUse">
<stop offset="0.1" stop-color="#FF712B"/>
<stop offset="0.9" stop-color="#FF0F7B"/>
</linearGradient>
<clipPath id="clip0_1013_7045">
<rect x="0.664062" width="40" height="40" rx="4" fill="white"/>
</clipPath>
<clipPath id="clip1_1013_7045">
<rect width="24" height="24" fill="white" transform="translate(8.66406 8)"/>
</clipPath>
</defs>
</svg>
