<svg width="41" height="40" viewBox="0 0 41 40" fill="none" xmlns="http://www.w3.org/2000/svg">
<g clip-path="url(#clip0_1013_7051)">
<rect x="0.664062" width="40" height="40" rx="8" fill="#F4F4F5"/>
<path d="M25.6072 22.1122V21.2911C25.6072 20.554 25.0235 19.872 24.3061 19.771C23.8664 19.7091 23.423 19.8391 23.0906 20.1279C22.7581 20.417 22.5673 20.8352 22.5673 21.2755V22.1122C22.2223 22.1765 21.9609 22.4786 21.9609 22.8423V24.8352C21.9609 25.2457 22.2937 25.5785 22.7042 25.5785H25.4703C25.8808 25.5785 26.2136 25.2457 26.2136 24.8352V22.8423C26.2136 22.4786 25.9522 22.1765 25.6072 22.1122ZM23.5826 20.6941C23.7534 20.5455 23.9732 20.4815 24.2015 20.5136C24.5508 20.5628 24.8572 20.9261 24.8572 21.2911V22.099H23.3173V21.2755C23.3173 21.0525 23.414 20.8406 23.5826 20.6941Z" fill="url(#paint0_linear_1013_7051)"/>
<path d="M12.5625 22.3242H15.3877C15.5948 22.3242 15.7627 22.1564 15.7627 21.9492C15.7627 21.7421 15.5948 21.5742 15.3877 21.5742H12.5625C12.3554 21.5742 12.1875 21.7421 12.1875 21.9492C12.1875 22.1564 12.3554 22.3242 12.5625 22.3242Z" fill="black"/>
<path d="M12.5625 20.5098H14.2103C14.4174 20.5098 14.5853 20.3419 14.5853 20.1348C14.5853 19.9276 14.4174 19.7598 14.2103 19.7598H12.5625C12.3554 19.7598 12.1875 19.9276 12.1875 20.1348C12.1875 20.3419 12.3554 20.5098 12.5625 20.5098Z" fill="black"/>
<path d="M27.3694 20.494C27.4435 20.5879 27.5533 20.6368 27.6642 20.6368C27.7455 20.6368 27.8273 20.6106 27.8961 20.5563C28.0588 20.4281 28.0866 20.1923 27.9584 20.0297L27.9523 20.0218C27.8251 19.8581 27.5895 19.8289 27.4261 19.956C27.2625 20.0832 27.2331 20.3188 27.3603 20.4823C27.3608 20.4829 27.3689 20.4934 27.3694 20.494Z" fill="black"/>
<path d="M15.3859 20.5098C15.593 20.5098 15.7609 20.3419 15.7609 20.1348C15.7609 19.9276 15.593 19.7598 15.3859 19.7598H15.3796C15.1725 19.7598 15.0078 19.9276 15.0078 20.1348C15.0078 20.3419 15.1788 20.5098 15.3859 20.5098Z" fill="black"/>
<path d="M26.7764 19.7639C26.8912 19.7639 27.0045 19.7114 27.0781 19.6121C27.2014 19.4456 27.1664 19.2108 26.9999 19.0875C26.9991 19.0869 26.9882 19.0789 26.9873 19.0783C26.8203 18.9569 26.5915 18.9969 26.4694 19.1633C26.3472 19.3298 26.3876 19.5673 26.5535 19.6903C26.6207 19.7399 26.6989 19.7639 26.7764 19.7639Z" fill="black"/>
<path d="M18.9297 17.4453H21.6062C21.8133 17.4453 21.9812 17.2775 21.9812 17.0703C21.9812 16.8632 21.8133 16.6953 21.6062 16.6953H18.9297C18.7226 16.6953 18.5547 16.8632 18.5547 17.0703C18.5547 17.2775 18.7226 17.4453 18.9297 17.4453Z" fill="black"/>
<path d="M21.6062 12.6348H18.9297C18.7226 12.6348 18.5547 12.8026 18.5547 13.0098C18.5547 13.2169 18.7226 13.3848 18.9297 13.3848H21.6062C21.8133 13.3848 21.9812 13.2169 21.9812 13.0098C21.9812 12.8026 21.8133 12.6348 21.6062 12.6348Z" fill="black"/>
<path d="M19.8995 19.0996C19.8995 18.8925 19.7316 18.7246 19.5245 18.7246H18.9297C18.7226 18.7246 18.5547 18.8925 18.5547 19.0996C18.5547 19.3068 18.7226 19.4746 18.9297 19.4746H19.5245C19.7316 19.4746 19.8995 19.3068 19.8995 19.0996Z" fill="black"/>
<path d="M30.432 28.8784L27.8068 26.2533C28.5476 25.3912 28.9986 24.2732 28.9986 23.0501C28.9986 22.6588 28.9525 22.2693 28.8616 21.8923C28.8049 21.657 28.7299 21.4235 28.6386 21.1985C28.5607 21.0066 28.3422 20.9143 28.1501 20.992C27.9582 21.0698 27.8657 21.2886 27.9436 21.4805C28.021 21.671 28.0845 21.8687 28.1325 22.068C28.2095 22.3876 28.2485 22.718 28.2485 23.0501C28.2485 25.3522 26.3756 27.2251 24.0735 27.2251C21.7714 27.2251 19.8984 25.3522 19.8984 23.0501C19.8984 20.7479 21.7714 18.875 24.0735 18.875C24.579 18.875 25.0729 18.9643 25.5416 19.1404C25.7357 19.2129 25.9517 19.1151 26.0245 18.9211C26.0974 18.7273 25.9992 18.5111 25.8054 18.4382C25.2521 18.2303 24.6694 18.125 24.0735 18.125C21.3578 18.125 19.1484 20.3343 19.1484 23.05C19.1484 25.7657 21.3578 27.9751 24.0735 27.9751C25.2965 27.9751 26.4144 27.5242 27.2765 26.7836L29.9017 29.4087C29.9749 29.4819 30.0709 29.5186 30.1668 29.5186C30.2628 29.5186 30.3588 29.4819 30.432 29.4087C30.5784 29.2623 30.5785 29.0248 30.432 28.8784Z" fill="black"/>
<path d="M18.2419 23.6864H17.1299V11.2324H23.3686V17.1918C23.3686 17.3989 23.5365 17.5668 23.7436 17.5668C23.9507 17.5668 24.1186 17.3989 24.1186 17.1918V10.8574C24.1186 10.6503 23.9507 10.4824 23.7436 10.4824H16.7549C16.5478 10.4824 16.3799 10.6503 16.3799 10.8574V17.8279H11.1641C10.957 17.8279 10.7891 17.9957 10.7891 18.2029V24.0912C10.7891 24.2983 10.957 24.4662 11.1641 24.4662C11.216 24.4662 11.2655 24.4555 11.3105 24.4364H18.242C18.449 24.4364 18.617 24.2685 18.617 24.0614C18.617 23.8542 18.449 23.6864 18.2419 23.6864ZM16.3799 23.6864H11.5391V18.5779H16.38L16.3799 23.6864Z" fill="black"/>
<path d="M18.9297 15.4141H20.4724C20.6795 15.4141 20.8443 15.2462 20.8443 15.0391C20.8443 14.8319 20.6733 14.6641 20.4662 14.6641H18.9297C18.7226 14.6641 18.5547 14.8319 18.5547 15.0391C18.5547 15.2462 18.7226 15.4141 18.9297 15.4141Z" fill="black"/>
<path d="M21.6 15.4141C21.8071 15.4141 21.9719 15.2462 21.9719 15.0391C21.9719 14.8319 21.8008 14.6641 21.5938 14.6641C21.3867 14.6641 21.2188 14.8319 21.2188 15.0391C21.2188 15.2462 21.3867 15.4141 21.5938 15.4141H21.6Z" fill="black"/>
</g>
<defs>
<linearGradient id="paint0_linear_1013_7051" x1="21.9609" y1="22.6672" x2="26.2136" y2="22.6672" gradientUnits="userSpaceOnUse">
<stop offset="0.1" stop-color="#FF712B"/>
<stop offset="0.9" stop-color="#FF0F7B"/>
</linearGradient>
<clipPath id="clip0_1013_7051">
<rect x="0.664062" width="40" height="40" rx="4" fill="white"/>
</clipPath>
</defs>
</svg>
