<svg width="41" height="40" viewBox="0 0 41 40" fill="none" xmlns="http://www.w3.org/2000/svg">
<g clip-path="url(#clip0_1013_7047)">
<rect x="0.664062" width="40" height="40" rx="8" fill="#F4F4F5"/>
<g clip-path="url(#clip1_1013_7047)">
<path d="M18.3125 22.4006C18.1054 22.4006 17.9375 22.2327 17.9375 22.0256V19.478C17.9375 19.2709 18.1054 19.103 18.3125 19.103C18.5196 19.103 18.6875 19.2709 18.6875 19.478V22.0256C18.6875 22.2327 18.5196 22.4006 18.3125 22.4006ZM20.2222 22.4553V17.5137C20.2222 17.3066 20.0542 17.1387 19.8472 17.1387C19.6401 17.1387 19.4722 17.3066 19.4722 17.5137V22.4553C19.4722 22.6623 19.6401 22.8303 19.8472 22.8303C20.0542 22.8303 20.2222 22.6623 20.2222 22.4553ZM21.7875 22.4553V20.5829C21.7875 20.3759 21.6196 20.2079 21.4125 20.2079C21.2054 20.2079 21.0375 20.3759 21.0375 20.5829V22.4553C21.0375 22.6623 21.2054 22.8303 21.4125 22.8303C21.6196 22.8303 21.7875 22.6623 21.7875 22.4553ZM23.3221 21.9642V19.478C23.3221 19.2709 23.1542 19.103 22.9471 19.103C22.74 19.103 22.5721 19.2709 22.5721 19.478V21.9642C22.5721 22.1713 22.74 22.3392 22.9471 22.3392C23.1542 22.3392 23.3221 22.1713 23.3221 21.9642Z" fill="black"/>
<path d="M27.946 13.8008H13.3859C12.7022 13.8008 12.1484 14.3546 12.1484 15.037V24.6045L29.1835 24.5745V15.037C29.1835 14.3545 28.6297 13.8008 27.946 13.8008ZM26.5422 19.5058C25.8759 20.2108 23.4834 22.5133 20.6347 22.5133C17.7859 22.5133 15.3935 20.2108 14.7272 19.5058C14.6197 19.392 14.6197 19.2145 14.7272 19.1008C15.3935 18.3958 17.7859 16.0933 20.6347 16.0933C23.4834 16.0933 25.8759 18.3958 26.5422 19.1008C26.6497 19.2145 26.6497 19.392 26.5422 19.5058Z" fill="url(#paint0_linear_1013_7047)"/>
<path d="M32.0391 24.6035C32.0391 25.6904 31.1548 26.5746 30.068 26.5746H29.0088C28.8017 26.5746 28.6338 26.4067 28.6338 26.1996C28.6338 25.9925 28.8017 25.8246 29.0088 25.8246C29.0099 25.8246 29.0108 25.8252 29.0119 25.8252C29.013 25.8252 29.0139 25.8246 29.015 25.8246H30.068C30.6105 25.8246 31.0716 25.4689 31.2302 24.9785H10.098C10.2566 25.4689 10.7176 25.8246 11.2601 25.8246H24.8051C25.0121 25.8246 25.1832 25.9925 25.1832 26.1996C25.1832 26.4067 25.0184 26.5746 24.8114 26.5746H11.2601C10.1733 26.5746 9.28906 25.6904 9.28906 24.6035C9.28906 24.3964 9.45697 24.2285 9.66406 24.2285H31.6641C31.8712 24.2285 32.0391 24.3964 32.0391 24.6035ZM26.2151 25.8246H26.2012C25.9941 25.8246 25.8262 25.9925 25.8262 26.1996C25.8262 26.4067 25.9941 26.5746 26.2012 26.5746H26.2151C26.4222 26.5746 26.5901 26.4067 26.5901 26.1996C26.5901 25.9925 26.4222 25.8246 26.2151 25.8246ZM27.6189 25.8246H27.605C27.3979 25.8246 27.23 25.9925 27.23 26.1996C27.23 26.4067 27.3979 26.5746 27.605 26.5746H27.6189C27.826 26.5746 27.9939 26.4067 27.9939 26.1996C27.9939 25.9925 27.826 25.8246 27.6189 25.8246Z" fill="black"/>
</g>
</g>
<defs>
<linearGradient id="paint0_linear_1013_7047" x1="12.1484" y1="19.2027" x2="29.1835" y2="19.2027" gradientUnits="userSpaceOnUse">
<stop offset="0.1" stop-color="#FF712B"/>
<stop offset="0.9" stop-color="#FF0F7B"/>
</linearGradient>
<clipPath id="clip0_1013_7047">
<rect x="0.664062" width="40" height="40" rx="4" fill="white"/>
</clipPath>
<clipPath id="clip1_1013_7047">
<rect width="24" height="24" fill="white" transform="translate(8.66406 8)"/>
</clipPath>
</defs>
</svg>
