<svg width="41" height="40" viewBox="0 0 41 40" fill="none" xmlns="http://www.w3.org/2000/svg">
<g clip-path="url(#clip0_1013_7075)">
<rect x="0.664062" width="40" height="40" rx="8" fill="#F4F4F5"/>
<g clip-path="url(#clip1_1013_7075)">
<path d="M25.1365 26.3745C25.1365 26.5816 24.9686 26.7495 24.7615 26.7495H24.7477C24.5407 26.7495 24.3727 26.5816 24.3727 26.3745C24.3727 26.1674 24.5407 25.9995 24.7477 25.9995H24.7615C24.9686 25.9995 25.1365 26.1674 25.1365 26.3745ZM26.1541 25.9995H26.1402C25.9332 25.9995 25.7652 26.1674 25.7652 26.3745C25.7652 26.5816 25.9332 26.7495 26.1402 26.7495H26.1541C26.3611 26.7495 26.5291 26.5816 26.5291 26.3745C26.5291 26.1674 26.3611 25.9995 26.1541 25.9995ZM28.2836 19.3532C28.1828 19.3532 28.0787 19.3586 27.9661 19.3695L27.5156 19.4123L27.447 18.9647C27.0139 16.1405 24.9711 14.0115 22.1157 13.4087C21.6172 13.3034 21.111 13.25 20.6111 13.25C18.2349 13.25 16.0697 14.4624 14.8193 16.493L14.6796 16.7199L14.4131 16.7211C13.0217 16.7273 11.7785 17.2208 10.8177 18.1482C9.83197 19.1001 9.28906 20.3729 9.28906 21.7321C9.28906 24.3271 11.3028 26.5304 13.8735 26.7482C13.884 26.7491 13.8946 26.7495 13.9051 26.7495H23.3627C23.5698 26.7495 23.7377 26.5816 23.7377 26.3745C23.7377 26.1674 23.5698 25.9995 23.3627 25.9995H13.9214C11.7432 25.8068 10.0391 23.9354 10.0391 21.7321C10.0391 20.5782 10.5006 19.497 11.3386 18.6877C12.1576 17.8971 13.222 17.4764 14.4166 17.4711L14.8913 17.4689C15.0208 17.4683 15.1409 17.4009 15.2089 17.2906L15.458 16.8863C16.5708 15.079 18.4972 14 20.6111 14C21.059 14 21.5131 14.0479 21.9607 14.1424C24.5029 14.6792 26.3211 16.5705 26.7057 19.0783L26.8279 19.8759C26.858 20.0724 27.0346 20.2114 27.2341 20.1924L28.0378 20.116C28.1268 20.1074 28.2073 20.1032 28.2836 20.1032C29.9408 20.1032 31.2891 21.4258 31.2891 23.0516C31.2891 24.6773 29.9408 25.9995 28.2836 25.9995H27.5391C27.332 25.9995 27.1641 26.1674 27.1641 26.3745C27.1641 26.5816 27.332 26.7495 27.5391 26.7495H28.2836C30.3544 26.7495 32.0391 25.0906 32.0391 23.0516C32.0391 21.0125 30.3544 19.3532 28.2836 19.3532Z" fill="black"/>
<path d="M16.1673 20.9653L17.7169 19.4224C17.8147 19.325 17.9731 19.3254 18.0705 19.4232L18.4232 19.7776C18.5206 19.8755 18.5203 20.0337 18.4224 20.1311L17.4035 21.1456L18.4206 22.1703C18.5179 22.2683 18.5173 22.4266 18.4193 22.5238L18.0644 22.876C17.9664 22.9732 17.8081 22.9726 17.7109 22.8747L16.1663 21.3186C16.0692 21.2207 16.0696 21.0626 16.1673 20.9653ZM22.4011 22.5217L22.7539 22.876C22.8513 22.9739 23.0096 22.9742 23.1075 22.8768L24.6572 21.334C24.7549 21.2367 24.7554 21.0786 24.6582 20.9807L23.1136 19.4246C23.0164 19.3266 22.8581 19.326 22.7601 19.4233L22.4052 19.7754C22.3072 19.8727 22.3066 20.031 22.4039 20.129L23.421 21.1537L22.402 22.1681C22.3041 22.2655 22.3037 22.4238 22.4011 22.5217ZM19.2782 22.6139L19.7111 22.8639C19.8307 22.933 19.9836 22.892 20.0526 22.7724L21.6378 20.0268C21.7069 19.9072 21.6659 19.7543 21.5463 19.6853L21.1134 19.4353C20.9938 19.3663 20.8409 19.4072 20.7719 19.5268L19.1867 22.2724C19.1176 22.392 19.1586 22.5449 19.2782 22.6139Z" fill="url(#paint0_linear_1013_7075)"/>
</g>
</g>
<defs>
<linearGradient id="paint0_linear_1013_7075" x1="16.0937" y1="21.1496" x2="24.7308" y2="21.1496" gradientUnits="userSpaceOnUse">
<stop offset="0.1" stop-color="#FF712B"/>
<stop offset="0.9" stop-color="#FF0F7B"/>
</linearGradient>
<clipPath id="clip0_1013_7075">
<rect x="0.664062" width="40" height="40" rx="4" fill="white"/>
</clipPath>
<clipPath id="clip1_1013_7075">
<rect width="24" height="24" fill="white" transform="translate(8.66406 8)"/>
</clipPath>
</defs>
</svg>
