<svg viewBox="0 0 80 80" xmlns="http://www.w3.org/2000/svg" xmlns:xlink="http://www.w3.org/1999/xlink" id="icon_art" overflow="hidden"><style>
.MsftOfcThm_Background1_Fill_v2 {
 fill:#FFFFFF; 
}
</style>
<defs></defs><path d="M69.1 57.14 63.47 53.44 63.19 27.01C63.19 25.63 62.4 24.37 61.18 23.79L45.08 16.38C45.24 15.87 45.32 15.33 45.32 14.77 45.32 11.72 42.84 9.25 39.8 9.25 36.76 9.25 34.28 11.73 34.28 14.77 34.28 15.33 34.36 15.86 34.52 16.37L18.31 23.8C17.1 24.37 16.31 25.63 16.31 27.01L16.17 54.29 10.89 57.87C10.55 58.1 10.46 58.57 10.69 58.91 10.83 59.12 11.06 59.24 11.31 59.24 11.46 59.24 11.6 59.2 11.73 59.11L16.98 55.55 34.51 63.82C34.39 64.28 34.31 64.76 34.31 65.25 34.31 68.28 36.78 70.75 39.81 70.75 42.84 70.75 45.31 68.28 45.31 65.25 45.31 64.68 45.22 64.14 45.06 63.63L62.66 54.72 68.26 58.4C68.38 58.48 68.52 58.52 68.67 58.52 68.92 58.52 69.16 58.39 69.3 58.18 69.53 57.84 69.43 57.37 69.08 57.14ZM39.8 10.75C42.02 10.75 43.83 12.56 43.83 14.78 43.83 17 42.02 18.81 39.8 18.81 37.58 18.81 35.77 17 35.77 14.78 35.77 12.56 37.58 10.75 39.8 10.75ZM39.82 69.25C37.61 69.25 35.81 67.45 35.81 65.24 35.81 63.03 37.61 61.23 39.82 61.23 42.03 61.23 43.83 63.03 43.83 65.24 43.83 67.45 42.03 69.25 39.82 69.25ZM44.44 62.27C43.46 60.75 41.76 59.75 39.82 59.75 37.88 59.75 36.06 60.83 35.1 62.44L18.46 54.59 27.57 48.72 39.06 54.14C39.06 54.14 39.12 54.17 39.16 54.18 39.37 54.27 39.6 54.31 39.83 54.31 40.06 54.31 40.29 54.27 40.5 54.18 40.54 54.17 40.57 54.15 40.61 54.13L52.56 48.08C52.82 47.95 52.97 47.69 52.97 47.4L52.82 32.93C52.82 32.05 52.32 31.25 51.54 30.89L40.18 25.66C39.98 25.57 39.75 25.57 39.56 25.66L28.13 30.9C27.36 31.27 26.86 32.07 26.86 32.94L26.79 47.46 17.7 53.32 17.83 27.02C17.83 26.22 18.28 25.49 18.96 25.17L35.17 17.74C36.15 19.28 37.87 20.31 39.83 20.31 41.79 20.31 43.5 19.29 44.48 17.75L60.58 25.16C61.28 25.49 61.73 26.22 61.73 27.03L62 53.4 44.47 62.27ZM28.26 47.39 28.33 32.94C28.33 32.64 28.49 32.37 28.74 32.25L39.85 27.16 50.9 32.25C51.15 32.37 51.32 32.64 51.32 32.94L51.47 46.96 40 52.77C40 52.77 39.96 52.79 39.94 52.79 39.87 52.82 39.79 52.82 39.72 52.79 39.69 52.78 39.66 52.77 39.64 52.76L28.27 47.4Z" class="cls-1 MsftOfcThm_Background1_Fill_v2" stroke="none" stroke-width="1" stroke-linecap="butt" stroke-linejoin="miter" stroke-miterlimit="4" fill="#FFFFFF" fill-opacity="1"/><path d="M40.31 38.23 47.63 34.81 47.63 34.81C48.04 34.62 48.3 34.2 48.3 33.74 48.3 33.28 48.04 32.87 47.63 32.67L40.31 29.25C40 29.11 39.65 29.11 39.34 29.25L32.07 32.67C31.67 32.86 31.41 33.28 31.41 33.73 31.41 34.18 31.67 34.6 32.08 34.79L39.35 38.21C39.5 38.28 39.67 38.32 39.83 38.32 39.99 38.32 40.16 38.28 40.32 38.21ZM33.33 33.74 39.83 30.68 46.38 33.74 39.84 36.8 33.34 33.74Z" class="cls-1 MsftOfcThm_Background1_Fill_v2" stroke="none" stroke-width="1" stroke-linecap="butt" stroke-linejoin="miter" stroke-miterlimit="4" fill="#FFFFFF" fill-opacity="1"/></svg>