<svg viewBox="0 0 80 80" xmlns="http://www.w3.org/2000/svg" xmlns:xlink="http://www.w3.org/1999/xlink" id="icon_art" overflow="hidden"><style>
.MsftOfcThm_Background1_Fill_v2 {
 fill:#0D274D; 
}
</style>
<defs></defs><path d="M50.71 37.69C50.71 37.4 50.55 37.14 50.29 37.02L40.33 32.1C40.12 32 39.87 32 39.67 32.1L29.71 37.02C29.45 37.15 29.29 37.41 29.29 37.69 29.29 37.97 29.45 38.24 29.71 38.36L33.02 40 29.71 41.64C29.45 41.77 29.29 42.03 29.29 42.31 29.29 42.59 29.45 42.86 29.71 42.98L39.67 47.9C39.77 47.95 39.89 47.98 40 47.98 40.11 47.98 40.23 47.95 40.33 47.9L50.29 42.98C50.55 42.85 50.71 42.59 50.71 42.31 50.71 42.03 50.55 41.76 50.29 41.64L46.98 40 50.29 38.36C50.55 38.23 50.71 37.97 50.71 37.69ZM48.26 42.31 39.99 46.39 31.72 42.31 34.7 40.84 39.65 43.28C39.75 43.33 39.87 43.36 39.98 43.36 40.09 43.36 40.21 43.33 40.31 43.28L45.26 40.84 48.24 42.31ZM36.4 40 39.99 38.23 43.58 40 39.99 41.77 36.4 40ZM45.28 39.16 40.33 36.72C40.12 36.62 39.87 36.62 39.67 36.72L34.72 39.16 31.74 37.69 40.01 33.61 48.28 37.69 45.3 39.16Z" class="cls-1 MsftOfcThm_Background1_Fill_v2" stroke="none" stroke-width="1" stroke-linecap="butt" stroke-linejoin="miter" stroke-miterlimit="4" fill="#0D274D" fill-opacity="1"/><path d="M40 57.08C39.59 57.08 39.25 57.42 39.25 57.83L39.25 63.3C39.25 63.71 39.59 64.05 40 64.05 40.41 64.05 40.75 63.71 40.75 63.3L40.75 57.83C40.75 57.42 40.41 57.08 40 57.08Z" class="cls-1 MsftOfcThm_Background1_Fill_v2" stroke="none" stroke-width="1" stroke-linecap="butt" stroke-linejoin="miter" stroke-miterlimit="4" fill="#0D274D" fill-opacity="1"/><path d="M35.58 56.5C35.17 56.39 34.77 56.63 34.66 57.03L33.24 62.32C33.13 62.72 33.37 63.13 33.77 63.24 33.84 63.26 33.9 63.27 33.96 63.27 34.29 63.27 34.59 63.05 34.68 62.71L36.1 57.42C36.21 57.02 35.97 56.61 35.57 56.5Z" class="cls-1 MsftOfcThm_Background1_Fill_v2" stroke="none" stroke-width="1" stroke-linecap="butt" stroke-linejoin="miter" stroke-miterlimit="4" fill="#0D274D" fill-opacity="1"/><path d="M31.46 54.79C31.1 54.58 30.64 54.71 30.44 55.06L27.7 59.8C27.49 60.16 27.62 60.62 27.97 60.82 28.09 60.89 28.22 60.92 28.34 60.92 28.6 60.92 28.85 60.79 28.99 60.54L31.73 55.8C31.94 55.44 31.81 54.98 31.46 54.78Z" class="cls-1 MsftOfcThm_Background1_Fill_v2" stroke="none" stroke-width="1" stroke-linecap="butt" stroke-linejoin="miter" stroke-miterlimit="4" fill="#0D274D" fill-opacity="1"/><path d="M27.92 52.08C27.63 51.79 27.15 51.79 26.86 52.08L22.99 55.95C22.7 56.24 22.7 56.72 22.99 57.01 23.14 57.16 23.33 57.23 23.52 57.23 23.71 57.23 23.9 57.16 24.05 57.01L27.92 53.14C28.21 52.85 28.21 52.37 27.92 52.08Z" class="cls-1 MsftOfcThm_Background1_Fill_v2" stroke="none" stroke-width="1" stroke-linecap="butt" stroke-linejoin="miter" stroke-miterlimit="4" fill="#0D274D" fill-opacity="1"/><path d="M25.21 48.54C25 48.18 24.55 48.06 24.19 48.27L19.45 51.01C19.09 51.22 18.97 51.68 19.18 52.03 19.32 52.27 19.57 52.41 19.83 52.41 19.96 52.41 20.09 52.38 20.2 52.31L24.94 49.57C25.3 49.36 25.42 48.9 25.21 48.55Z" class="cls-1 MsftOfcThm_Background1_Fill_v2" stroke="none" stroke-width="1" stroke-linecap="butt" stroke-linejoin="miter" stroke-miterlimit="4" fill="#0D274D" fill-opacity="1"/><path d="M23.5 44.42C23.39 44.02 22.99 43.78 22.58 43.89L17.29 45.31C16.89 45.42 16.65 45.83 16.76 46.23 16.85 46.56 17.15 46.79 17.48 46.79 17.54 46.79 17.61 46.79 17.67 46.76L22.96 45.34C23.36 45.23 23.6 44.82 23.49 44.42Z" class="cls-1 MsftOfcThm_Background1_Fill_v2" stroke="none" stroke-width="1" stroke-linecap="butt" stroke-linejoin="miter" stroke-miterlimit="4" fill="#0D274D" fill-opacity="1"/><path d="M22.92 40C22.92 39.59 22.58 39.25 22.17 39.25L16.7 39.25C16.29 39.25 15.95 39.59 15.95 40 15.95 40.41 16.29 40.75 16.7 40.75L22.17 40.75C22.58 40.75 22.92 40.41 22.92 40Z" class="cls-1 MsftOfcThm_Background1_Fill_v2" stroke="none" stroke-width="1" stroke-linecap="butt" stroke-linejoin="miter" stroke-miterlimit="4" fill="#0D274D" fill-opacity="1"/><path d="M17.3 34.69 22.59 36.11C22.66 36.13 22.72 36.14 22.78 36.14 23.11 36.14 23.41 35.92 23.5 35.58 23.61 35.18 23.37 34.77 22.97 34.66L17.68 33.24C17.27 33.13 16.87 33.37 16.76 33.77 16.65 34.17 16.89 34.58 17.29 34.69Z" class="cls-1 MsftOfcThm_Background1_Fill_v2" stroke="none" stroke-width="1" stroke-linecap="butt" stroke-linejoin="miter" stroke-miterlimit="4" fill="#0D274D" fill-opacity="1"/><path d="M19.45 29 24.19 31.74C24.31 31.81 24.44 31.84 24.56 31.84 24.82 31.84 25.07 31.71 25.21 31.46 25.42 31.1 25.29 30.64 24.94 30.44L20.2 27.7C19.84 27.49 19.38 27.62 19.18 27.97 18.97 28.33 19.1 28.79 19.45 28.99Z" class="cls-1 MsftOfcThm_Background1_Fill_v2" stroke="none" stroke-width="1" stroke-linecap="butt" stroke-linejoin="miter" stroke-miterlimit="4" fill="#0D274D" fill-opacity="1"/><path d="M26.86 27.92C27.01 28.07 27.2 28.14 27.39 28.14 27.58 28.14 27.77 28.07 27.92 27.92 28.21 27.63 28.21 27.15 27.92 26.86L24.05 22.99C23.76 22.7 23.28 22.7 22.99 22.99 22.7 23.28 22.7 23.76 22.99 24.05L26.86 27.92Z" class="cls-1 MsftOfcThm_Background1_Fill_v2" stroke="none" stroke-width="1" stroke-linecap="butt" stroke-linejoin="miter" stroke-miterlimit="4" fill="#0D274D" fill-opacity="1"/><path d="M30.44 24.94C30.58 25.18 30.83 25.32 31.09 25.32 31.22 25.32 31.35 25.29 31.46 25.22 31.82 25.01 31.94 24.55 31.73 24.2L28.99 19.46C28.78 19.1 28.33 18.98 27.97 19.19 27.61 19.4 27.49 19.86 27.7 20.21L30.44 24.95Z" class="cls-1 MsftOfcThm_Background1_Fill_v2" stroke="none" stroke-width="1" stroke-linecap="butt" stroke-linejoin="miter" stroke-miterlimit="4" fill="#0D274D" fill-opacity="1"/><path d="M34.66 22.97C34.75 23.3 35.05 23.53 35.38 23.53 35.44 23.53 35.51 23.53 35.57 23.5 35.97 23.39 36.21 22.98 36.1 22.58L34.68 17.29C34.57 16.89 34.17 16.65 33.76 16.76 33.36 16.87 33.12 17.28 33.23 17.68L34.65 22.97Z" class="cls-1 MsftOfcThm_Background1_Fill_v2" stroke="none" stroke-width="1" stroke-linecap="butt" stroke-linejoin="miter" stroke-miterlimit="4" fill="#0D274D" fill-opacity="1"/><path d="M40 22.92C40.41 22.92 40.75 22.58 40.75 22.17L40.75 16.7C40.75 16.29 40.41 15.95 40 15.95 39.59 15.95 39.25 16.29 39.25 16.7L39.25 22.17C39.25 22.58 39.59 22.92 40 22.92Z" class="cls-1 MsftOfcThm_Background1_Fill_v2" stroke="none" stroke-width="1" stroke-linecap="butt" stroke-linejoin="miter" stroke-miterlimit="4" fill="#0D274D" fill-opacity="1"/><path d="M44.42 23.5C44.49 23.52 44.55 23.53 44.61 23.53 44.94 23.53 45.24 23.31 45.33 22.97L46.75 17.68C46.86 17.28 46.62 16.87 46.22 16.76 45.81 16.65 45.41 16.89 45.3 17.29L43.88 22.58C43.77 22.98 44.01 23.39 44.41 23.5Z" class="cls-1 MsftOfcThm_Background1_Fill_v2" stroke="none" stroke-width="1" stroke-linecap="butt" stroke-linejoin="miter" stroke-miterlimit="4" fill="#0D274D" fill-opacity="1"/><path d="M48.54 25.21C48.66 25.28 48.79 25.31 48.91 25.31 49.17 25.31 49.42 25.18 49.56 24.93L52.3 20.19C52.51 19.83 52.38 19.37 52.03 19.17 51.67 18.96 51.21 19.09 51.01 19.44L48.27 24.18C48.06 24.54 48.19 25 48.54 25.2Z" class="cls-1 MsftOfcThm_Background1_Fill_v2" stroke="none" stroke-width="1" stroke-linecap="butt" stroke-linejoin="miter" stroke-miterlimit="4" fill="#0D274D" fill-opacity="1"/><path d="M57.01 22.99C56.72 22.7 56.24 22.7 55.95 22.99L52.08 26.86C51.79 27.15 51.79 27.63 52.08 27.92 52.23 28.07 52.42 28.14 52.61 28.14 52.8 28.14 52.99 28.07 53.14 27.92L57.01 24.05C57.3 23.76 57.3 23.28 57.01 22.99Z" class="cls-1 MsftOfcThm_Background1_Fill_v2" stroke="none" stroke-width="1" stroke-linecap="butt" stroke-linejoin="miter" stroke-miterlimit="4" fill="#0D274D" fill-opacity="1"/><path d="M54.79 31.46C54.93 31.7 55.18 31.84 55.44 31.84 55.57 31.84 55.7 31.81 55.81 31.74L60.55 29C60.91 28.79 61.03 28.33 60.82 27.98 60.61 27.62 60.15 27.5 59.8 27.71L55.06 30.45C54.7 30.66 54.58 31.12 54.79 31.47Z" class="cls-1 MsftOfcThm_Background1_Fill_v2" stroke="none" stroke-width="1" stroke-linecap="butt" stroke-linejoin="miter" stroke-miterlimit="4" fill="#0D274D" fill-opacity="1"/><path d="M56.5 35.58C56.59 35.91 56.89 36.14 57.22 36.14 57.28 36.14 57.35 36.14 57.41 36.11L62.7 34.69C63.1 34.58 63.34 34.17 63.23 33.77 63.12 33.37 62.72 33.13 62.31 33.24L57.02 34.66C56.62 34.77 56.38 35.18 56.49 35.58Z" class="cls-1 MsftOfcThm_Background1_Fill_v2" stroke="none" stroke-width="1" stroke-linecap="butt" stroke-linejoin="miter" stroke-miterlimit="4" fill="#0D274D" fill-opacity="1"/><path d="M63.3 39.25 57.83 39.25C57.42 39.25 57.08 39.59 57.08 40 57.08 40.41 57.42 40.75 57.83 40.75L63.3 40.75C63.71 40.75 64.05 40.41 64.05 40 64.05 39.59 63.71 39.25 63.3 39.25Z" class="cls-1 MsftOfcThm_Background1_Fill_v2" stroke="none" stroke-width="1" stroke-linecap="butt" stroke-linejoin="miter" stroke-miterlimit="4" fill="#0D274D" fill-opacity="1"/><path d="M62.7 45.31 57.41 43.89C57 43.78 56.6 44.02 56.49 44.42 56.38 44.82 56.62 45.23 57.02 45.34L62.31 46.76C62.38 46.78 62.44 46.79 62.5 46.79 62.83 46.79 63.13 46.57 63.22 46.23 63.33 45.83 63.09 45.42 62.69 45.31Z" class="cls-1 MsftOfcThm_Background1_Fill_v2" stroke="none" stroke-width="1" stroke-linecap="butt" stroke-linejoin="miter" stroke-miterlimit="4" fill="#0D274D" fill-opacity="1"/><path d="M60.55 51 55.81 48.26C55.45 48.05 54.99 48.18 54.79 48.53 54.58 48.89 54.71 49.35 55.06 49.55L59.8 52.29C59.92 52.36 60.05 52.39 60.17 52.39 60.43 52.39 60.68 52.26 60.82 52.01 61.03 51.65 60.9 51.19 60.55 50.99Z" class="cls-1 MsftOfcThm_Background1_Fill_v2" stroke="none" stroke-width="1" stroke-linecap="butt" stroke-linejoin="miter" stroke-miterlimit="4" fill="#0D274D" fill-opacity="1"/></svg>