<svg viewBox="0 0 80 80" xmlns="http://www.w3.org/2000/svg" xmlns:xlink="http://www.w3.org/1999/xlink" id="icon_art" overflow="hidden"><style>
.MsftOfcThm_Background1_Fill_v2 {
 fill:#FFFFFF; 
}
</style>
<defs></defs><path d="M40 9.27C23.05 9.27 9.27 23.06 9.27 40 9.27 56.94 23.06 70.73 40 70.73 56.94 70.73 70.73 56.94 70.73 40 70.73 23.06 56.94 9.27 40 9.27ZM40 69.27C36.43 69.27 32.94 68.63 29.62 67.37 26.42 66.15 23.47 64.39 20.87 62.14 15.61 57.59 12.13 51.32 11.08 44.5L11.08 44.5 11.08 44.48 15.52 40.09 11.06 35.68 11.06 35.68C12.08 28.81 15.55 22.51 20.82 17.92 23.43 15.65 26.38 13.88 29.59 12.65 32.91 11.38 36.42 10.74 40 10.74 56.14 10.74 69.27 23.87 69.27 40.01 69.27 56.15 56.14 69.28 40 69.28ZM10.86 42.62 10.86 42.58C10.78 41.66 10.74 40.82 10.74 40 10.74 39.25 10.78 38.46 10.85 37.58L10.85 37.54 10.88 37.57 13.43 40.09 13.42 40.09 10.87 42.62Z" class="MsftOfcThm_Background1_Fill_v2" stroke="none" stroke-width="1" stroke-linecap="butt" stroke-linejoin="miter" stroke-miterlimit="4" fill="#FFFFFF" fill-opacity="1"/><path d="M48.53 54.37 60.45 54.37 60.42 54.4 56.51 58.29C56.22 58.58 56.22 59.04 56.51 59.33 56.65 59.47 56.84 59.55 57.03 59.55 57.23 59.55 57.41 59.47 57.55 59.34L63.29 53.63 57.55 47.92C57.26 47.63 56.79 47.64 56.51 47.92L56.51 47.92C56.37 48.06 56.3 48.25 56.3 48.44 56.3 48.64 56.38 48.82 56.52 48.96L60.46 52.88 50.66 52.88 50.7 52.85C52.47 51.38 53.89 49.59 54.93 47.54 56 45.43 56.59 43.15 56.7 40.78L56.7 40.76 56.72 40.76 65.18 40.73 65.15 40.76 61.24 44.65C61.1 44.79 61.02 44.97 61.02 45.17 61.02 45.37 61.09 45.55 61.23 45.69 61.37 45.83 61.56 45.91 61.75 45.91 61.94 45.91 62.13 45.83 62.27 45.7L68.01 39.99 67.48 39.46 62.27 34.28C62.13 34.14 61.95 34.07 61.75 34.07L61.75 34.07C61.55 34.07 61.37 34.15 61.23 34.29 60.94 34.58 60.95 35.04 61.23 35.33L65.18 39.26 65.14 39.26 56.71 39.29 56.71 39.27C56.61 36.88 56.01 34.59 54.94 32.47 53.9 30.41 52.47 28.61 50.7 27.13L50.66 27.1 60.46 27.1 60.43 27.13 56.52 31.02C56.38 31.16 56.3 31.34 56.3 31.54 56.3 31.74 56.37 31.92 56.51 32.06 56.65 32.2 56.83 32.28 57.03 32.28 57.23 32.28 57.41 32.2 57.55 32.07L63.29 26.36 57.55 20.65C57.26 20.36 56.79 20.37 56.51 20.65 56.22 20.94 56.23 21.41 56.51 21.69L60.45 25.61 48.52 25.61C45.93 24.06 42.98 23.25 39.99 23.25 36.03 23.25 32.18 24.67 29.16 27.25 26.18 29.8 24.17 33.32 23.51 37.16L23.51 37.2 23.48 37.17 21.01 34.72C20.87 34.58 20.69 34.51 20.49 34.51L20.49 34.51C20.29 34.51 20.11 34.59 19.97 34.73 19.83 34.87 19.76 35.06 19.76 35.25 19.76 35.45 19.84 35.63 19.98 35.77L23.31 39.07 23.31 39.07C23.31 39.17 23.3 39.27 23.29 39.36 23.28 39.56 23.26 39.77 23.26 39.98 23.26 40.26 23.28 40.55 23.3 40.82 23.3 40.9 23.31 40.98 23.32 41.05L23.32 41.05 19.99 44.36C19.7 44.65 19.7 45.11 19.99 45.4 20.13 45.54 20.32 45.62 20.51 45.62 20.71 45.62 20.89 45.54 21.03 45.41L23.55 42.91 23.55 42.94C24.24 46.75 26.26 50.23 29.23 52.75 32.24 55.3 36.07 56.7 40.01 56.7 42.99 56.7 45.94 55.88 48.54 54.34L48.54 54.34ZM40 55.27C31.58 55.27 24.73 48.42 24.73 40 24.73 31.58 31.58 24.73 40 24.73 48.42 24.73 55.27 31.58 55.27 40 55.27 48.42 48.42 55.27 40 55.27Z" class="MsftOfcThm_Background1_Fill_v2" stroke="none" stroke-width="1" stroke-linecap="butt" stroke-linejoin="miter" stroke-miterlimit="4" fill="#FFFFFF" fill-opacity="1"/><path d="M15.05 34.52 15.05 34.52C14.85 34.52 14.67 34.6 14.53 34.74 14.39 34.88 14.32 35.07 14.32 35.26 14.32 35.46 14.4 35.64 14.54 35.78L18.88 40.08 18.87 40.08 14.54 44.38C14.25 44.67 14.25 45.13 14.54 45.42 14.68 45.56 14.87 45.64 15.06 45.64 15.26 45.64 15.44 45.56 15.58 45.43L20.98 40.08 15.58 34.73C15.44 34.59 15.26 34.52 15.06 34.52Z" class="MsftOfcThm_Background1_Fill_v2" stroke="none" stroke-width="1" stroke-linecap="butt" stroke-linejoin="miter" stroke-miterlimit="4" fill="#FFFFFF" fill-opacity="1"/><path d="M40 32.04C39.89 32.04 39.78 32.06 39.68 32.12L29.72 37.04C29.47 37.16 29.31 37.42 29.31 37.7 29.31 37.98 29.47 38.23 29.72 38.36L33.07 40.01 33.04 40.03 29.73 41.67C29.48 41.79 29.32 42.05 29.32 42.33 29.32 42.61 29.48 42.86 29.73 42.99L39.69 47.91C39.89 48.01 40.14 48.01 40.34 47.91L50.3 42.99C50.55 42.87 50.71 42.61 50.71 42.33 50.71 42.05 50.55 41.8 50.3 41.67L46.95 40.02 46.98 40 50.29 38.37C50.54 38.25 50.7 37.99 50.7 37.71 50.7 37.43 50.54 37.18 50.29 37.05L40.33 32.13C40.23 32.08 40.12 32.05 40.01 32.05ZM40 46.4 40 46.4 31.7 42.3 31.73 42.28 34.72 40.8 34.72 40.8 39.67 43.25C39.87 43.35 40.12 43.35 40.32 43.25L45.28 40.8 45.28 40.8 48.3 42.29 48.27 42.31 39.99 46.39ZM40 41.78 40 41.78 36.38 39.99 36.41 39.97 40.01 38.19 40.01 38.19 43.63 39.98 43.6 40 40 41.78ZM45.29 39.17 45.29 39.17 40.34 36.72C40.14 36.62 39.89 36.62 39.69 36.72L34.73 39.17 34.73 39.17 31.71 37.68 31.74 37.66 40.02 33.58 40.02 33.58 48.32 37.68 48.29 37.7 45.3 39.18Z" class="MsftOfcThm_Background1_Fill_v2" stroke="none" stroke-width="1" stroke-linecap="butt" stroke-linejoin="miter" stroke-miterlimit="4" fill="#FFFFFF" fill-opacity="1"/></svg>