<svg viewBox="0 0 80 80" xmlns="http://www.w3.org/2000/svg" xmlns:xlink="http://www.w3.org/1999/xlink" id="icons" overflow="hidden"><style>
.MsftOfcThm_Background1_Fill_v2 {
 fill:#FFFFFF; 
}
</style>
<defs></defs><rect x="25.75" y="48" width="1.5" height="10" class="MsftOfcThm_Background1_Fill_v2" stroke="none" stroke-width="0" stroke-linecap="butt" stroke-linejoin="miter" stroke-miterlimit="4" stroke-opacity="1" fill="#FFFFFF" fill-opacity="1"/><circle cx="26.5" cy="36" r="1" class="MsftOfcThm_Background1_Fill_v2" stroke="none" stroke-width="0" stroke-linecap="butt" stroke-linejoin="miter" stroke-miterlimit="4" stroke-opacity="1" fill="#FFFFFF" fill-opacity="1"/><circle cx="26.5" cy="40" r="1" class="MsftOfcThm_Background1_Fill_v2" stroke="none" stroke-width="0" stroke-linecap="butt" stroke-linejoin="miter" stroke-miterlimit="4" stroke-opacity="1" fill="#FFFFFF" fill-opacity="1"/><circle cx="26.5" cy="44" r="1" class="MsftOfcThm_Background1_Fill_v2" stroke="none" stroke-width="0" stroke-linecap="butt" stroke-linejoin="miter" stroke-miterlimit="4" stroke-opacity="1" fill="#FFFFFF" fill-opacity="1"/><rect x="34.75" y="48" width="1.5" height="10" class="MsftOfcThm_Background1_Fill_v2" stroke="none" stroke-width="0" stroke-linecap="butt" stroke-linejoin="miter" stroke-miterlimit="4" stroke-opacity="1" fill="#FFFFFF" fill-opacity="1"/><path d="M31 29.25 22 29.25C21.59 29.25 21.25 29.59 21.25 30L21.25 62C21.25 62.41 21.59 62.75 22 62.75L56 62.75C58.62 62.75 60.75 60.62 60.75 58L60.75 22C60.75 19.38 58.62 17.25 56 17.25L25.25 17.25 25.25 18.75 56 18.75C57.79 18.75 59.25 20.21 59.25 22L59.25 58C59.25 59.79 57.79 61.25 56 61.25L49.75 61.25 49.75 34.59C52.71 34.22 55 31.7 55 28.64 55 27.61 54.74 26.63 54.28 25.78L57.53 22.53 56.47 21.47 53.38 24.56C52.28 23.38 50.73 22.64 49 22.64 45.69 22.64 43 25.33 43 28.64 43 28.85 43.01 29.05 43.03 29.25L31 29.25ZM22.75 61.25 22.75 30.75 30.25 30.75 30.25 61.25 22.75 61.25ZM31.75 30.75 39.25 30.75 39.25 61.25 31.75 61.25 31.75 30.75ZM49 24.14C50.32 24.14 51.49 24.72 52.32 25.62L49 28.94 46.78 26.72 45.72 27.78 48.47 30.53C48.62 30.68 48.81 30.75 49 30.75 49.19 30.75 49.38 30.68 49.53 30.53L53.15 26.91C53.37 27.44 53.5 28.03 53.5 28.64 53.5 31.12 51.48 33.14 49 33.14 46.52 33.14 44.5 31.12 44.5 28.64 44.5 26.16 46.52 24.14 49 24.14ZM48.25 34.59 48.25 61.25 40.75 61.25 40.75 30.75 43.39 30.75C44.16 32.79 46.01 34.31 48.25 34.59Z" class="MsftOfcThm_Background1_Fill_v2" stroke="none" stroke-width="0" stroke-linecap="butt" stroke-linejoin="miter" stroke-miterlimit="4" stroke-opacity="1" fill="#FFFFFF" fill-opacity="1"/><circle cx="35.5" cy="36" r="1" class="MsftOfcThm_Background1_Fill_v2" stroke="none" stroke-width="0" stroke-linecap="butt" stroke-linejoin="miter" stroke-miterlimit="4" stroke-opacity="1" fill="#FFFFFF" fill-opacity="1"/><circle cx="35.5" cy="40" r="1" class="MsftOfcThm_Background1_Fill_v2" stroke="none" stroke-width="0" stroke-linecap="butt" stroke-linejoin="miter" stroke-miterlimit="4" stroke-opacity="1" fill="#FFFFFF" fill-opacity="1"/><circle cx="35.5" cy="44" r="1" class="MsftOfcThm_Background1_Fill_v2" stroke="none" stroke-width="0" stroke-linecap="butt" stroke-linejoin="miter" stroke-miterlimit="4" stroke-opacity="1" fill="#FFFFFF" fill-opacity="1"/><rect x="43.75" y="48" width="1.5" height="10" class="MsftOfcThm_Background1_Fill_v2" stroke="none" stroke-width="0" stroke-linecap="butt" stroke-linejoin="miter" stroke-miterlimit="4" stroke-opacity="1" fill="#FFFFFF" fill-opacity="1"/><circle cx="44.5" cy="36" r="1" class="MsftOfcThm_Background1_Fill_v2" stroke="none" stroke-width="0" stroke-linecap="butt" stroke-linejoin="miter" stroke-miterlimit="4" stroke-opacity="1" fill="#FFFFFF" fill-opacity="1"/><circle cx="44.5" cy="40" r="1" class="MsftOfcThm_Background1_Fill_v2" stroke="none" stroke-width="0" stroke-linecap="butt" stroke-linejoin="miter" stroke-miterlimit="4" stroke-opacity="1" fill="#FFFFFF" fill-opacity="1"/><circle cx="44.5" cy="44" r="1" class="MsftOfcThm_Background1_Fill_v2" stroke="none" stroke-width="0" stroke-linecap="butt" stroke-linejoin="miter" stroke-miterlimit="4" stroke-opacity="1" fill="#FFFFFF" fill-opacity="1"/><path d="M60 9.25 25.25 9.25 25.25 10.75 60 10.75C64 10.75 67.25 14 67.25 18L67.25 62C67.25 66 64 69.25 60 69.25L25.25 69.25 25.25 70.75 60 70.75C64.83 70.75 68.75 66.82 68.75 62L68.75 18C68.75 13.18 64.83 9.25 60 9.25Z" class="MsftOfcThm_Background1_Fill_v2" stroke="none" stroke-width="0" stroke-linecap="butt" stroke-linejoin="miter" stroke-miterlimit="4" stroke-opacity="1" fill="#FFFFFF" fill-opacity="1"/><path d="M54.75 65.25 18 65.25C15.11 65.25 12.75 62.9 12.75 60L12.75 20C12.75 17.1 15.11 14.75 18 14.75L54.75 14.75 54.75 13.25 18 13.25C14.28 13.25 11.25 16.28 11.25 20L11.25 60C11.25 63.72 14.28 66.75 18 66.75L54.75 66.75 54.75 65.25Z" class="MsftOfcThm_Background1_Fill_v2" stroke="none" stroke-width="0" stroke-linecap="butt" stroke-linejoin="miter" stroke-miterlimit="4" stroke-opacity="1" fill="#FFFFFF" fill-opacity="1"/></svg>