<?xml version="1.0" encoding="UTF-8"?><svg id="a" xmlns="http://www.w3.org/2000/svg" viewBox="0 0 80 80"><path d="M32.39844,46.39844l1.06055,1.06055c3.60742-3.60645,9.47461-3.60645,13.08203,0l1.06055-1.06055c-4.19141-4.19141-11.01172-4.19141-15.20312,0Z"/><path d="M36.39844,50.7417l1.06055,1.06055c1.40039-1.40039,3.68164-1.40039,5.08203,0l1.06055-1.06055c-1.98633-1.98535-5.2168-1.98535-7.20312,0Z"/><path d="M27.46973,42.44043l1.06055,1.06055c3.06348-3.06348,7.13672-4.75098,11.46973-4.75098s8.40625,1.6875,11.46973,4.75098l1.06055-1.06055c-3.34668-3.34717-7.79688-5.19043-12.53027-5.19043s-9.18359,1.84326-12.53027,5.19043Z"/><path d="M40,9.25c-8.13281,0-14.75,6.6167-14.75,14.75v6.7005c-4.89062,4.17596-8,10.3797-8,17.2995,0,12.54443,10.20605,22.75,22.75,22.75s22.75-10.20557,22.75-22.75c0-6.9198-3.10938-13.12354-8-17.2995v-6.7005c0-8.1333-6.61719-14.75-14.75-14.75Zm-13.25,14.75c0-7.30615,5.94434-13.25,13.25-13.25s13.25,5.94385,13.25,13.25v5.52441c-3.73462-2.68604-8.30908-4.27441-13.25-4.27441s-9.51538,1.58838-13.25,4.27441v-5.52441Zm34.5,24c0,11.71729-9.53223,21.25-21.25,21.25s-21.25-9.53271-21.25-21.25,9.53223-21.25,21.25-21.25,21.25,9.53271,21.25,21.25Z"/><circle cx="40" cy="56" r="1"/></svg>