<?xml version="1.0" encoding="UTF-8"?>
<svg id="a" xmlns="http://www.w3.org/2000/svg" viewBox="0 0 80 80">
  <defs>
    <style>
      .cls-1 {
        fill: #07182d;
      }
    </style>
  </defs>
  <path class="cls-1" d="M24,58.75h32c.41,0,.75-.34.75-.75V22c0-.41-.34-.75-.75-.75H24c-.41,0-.75.34-.75.75v36c0,.41.34.75.75.75ZM24.75,22.75h30.5v10.5h-30.5v-10.5ZM24.75,34.75h30.5v10.5h-30.5v-10.5ZM24.75,46.75h30.5v10.5h-30.5v-10.5Z"/>
  <rect class="cls-1" x="40" y="51.25" width="12" height="1.5"/>
  <rect class="cls-1" x="40" y="39.25" width="12" height="1.5"/>
  <rect class="cls-1" x="40" y="27.25" width="12" height="1.5"/>
  <path class="cls-1" d="M10,54.75h10v-1.5h-9.25v-26.5h9.25v-1.5h-10c-.41,0-.75.34-.75.75v28c0,.41.34.75.75.75Z"/>
  <path class="cls-1" d="M70.75,54v-28c0-.41-.34-.75-.75-.75h-10v1.5h9.25v26.5h-9.25v1.5h10c.41,0,.75-.34.75-.75Z"/>
  <circle class="cls-1" cx="28" cy="28" r="1"/>
  <circle class="cls-1" cx="32" cy="28" r="1"/>
  <circle class="cls-1" cx="36" cy="28" r="1"/>
  <circle class="cls-1" cx="28" cy="40" r="1"/>
  <circle class="cls-1" cx="32" cy="40" r="1"/>
  <circle class="cls-1" cx="36" cy="40" r="1"/>
  <circle class="cls-1" cx="28" cy="52" r="1"/>
  <circle class="cls-1" cx="32" cy="52" r="1"/>
  <circle class="cls-1" cx="36" cy="52" r="1"/>
</svg>