<?xml version="1.0" encoding="UTF-8"?>
<svg id="a" xmlns="http://www.w3.org/2000/svg" viewBox="0 0 80 80">
  <defs>
    <style>
      .cls-1 {
        fill: #07182d;
      }
    </style>
  </defs>
  <path class="cls-1" d="M47.95,10.31C31.57,5.92,14.68,15.67,10.29,32.05l1.45.39C15.91,16.86,31.98,7.58,47.56,11.75c7.55,2.02,13.85,6.86,17.76,13.63,3.91,6.77,4.94,14.65,2.92,22.2l1.45.39c2.13-7.93,1.04-16.22-3.07-23.33s-10.74-12.2-18.67-14.33Z"/>
  <path class="cls-1" d="M46.4,16.1c-6.39-1.71-13.06-.83-18.78,2.47-5.72,3.31-9.82,8.64-11.53,15.03h0c-.84,3.13-3.2,5.55-6.31,6.48l.43,1.44c3.62-1.07,6.36-3.89,7.34-7.53,1.61-6,5.45-11.01,10.83-14.12,5.38-3.11,11.64-3.93,17.64-2.32,6,1.61,11.01,5.45,14.12,10.83,3.11,5.38,3.93,11.64,2.32,17.64-2.01,7.5-5.43,14.38-10.18,20.44l1.18.92c4.87-6.22,8.38-13.28,10.44-20.98,1.71-6.39.83-13.06-2.47-18.78-3.31-5.73-8.64-9.82-15.03-11.53Z"/>
  <path class="cls-1" d="M23.33,35.54c1.19-4.45,4.05-8.17,8.04-10.47,3.99-2.3,8.64-2.92,13.09-1.72,9.19,2.46,14.66,11.94,12.2,21.13-2.59,9.68-7.9,18.31-15.35,24.96l1,1.12c7.67-6.84,13.13-15.72,15.8-25.69,2.68-9.99-3.27-20.29-13.26-22.96-4.84-1.3-9.89-.63-14.23,1.87-4.34,2.5-7.44,6.55-8.74,11.38-1.46,5.45-5.78,9.63-11.28,10.91l.34,1.46c6.04-1.41,10.78-6,12.39-11.98h0Z"/>
  <path class="cls-1" d="M51.03,33.63c-1.7-2.95-4.45-5.06-7.74-5.94-3.29-.88-6.73-.43-9.67,1.27-2.95,1.7-5.06,4.45-5.94,7.74-1.97,7.36-7.78,13.13-15.15,15.06l.38,1.45c7.89-2.07,14.11-8.25,16.22-16.12.78-2.9,2.64-5.33,5.24-6.83,2.6-1.5,5.63-1.9,8.54-1.12,2.9.78,5.33,2.64,6.83,5.24,1.5,2.6,1.9,5.63,1.12,8.54-2.8,10.46-9.26,19.57-18.19,25.66l.84,1.24c9.23-6.29,15.9-15.71,18.8-26.51.88-3.29.43-6.73-1.27-9.67Z"/>
  <path class="cls-1" d="M15.63,57.11l.47,1.42c9.27-3.04,16.3-10.48,18.82-19.88h0c.75-2.8,3.63-4.46,6.43-3.71,1.35.36,2.49,1.23,3.19,2.45s.89,2.63.52,3.98c-2.8,10.46-9.9,19.39-19.46,24.49l.71,1.32c9.93-5.29,17.3-14.56,20.21-25.42.47-1.74.23-3.56-.67-5.12-.9-1.56-2.36-2.68-4.1-3.15-1.74-.47-3.56-.23-5.12.67-1.56.9-2.68,2.36-3.15,4.1l.72.19-.72-.19c-2.39,8.92-9.06,15.96-17.84,18.85h0Z"/>
  <path class="cls-1" d="M39.27,39.81c-2.71,10.12-9.84,18.2-19.55,22.18l.57,1.39c10.15-4.15,17.59-12.6,20.43-23.18l-1.45-.39Z"/>
</svg>