<?xml version="1.0" encoding="UTF-8"?>
<svg id="a" xmlns="http://www.w3.org/2000/svg" viewBox="0 0 80 80">
  <defs>
    <style>
      .cls-1 {
        fill: #07182d;
      }
    </style>
  </defs>
  <path class="cls-1" d="M9.25,44c0,3.72,3.03,6.75,6.75,6.75,1.17,0,2.27-.3,3.23-.83l6.31,9.02c-1.4,1.24-2.29,3.04-2.29,5.06,0,3.72,3.03,6.75,6.75,6.75,3.47,0,6.33-2.63,6.71-6h20.59c.37,3.37,3.24,6,6.71,6,3.72,0,6.75-3.03,6.75-6.75s-3.03-6.75-6.75-6.75c-.2,0-.39.01-.58.03l-5.36-26.85c2.72-.87,4.7-3.42,4.7-6.43,0-3.72-3.03-6.75-6.75-6.75-3.01,0-5.56,1.98-6.43,4.7l-26.85-5.36c.02-.19.03-.39.03-.58,0-3.72-3.03-6.75-6.75-6.75s-6.75,3.03-6.75,6.75c0,3.47,2.63,6.33,6,6.71v14.59c-3.37.37-6,3.24-6,6.71h0ZM20.46,49.06c1.4-1.24,2.29-3.04,2.29-5.06,0-.82-.15-1.6-.42-2.32l12.19-6.1,7.92,7.92-9.41,14.48c-.91-.46-1.94-.72-3.02-.72-1.17,0-2.27.3-3.23.83l-6.31-9.02h0ZM21.66,40.34c-1.08-1.66-2.85-2.81-4.91-3.04v-14.59c1.3-.14,2.49-.66,3.46-1.44l13.19,13.19s-11.74,5.87-11.74,5.87ZM30,69.25c-2.89,0-5.25-2.35-5.25-5.25s2.36-5.25,5.25-5.25,5.25,2.35,5.25,5.25-2.36,5.25-5.25,5.25ZM57.29,63.25h-20.59c-.2-1.79-1.1-3.37-2.42-4.46l9.24-14.21,15.21,15.21c-.78.97-1.29,2.16-1.44,3.46ZM64,58.75c2.89,0,5.25,2.35,5.25,5.25s-2.36,5.25-5.25,5.25-5.25-2.35-5.25-5.25,2.36-5.25,5.25-5.25ZM61.95,57.57c-.79.25-1.52.65-2.15,1.16l-15.44-15.44,8.62-13.27c.91.46,1.94.72,3.02.72.2,0,.39-.01.58-.03l5.36,26.85h0ZM56,18.75c2.89,0,5.25,2.35,5.25,5.25s-2.36,5.25-5.25,5.25-5.25-2.35-5.25-5.25,2.36-5.25,5.25-5.25ZM51.72,29.21l-8.45,13-7.34-7.34,14.41-7.21c.38.58.84,1.11,1.38,1.55ZM22.43,18.05l26.85,5.36c-.02.19-.03.39-.03.58,0,.82.15,1.6.42,2.32l-14.85,7.43-13.55-13.55c.51-.64.91-1.36,1.16-2.15ZM10.75,16c0-2.9,2.36-5.25,5.25-5.25s5.25,2.35,5.25,5.25-2.36,5.25-5.25,5.25-5.25-2.35-5.25-5.25ZM16,38.75c2.89,0,5.25,2.35,5.25,5.25s-2.36,5.25-5.25,5.25-5.25-2.35-5.25-5.25,2.36-5.25,5.25-5.25Z"/>
</svg>