<?xml version="1.0" encoding="UTF-8"?>
<svg id="Layer_1" data-name="Layer 1" xmlns="http://www.w3.org/2000/svg" viewBox="0 0 80 80">
  <defs>
    <style>
      .cls-1 {
        fill: #07182d;
      }
    </style>
  </defs>
  <path class="cls-1" d="M39.8,31c-4.8,0-8.8,3.9-8.8,8.8s3.9,8.8,8.8,8.8,8.8-3.9,8.8-8.8-4-8.8-8.8-8.8ZM39.8,47c-4,0-7.2-3.2-7.2-7.2s3.2-7.2,7.2-7.2,7.2,3.2,7.2,7.2-3.2,7.2-7.2,7.2Z"/>
  <path class="cls-1" d="M64.8,59c-1.3,0-2.5.5-3.5,1.2l-10.3-10.3c3.7-2.2,6.9-5.5,9.5-9.7.1-.2.1-.5,0-.8-2.5-4.2-5.8-7.5-9.5-9.7l10.3-10.3c1,.8,2.2,1.2,3.5,1.2,3.2,0,5.8-2.6,5.8-5.8s-2.6-5.7-5.8-5.7-5.8,2.6-5.8,5.8c0,1.3.5,2.5,1.2,3.5l-10.6,10.5c-3-1.5-6.4-2.4-9.8-2.4s-6.8.8-9.8,2.4l-10.6-10.6c.8-1,1.2-2.2,1.2-3.5,0-3.2-2.6-5.8-5.8-5.8s-5.7,2.6-5.7,5.8,2.6,5.8,5.8,5.8c1.3,0,2.5-.5,3.5-1.2l10.3,10.3c-3.7,2.2-6.9,5.5-9.5,9.7-.1.2-.1.5,0,.8,2.5,4.2,5.8,7.5,9.5,9.7l-10.4,10.3c-1-.8-2.2-1.2-3.5-1.2-3.2,0-5.8,2.6-5.8,5.8s2.6,5.8,5.8,5.8,5.8-2.6,5.8-5.8c0-1.3-.5-2.5-1.2-3.5l10.6-10.6c3,1.6,6.4,2.4,9.8,2.4s6.8-.8,9.8-2.4l10.6,10.6c-.8,1-1.2,2.2-1.2,3.5,0,3.2,2.6,5.8,5.8,5.8s5.8-2.6,5.8-5.8-2.6-5.8-5.8-5.8ZM64.8,10.6c2.3,0,4.2,1.9,4.2,4.2s-1.9,4.2-4.2,4.2-4.2-1.9-4.2-4.2,1.9-4.2,4.2-4.2ZM14.8,19c-2.3,0-4.2-1.9-4.2-4.2s1.9-4.2,4.2-4.2,4.2,1.9,4.2,4.2-1.9,4.2-4.2,4.2ZM14.8,69c-2.3,0-4.2-1.9-4.2-4.2s1.9-4.2,4.2-4.2,4.2,1.9,4.2,4.2-1.9,4.2-4.2,4.2ZM39.8,51.6c-7.5,0-14.5-4.3-19.1-11.8,4.6-7.5,11.6-11.8,19.1-11.8s14.5,4.3,19.1,11.8c-4.6,7.5-11.6,11.8-19.1,11.8ZM64.8,69c-2.3,0-4.2-1.9-4.2-4.2s1.9-4.2,4.2-4.2,4.2,1.9,4.2,4.2-1.9,4.2-4.2,4.2Z"/>
</svg>