<?xml version="1.0" encoding="UTF-8"?><svg id="a" xmlns="http://www.w3.org/2000/svg" viewBox="0 0 80 80"><path d="M37.49414,10.74365v.00049L9.59082,62.57764c-.47607,.88379-.45264,1.92627,.06201,2.78809,.51758,.8667,1.43115,1.38428,2.44336,1.38428h55.80713c1.0127,0,1.92578-.51758,2.44336-1.38428,.51562-.8623,.53809-1.9043,.0625-2.78809L42.50586,10.74365c-.50391-.93506-1.44043-1.49365-2.50586-1.49365s-2.00195,.55859-2.50586,1.49365Zm2.50586,.00635c.50391,0,.94727,.26367,1.18555,.70508l27.90332,51.8335c.22656,.4209,.21582,.89746-.0293,1.30762-.24512,.40967-.67676,.65381-1.15625,.65381H12.09619c-.479,0-.91113-.24414-1.15576-.65332-.24512-.41064-.25586-.88721-.0293-1.30811L38.81445,11.45508c.23828-.44141,.68164-.70508,1.18555-.70508Z"/><rect x="39.25781" y="28" width="1.5" height="20.00001"/><path d="M40,58.75c1.5166,0,2.75-1.2334,2.75-2.75s-1.2334-2.75-2.75-2.75-2.75,1.2334-2.75,2.75,1.2334,2.75,2.75,2.75Zm0-4c.68945,0,1.25,.56055,1.25,1.25s-.56055,1.25-1.25,1.25-1.25-.56055-1.25-1.25,.56055-1.25,1.25-1.25Z"/></svg>