<?xml version="1.0" encoding="UTF-8"?>
<svg id="a" xmlns="http://www.w3.org/2000/svg" viewBox="0 0 80 80">
  <defs>
    <style>
      .cls-1 {
        fill: #07182d;
      }
    </style>
  </defs>
  <path class="cls-1" d="M24,35.25c-2.62,0-4.75,2.13-4.75,4.75s2.13,4.75,4.75,4.75,4.75-2.13,4.75-4.75-2.13-4.75-4.75-4.75ZM24,43.25c-1.79,0-3.25-1.46-3.25-3.25s1.46-3.25,3.25-3.25,3.25,1.46,3.25,3.25-1.46,3.25-3.25,3.25Z"/>
  <path class="cls-1" d="M51.25,40c0,2.62,2.13,4.75,4.75,4.75s4.75-2.13,4.75-4.75-2.13-4.75-4.75-4.75-4.75,2.13-4.75,4.75ZM56,36.75c1.79,0,3.25,1.46,3.25,3.25s-1.46,3.25-3.25,3.25-3.25-1.46-3.25-3.25,1.46-3.25,3.25-3.25Z"/>
  <path class="cls-1" d="M40,51.25c-2.62,0-4.75,2.13-4.75,4.75s2.13,4.75,4.75,4.75,4.75-2.13,4.75-4.75-2.13-4.75-4.75-4.75ZM40,59.25c-1.79,0-3.25-1.46-3.25-3.25s1.46-3.25,3.25-3.25,3.25,1.46,3.25,3.25-1.46,3.25-3.25,3.25Z"/>
  <path class="cls-1" d="M40,19.25c-2.62,0-4.75,2.13-4.75,4.75s2.13,4.75,4.75,4.75,4.75-2.13,4.75-4.75-2.13-4.75-4.75-4.75ZM40,27.25c-1.79,0-3.25-1.46-3.25-3.25s1.46-3.25,3.25-3.25,3.25,1.46,3.25,3.25-1.46,3.25-3.25,3.25Z"/>
  <path class="cls-1" d="M54.67,54.67c1.85-1.85,1.85-4.87,0-6.72s-4.87-1.85-6.72,0c-.9.9-1.39,2.09-1.39,3.36s.49,2.46,1.39,3.36c.93.93,2.14,1.39,3.36,1.39s2.43-.46,3.36-1.39ZM49.02,53.61c-.61-.61-.95-1.43-.95-2.3s.34-1.68.95-2.3c.63-.63,1.47-.95,2.3-.95s1.66.32,2.3.95c1.27,1.27,1.27,3.33,0,4.6-1.27,1.27-3.33,1.27-4.6,0Z"/>
  <path class="cls-1" d="M33.44,28.69c0-1.27-.49-2.46-1.39-3.36-1.85-1.85-4.87-1.85-6.72,0-1.85,1.85-1.85,4.87,0,6.72.93.93,2.14,1.39,3.36,1.39s2.43-.46,3.36-1.39c.9-.9,1.39-2.09,1.39-3.36h0ZM30.98,30.98c-1.27,1.27-3.33,1.27-4.6,0-1.27-1.27-1.27-3.33,0-4.6.63-.63,1.47-.95,2.3-.95s1.67.32,2.3.95c.61.61.95,1.43.95,2.3s-.34,1.68-.95,2.3Z"/>
  <path class="cls-1" d="M32.04,54.67c.9-.9,1.39-2.09,1.39-3.36s-.49-2.46-1.39-3.36c-1.85-1.85-4.87-1.85-6.72,0-1.85,1.85-1.85,4.87,0,6.72.93.93,2.14,1.39,3.36,1.39s2.43-.46,3.36-1.39h0ZM26.39,49.02c.63-.63,1.47-.95,2.3-.95s1.67.32,2.3.95c.61.61.95,1.43.95,2.3s-.34,1.68-.95,2.3c-1.27,1.27-3.33,1.27-4.6,0-1.27-1.27-1.27-3.33,0-4.6Z"/>
  <path class="cls-1" d="M47.96,25.33c-.9.9-1.39,2.09-1.39,3.36s.49,2.46,1.39,3.36c.93.93,2.14,1.39,3.36,1.39s2.43-.46,3.36-1.39c1.85-1.85,1.85-4.87,0-6.72s-4.87-1.85-6.72,0ZM53.61,30.98c-1.27,1.27-3.33,1.27-4.6,0-.61-.61-.95-1.43-.95-2.3s.34-1.68.95-2.3c.63-.63,1.47-.95,2.3-.95s1.66.32,2.3.95c1.27,1.27,1.27,3.33,0,4.6Z"/>
  <path class="cls-1" d="M63.25,38v4c0,3.72,3.03,6.75,6.75,6.75h2v-1.5h-2c-2.89,0-5.25-2.35-5.25-5.25v-4c0-2.9,2.36-5.25,5.25-5.25h2v-1.5h-2c-3.72,0-6.75,3.03-6.75,6.75Z"/>
  <path class="cls-1" d="M16.75,42v-4c0-3.72-3.03-6.75-6.75-6.75h-2v1.5h2c2.9,0,5.25,2.35,5.25,5.25v4c0,2.9-2.35,5.25-5.25,5.25h-2v1.5h2c3.72,0,6.75-3.03,6.75-6.75Z"/>
  <path class="cls-1" d="M48.75,72v-2c0-3.72-3.03-6.75-6.75-6.75h-4c-3.72,0-6.75,3.03-6.75,6.75v2h1.5v-2c0-2.9,2.36-5.25,5.25-5.25h4c2.89,0,5.25,2.35,5.25,5.25v2h1.5Z"/>
  <path class="cls-1" d="M48.75,10v-2h-1.5v2c0,2.9-2.36,5.25-5.25,5.25h-4c-2.89,0-5.25-2.35-5.25-5.25v-2h-1.5v2c0,3.72,3.03,6.75,6.75,6.75h4c3.72,0,6.75-3.03,6.75-6.75Z"/>
  <path class="cls-1" d="M12.25,22.5l-1.06,1.06,1.41,1.41c1.32,1.32,3.04,1.97,4.77,1.97s3.46-.66,4.77-1.97l2.83-2.83c1.28-1.27,1.98-2.97,1.98-4.77s-.7-3.5-1.98-4.77l-1.41-1.41-1.06,1.06,1.41,1.41c.99.99,1.54,2.31,1.54,3.71s-.55,2.72-1.54,3.71l-2.83,2.83c-2.05,2.05-5.38,2.05-7.42,0,0,0-1.41-1.41-1.41-1.41Z"/>
  <path class="cls-1" d="M58.92,56.09c2.05-2.05,5.38-2.05,7.42,0l1.41,1.41,1.06-1.06-1.41-1.41c-2.63-2.63-6.92-2.63-9.55,0l-2.83,2.83c-1.28,1.27-1.98,2.97-1.98,4.77s.7,3.5,1.98,4.77l1.41,1.41,1.06-1.06-1.41-1.41c-.99-.99-1.54-2.31-1.54-3.71s.55-2.72,1.54-3.71c0,0,2.83-2.83,2.83-2.83Z"/>
  <path class="cls-1" d="M22.5,67.75l1.06,1.06,1.41-1.41c1.28-1.27,1.98-2.97,1.98-4.77s-.7-3.5-1.98-4.77l-2.83-2.83c-2.63-2.63-6.91-2.63-9.55,0l-1.41,1.41,1.06,1.06,1.41-1.41c2.05-2.05,5.38-2.05,7.42,0l2.83,2.83c.99.99,1.54,2.31,1.54,3.71s-.55,2.72-1.54,3.71c0,0-1.41,1.41-1.41,1.41Z"/>
  <path class="cls-1" d="M68.81,23.56l-1.06-1.06-1.41,1.41c-.99.99-2.31,1.54-3.71,1.54s-2.72-.55-3.71-1.54l-2.83-2.83c-.99-.99-1.54-2.31-1.54-3.71s.55-2.72,1.54-3.71l1.41-1.41-1.06-1.06-1.41,1.41c-1.28,1.27-1.98,2.97-1.98,4.77s.7,3.5,1.98,4.77l2.83,2.83c1.32,1.32,3.04,1.97,4.77,1.97s3.46-.66,4.77-1.97l1.41-1.41Z"/>
</svg>