<svg width="80" height="80" viewBox="0 0 80 80" fill="none" xmlns="http://www.w3.org/2000/svg">
<rect width="80" height="80" fill="white"/>
<mask id="mask0_10770_36618" style="mask-type:alpha" maskUnits="userSpaceOnUse" x="4" y="4" width="72" height="72">
<g clip-path="url(#clip0_10770_36618)">
<path d="M22 4C22 13.9 13.9 22 4 22" stroke="black" stroke-width="1.5" stroke-miterlimit="10"/>
<path d="M40 22C30.1 22 22 13.9 22 4" stroke="black" stroke-width="1.5" stroke-miterlimit="10"/>
<path d="M22 40C22 30.1 30.1 22 40 22" stroke="black" stroke-width="1.5" stroke-miterlimit="10"/>
<path d="M4 22C13.9 22 22 30.1 22 40" stroke="black" stroke-width="1.5" stroke-miterlimit="10"/>
<path d="M50 24C50 38.4 38.4 50 24 50" stroke="black" stroke-width="1.5" stroke-miterlimit="10"/>
<path d="M76 50C61.6 50 50 38.4 50 24" stroke="black" stroke-width="1.5" stroke-miterlimit="10"/>
<path d="M50 76C50 61.6 61.6 50 76 50" stroke="black" stroke-width="1.5" stroke-miterlimit="10"/>
<path d="M24 50C38.4 50 50 61.6 50 76" stroke="black" stroke-width="1.5" stroke-miterlimit="10"/>
</g>
</mask>
<g mask="url(#mask0_10770_36618)">
<rect x="76" y="99" width="72" height="119" rx="20" transform="rotate(180 76 99)" fill="url(#paint0_linear_10770_36618)"/>
</g>
<defs>
<linearGradient id="paint0_linear_10770_36618" x1="76" y1="158.5" x2="148" y2="158.5" gradientUnits="userSpaceOnUse">
<stop stop-color="#0A60FF"/>
<stop offset="1" stop-color="#02C8FF"/>
</linearGradient>
<clipPath id="clip0_10770_36618">
<rect width="72" height="72" fill="white" transform="translate(4 4)"/>
</clipPath>
</defs>
</svg>
