<?xml version="1.0" encoding="UTF-8"?><svg fill="#FFFFFF" id="a" xmlns="http://www.w3.org/2000/svg" viewBox="0 0 80 80"><path d="M28.75,30h-1.5v4c0,.41406,.33594,.75,.75,.75h24c.41406,0,.75-.33594,.75-.75v-4h-1.5v3.25H28.75v-3.25Z"/><path d="M27.25,38v4c0,.41406,.33594,.75,.75,.75h24c.41406,0,.75-.33594,.75-.75v-4h-1.5v3.25H28.75v-3.25h-1.5Z"/><path d="M28,50.75h24c.41406,0,.75-.33594,.75-.75v-4h-1.5v3.25H28.75v-3.25h-1.5v4c0,.41406,.33594,.75,.75,.75Z"/><path d="M40.75,24V11.81055l2.71973,2.71973,1.06055-1.06055-4-4c-.29297-.29297-.76758-.29297-1.06055,0l-4,4,1.06055,1.06055,2.71973-2.71973v12.18945h1.5Z"/><path d="M58.68262,32.43408c4.05371-6.05273,4.64062-10.17188,1.84766-12.96436-2.76367-2.76367-7.0332-2.13965-13.05469,1.90771l.83789,1.24512c7.09961-4.77393,9.76855-3.48047,11.15625-2.09229,1.38281,1.3833,2.67773,4.03516-2.0332,11.06885l1.24609,.83496Z"/><path d="M21.30078,47.58252c-4.04199,6.04102-4.62402,10.15527-1.83105,12.94775,1.15039,1.1499,2.52344,1.72754,4.16309,1.72754,2.34375,0,5.23047-1.18066,8.78418-3.55811l-.83398-1.24707c-7.01758,4.69629-9.66895,3.40039-11.05273,2.01709s-2.67969-4.03369,2.0166-11.05322l-1.24609-.83398Z"/><path d="M31.59961,22.54883l.83398-1.24609c-5.96289-3.99219-10.20508-4.59375-12.96387-1.83301-2.79785,2.79688-2.19141,6.94043,1.9082,13.04004l1.24414-.83691c-4.76855-7.09473-3.47754-9.75732-2.0918-11.14258,1.38672-1.38623,4.04297-2.68506,11.06934,2.01855Z"/><path d="M58.69922,47.56787l-1.24609,.83398c4.70312,7.02588,3.40332,9.68164,2.0166,11.06787-1.37988,1.37939-4.0293,2.67041-11.05273-2.03125l-.83398,1.24609c3.56055,2.38428,6.45117,3.56738,8.7959,3.56689,1.63574,0,3.00586-.57568,4.15137-1.72119,2.75977-2.75928,2.16113-6.99902-1.83105-12.9624Z"/><path d="M39.25,56v12.18945l-2.71973-2.71973-1.06055,1.06055,4,4c.14648,.14648,.33789,.21973,.53027,.21973s.38379-.07324,.53027-.21973l4-4-1.06055-1.06055-2.71973,2.71973v-12.18945h-1.5Z"/><path d="M13.46973,44.53027l1.06055-1.06055-2.71973-2.71973h12.18945v-1.5H11.81055l2.71973-2.71973-1.06055-1.06055-4,4c-.29297,.29297-.29297,.76758,0,1.06055l4,4Z"/><path d="M70.53027,39.46973l-4-4-1.06055,1.06055,2.71973,2.71973h-12.18945v1.5h12.18945l-2.71973,2.71973,1.06055,1.06055,4-4c.29297-.29297,.29297-.76758,0-1.06055Z"/></svg>