<?xml version="1.0" encoding="UTF-8"?><svg id="modifiers" xmlns="http://www.w3.org/2000/svg" viewBox="0 0 80 80"><defs><style>.cls-1{fill:#07182d;}</style></defs><path class="cls-1" d="M9.09,28.94c-.1-.1-.15-.23-.15-.37,0-.14.06-.27.16-.37l5.15-5.03.74.75-4.23,4.13h11.51v1.05h-11.56l4.28,4.38-.75.73-5.15-5.28ZM17,46.15l-.74.75,4.23,4.12h-11.65v1.05h11.69l-4.28,4.38.75.73,5.15-5.28c.1-.1.15-.23.15-.37,0-.14-.06-.27-.16-.37l-5.15-5.03ZM66.04,33.35l.75.73,5.15-5.28c.1-.1.15-.23.15-.37,0-.14-.06-.27-.16-.37l-5.15-5.03-.74.75,4.23,4.12h-11.51v1.05h11.56l-4.28,4.38ZM64.29,46.9l-.74-.75-5.15,5.03c-.1.1-.16.23-.16.37,0,.14.05.27.15.37l5.15,5.28.75-.73-4.28-4.38h12.05v-1.05h-12.01l4.23-4.12ZM58.62,40.1c0,10.07-8.2,18.27-18.27,18.27s-18.27-8.2-18.27-18.27,8.2-18.27,18.27-18.27,18.27,8.2,18.27,18.27ZM57.57,40.1c0-9.49-7.72-17.22-17.22-17.22s-17.22,7.72-17.22,17.22,7.72,17.22,17.22,17.22,17.22-7.72,17.22-17.22ZM52.42,46.61c-.17,1.81-.47,3.19-2.74,4.34-1.15.66-2.26.9-3.33.9-1.2,0-2.34-.3-3.44-.68-2.56-.87-5.43-2.79-8.09-5.4-2.4-2.45-4.21-4.72-5.25-7.9-.69-2.11-1.3-4.56.08-6.98,1.16-2.27,2.53-2.56,4.34-2.72,1.07-.1,1.86,1.45,2.84,3.49.16.32.29.6.39.79,1.16,2.11.02,3.05-.99,3.88-.27.22-.54.45-.8.71-.1.09-.12.18-.12.26-.05.83,1.02,2.83,3.08,4.89,2.06,2.06,4.04,3.13,4.89,3.08.08,0,.18-.02.22-.07.28-.26.5-.51.72-.78.75-.88,1.77-2.09,3.46-1.36,4.87,2.1,4.78,3.18,4.73,3.55ZM51.38,46.5c-.11-.4-1.67-1.43-4.1-2.48-.93-.4-1.46.15-2.24,1.07-.24.29-.49.58-.77.83-.09.13-.39.37-.92.4-1.31.05-3.6-1.29-5.69-3.38-2.1-2.1-3.46-4.39-3.38-5.69.03-.53.27-.82.47-.98.24-.25.55-.5.84-.75.98-.81,1.48-1.21.74-2.55-.11-.2-.25-.5-.42-.84-.33-.69-1.34-2.79-1.82-2.9-1.73.15-2.59.41-3.49,2.17-1.07,1.87-.79,3.74,0,6.16.97,2.99,2.63,5.08,4.99,7.48,2.54,2.5,5.27,4.33,7.68,5.15,2.13.72,3.95.97,5.93-.15,1.78-.9,2.03-1.77,2.19-3.52h0ZM80,40c0,22.06-17.94,40-40,40S0,62.06,0,40,17.94,0,40,0s40,17.94,40,40ZM78.95,40C78.95,18.52,61.48,1.05,40,1.05S1.05,18.52,1.05,40s17.47,38.95,38.95,38.95,38.95-17.47,38.95-38.95Z"/></svg>