<?xml version="1.0" encoding="UTF-8"?>
<svg fill="#FFFFFF" id="DO_NOT_TOUCH_Outlines_" data-name="DO NOT TOUCH (Outlines)" xmlns="http://www.w3.org/2000/svg" viewBox="0 0 80 80">
  <path d="m17.49,48.3c-2.62,0-4.75,2.13-4.75,4.75s2.13,4.75,4.75,4.75,4.75-2.13,4.75-4.75c0-.62-.13-1.22-.35-1.76l7.69-4.54h9.67v14.58c-2.26.36-4,2.31-4,4.67,0,2.62,2.13,4.75,4.75,4.75s4.75-2.13,4.75-4.75c0-2.36-1.74-4.31-4-4.67v-14.58h9.46l7.94,4.56c-.21.54-.34,1.13-.34,1.74,0,2.62,2.13,4.75,4.75,4.75s4.75-2.13,4.75-4.75-2.13-4.75-4.75-4.75c-1.46,0-2.76.68-3.63,1.72l-6.04-3.47c2.22-.59,3.87-2.6,3.87-5,0-2.86-2.33-5.19-5.19-5.19-.74,0-1.47.16-2.14.47-.09-.41-.21-.81-.35-1.2l9.84-5.63c.87,1.06,2.17,1.74,3.65,1.74,2.62,0,4.75-2.13,4.75-4.75s-2.13-4.75-4.75-4.75-4.75,2.13-4.75,4.75c0,.61.12,1.18.33,1.72l-9.68,5.54c-1.52-2.8-4.38-4.73-7.71-4.98v-10.61c2.26-.36,4-2.31,4-4.67,0-2.62-2.13-4.75-4.75-4.75s-4.75,2.13-4.75,4.75c0,2.36,1.74,4.31,4,4.67v10.63c-3.22.26-6.09,2.12-7.65,4.92l-9.68-5.56c.2-.52.32-1.08.32-1.66,0-2.62-2.13-4.75-4.75-4.75s-4.75,2.13-4.75,4.75,2.13,4.75,4.75,4.75c1.49,0,2.81-.71,3.68-1.79l8.04,4.62c-3.3.06-5.97,2.76-5.97,6.08,0,2.63,1.68,4.86,4.01,5.71l-6.15,3.63c-.87-1.04-2.16-1.71-3.62-1.71Zm0,8c-1.79,0-3.25-1.46-3.25-3.25s1.46-3.25,3.25-3.25,3.25,1.46,3.25,3.25-1.46,3.25-3.25,3.25Zm45.06-6.5c1.79,0,3.25,1.46,3.25,3.25s-1.46,3.25-3.25,3.25-3.25-1.46-3.25-3.25,1.46-3.25,3.25-3.25Zm0-26.05c1.79,0,3.25,1.46,3.25,3.25s-1.46,3.25-3.25,3.25-3.25-1.46-3.25-3.25,1.46-3.25,3.25-3.25Zm-45.06,6.5c-1.79,0-3.25-1.46-3.25-3.25s1.46-3.25,3.25-3.25,3.25,1.46,3.25,3.25-1.46,3.25-3.25,3.25Zm25.76,35.74c0,1.79-1.46,3.25-3.25,3.25s-3.25-1.46-3.25-3.25,1.46-3.25,3.25-3.25,3.25,1.46,3.25,3.25Zm-6.5-52c0-1.79,1.46-3.25,3.25-3.25s3.25,1.46,3.25,3.25-1.46,3.25-3.25,3.25-3.25-1.46-3.25-3.25Zm-12,26.67c0-2.53,2.06-4.58,4.58-4.58.69,0,1.36.15,1.99.46.19.09.41.1.61.02s.35-.24.42-.44c1.16-3.21,4.24-5.37,7.65-5.37,4.23,0,7.71,3.17,8.1,7.37.03.27.2.51.45.62.25.11.54.07.76-.1.66-.51,1.44-.79,2.25-.79,2.04,0,3.69,1.66,3.69,3.69s-1.66,3.69-3.69,3.69h-22.22c-2.53,0-4.58-2.06-4.58-4.58Z"/>
</svg>