<?xml version="1.0" encoding="UTF-8"?><svg id="a" xmlns="http://www.w3.org/2000/svg" viewBox="0 0 80 80"><path d="M64.01367,51.25c-2.61914,0-4.75,2.13086-4.75,4.75s2.13086,4.75,4.75,4.75,4.75-2.13086,4.75-4.75-2.13086-4.75-4.75-4.75Zm0,8c-1.79199,0-3.25-1.45801-3.25-3.25s1.45801-3.25,3.25-3.25,3.25,1.45801,3.25,3.25-1.45801,3.25-3.25,3.25Z"/><path d="M70.76367,72v-4.61475c0-2.28027-1.81543-4.13525-4.04688-4.13525h-5.40527c-2.23242,0-4.04785,1.85498-4.04785,4.13525v4.61475h1.5v-4.61475c0-1.45312,1.14258-2.63525,2.54785-2.63525h5.40527c1.4043,0,2.54688,1.18213,2.54688,2.63525v4.61475h1.5Z"/><path d="M43.26367,56c0,2.61914,2.13086,4.75,4.75,4.75s4.75-2.13086,4.75-4.75-2.13086-4.75-4.75-4.75-4.75,2.13086-4.75,4.75Zm8,0c0,1.79199-1.45801,3.25-3.25,3.25s-3.25-1.45801-3.25-3.25,1.45801-3.25,3.25-3.25,3.25,1.45801,3.25,3.25Z"/><path d="M56.01367,43.25c-2.61914,0-4.75,2.13086-4.75,4.75,0,.83398,.21973,1.65527,.63574,2.375l1.29883-.75c-.28418-.49219-.43457-1.0542-.43457-1.625,0-1.79199,1.45801-3.25,3.25-3.25s3.25,1.45801,3.25,3.25c0,.57227-.15039,1.13379-.43457,1.62402l1.29883,.75195c.41602-.71875,.63574-1.54004,.63574-2.37598,0-2.61914-2.13086-4.75-4.75-4.75Z"/><path d="M40.01367,43.25c-2.61914,0-4.75,2.13086-4.75,4.75,0,.83398,.21973,1.65527,.63574,2.375l1.29883-.75c-.28418-.49219-.43457-1.0542-.43457-1.625,0-1.79199,1.45801-3.25,3.25-3.25s3.25,1.45801,3.25,3.25c0,.57227-.15039,1.13379-.43457,1.62402l1.29883,.75195c.41602-.71875,.63574-1.54004,.63574-2.37598,0-2.61914-2.13086-4.75-4.75-4.75Z"/><path d="M24.01367,43.25c-2.61914,0-4.75,2.13086-4.75,4.75,0,.83398,.21973,1.65527,.63574,2.375l1.29883-.75c-.28418-.49219-.43457-1.0542-.43457-1.625,0-1.79199,1.45801-3.25,3.25-3.25s3.25,1.45801,3.25,3.25c0,.57227-.15039,1.13379-.43457,1.62402l1.29883,.75195c.41602-.71875,.63574-1.54004,.63574-2.37598,0-2.61914-2.13086-4.75-4.75-4.75Z"/><path d="M54.76367,72v-4.61475c0-2.28027-1.81543-4.13525-4.04688-4.13525h-5.40527c-2.23242,0-4.04785,1.85498-4.04785,4.13525v4.61475h1.5v-4.61475c0-1.45312,1.14258-2.63525,2.54785-2.63525h5.40527c1.4043,0,2.54688,1.18213,2.54688,2.63525v4.61475h1.5Z"/><path d="M27.26367,56c0,2.61914,2.13086,4.75,4.75,4.75s4.75-2.13086,4.75-4.75-2.13086-4.75-4.75-4.75-4.75,2.13086-4.75,4.75Zm8,0c0,1.79199-1.45801,3.25-3.25,3.25s-3.25-1.45801-3.25-3.25,1.45801-3.25,3.25-3.25,3.25,1.45801,3.25,3.25Z"/><path d="M38.76367,72v-4.61475c0-2.28027-1.81543-4.13525-4.04688-4.13525h-5.40527c-2.23242,0-4.04785,1.85498-4.04785,4.13525v4.61475h1.5v-4.61475c0-1.45312,1.14258-2.63525,2.54785-2.63525h5.40527c1.4043,0,2.54688,1.18213,2.54688,2.63525v4.61475h1.5Z"/><path d="M11.26367,56c0,2.61914,2.13086,4.75,4.75,4.75s4.75-2.13086,4.75-4.75-2.13086-4.75-4.75-4.75-4.75,2.13086-4.75,4.75Zm8,0c0,1.79199-1.45801,3.25-3.25,3.25s-3.25-1.45801-3.25-3.25,1.45801-3.25,3.25-3.25,3.25,1.45801,3.25,3.25Z"/><path d="M9.26367,67.38525v4.61475h1.5v-4.61475c0-1.45312,1.14258-2.63525,2.54785-2.63525h5.40527c1.4043,0,2.54688,1.18213,2.54688,2.63525v4.61475h1.5v-4.61475c0-2.28027-1.81543-4.13525-4.04688-4.13525h-5.40527c-2.23242,0-4.04785,1.85498-4.04785,4.13525Z"/><path d="M48.75,26.75h1.25v-1.5h-3.25v-2.25195c0-2.06689-1.68164-3.74805-3.74805-3.74805h-6.00391c-2.06641,0-3.74805,1.68115-3.74805,3.74805v2.25195h-3.25v1.5h1.25v10.5H8v1.5H72v-1.5h-23.25v-10.5Zm-14-3.75195c0-1.23975,1.00879-2.24805,2.24805-2.24805h6.00391c1.23926,0,2.24805,1.0083,2.24805,2.24805v2.25195h-10.5v-2.25195Zm12.5,14.25195h-14.5v-10.5h14.5v10.5Z"/><path d="M36.25,13c0,2.06787,1.68262,3.75,3.75,3.75s3.75-1.68213,3.75-3.75-1.68262-3.75-3.75-3.75-3.75,1.68213-3.75,3.75Zm6,0c0,1.24072-1.00977,2.25-2.25,2.25s-2.25-1.00928-2.25-2.25,1.00977-2.25,2.25-2.25,2.25,1.00928,2.25,2.25Z"/></svg>