<?xml version="1.0" encoding="UTF-8"?>
<svg id="DO_NOT_TOUCH_Outlines_" data-name="DO NOT TOUCH (Outlines)" xmlns="http://www.w3.org/2000/svg" viewBox="0 0 80 80">
  <path d="m68.36,24.34l-27-15c-.23-.13-.5-.13-.73,0l-27,15c-.24.13-.39.38-.39.66v30c0,.27.15.52.39.66l27,15c.11.06.24.09.36.09s.25-.03.36-.09l27-15c.24-.13.39-.38.39-.66v-30c0-.27-.15-.52-.39-.66Zm-1.11,30.21l-26.25,14.58-26.25-14.58v-29.12l26.25-14.58,26.25,14.58v29.12Z"/>
  <rect x="32" y="45.25" width="16" height="1.5"/>
  <rect x="26" y="45.25" width="4" height="1.5"/>
  <rect x="32" y="33.25" width="24" height="1.5"/>
  <rect x="26" y="33.25" width="4" height="1.5"/>
  <rect x="32" y="39.25" width="24" height="1.5"/>
  <rect x="26" y="39.25" width="4" height="1.5"/>
</svg>