<?xml version="1.0" encoding="UTF-8"?><svg fill="#FFFFFF" id="a" xmlns="http://www.w3.org/2000/svg" viewBox="0 0 80 80"><path d="M70.75,44v-8c0-2.50684-1.95801-4.54468-4.42188-4.7168-2.24854-12.60278-13.45508-22.0332-26.32812-22.0332S15.92041,18.68042,13.67188,31.2832c-2.46387,.17212-4.42188,2.20996-4.42188,4.7168v8c0,2.61914,2.13086,4.75,4.75,4.75h4c.41406,0,.75-.33594,.75-.75v-16c0-.41406-.33594-.75-.75-.75h-2.77832c2.24658-11.7428,12.73047-20.5,24.77832-20.5s22.53174,8.7572,24.77832,20.5h-2.77832c-.41406,0-.75,.33594-.75,.75v16c0,.41406,.33594,.75,.75,.75h3.03418c-1.34766,9.45996-9.37573,16.5-19.03418,16.5h-1.32593c-.36255-2.26172-2.31177-4-4.67407-4-2.61914,0-4.75,2.13086-4.75,4.75s2.13086,4.75,4.75,4.75c2.3623,0,4.31152-1.73828,4.67407-4h1.32593c10.50269,0,19.21973-7.72241,20.5564-18.05627,2.35474-.27942,4.1936-2.26514,4.1936-4.69373Zm-53.5-11.25v14.5h-3.25c-1.79199,0-3.25-1.45801-3.25-3.25v-8c0-1.79199,1.45801-3.25,3.25-3.25h3.25Zm22.75,36.5c-1.79199,0-3.25-1.45801-3.25-3.25s1.45801-3.25,3.25-3.25,3.25,1.45801,3.25,3.25-1.45801,3.25-3.25,3.25Zm29.25-25.25c0,1.79199-1.45801,3.25-3.25,3.25h-3.25v-14.5h3.25c1.79199,0,3.25,1.45801,3.25,3.25v8Z"/></svg>