<?xml version="1.0" encoding="UTF-8"?><svg id="a" xmlns="http://www.w3.org/2000/svg" viewBox="0 0 80 80"><rect x="34" y="39.25" width="30" height="1.5"/><rect x="34" y="55.25" width="30" height="1.5"/><path d="M10,64.75h60c.41406,0,.75-.33594,.75-.75V16c0-.41406-.33594-.75-.75-.75H10c-.41406,0-.75,.33594-.75,.75v48c0,.41406,.33594,.75,.75,.75Zm.75-48h58.5v14.5H10.75v-14.5Zm0,16h58.5v14.5H10.75v-14.5Zm0,16h58.5v14.5H10.75v-14.5Z"/><rect x="34" y="23.25" width="30" height="1.5"/><circle cx="16.01294" cy="24" r="1"/><circle cx="22" cy="24" r="1"/><circle cx="28" cy="24" r="1"/><circle cx="16.01294" cy="40" r="1"/><circle cx="22" cy="40" r="1"/><circle cx="28" cy="40" r="1"/><circle cx="16.01294" cy="56" r="1"/><circle cx="22" cy="56" r="1"/><circle cx="28" cy="56" r="1"/></svg>