<?xml version="1.0" encoding="UTF-8"?><svg fill="#FFFFFF" id="a" xmlns="http://www.w3.org/2000/svg" viewBox="0 0 80 80"><path d="M61.66699,22.5835c-1.58301,0-3.11426,.41846-4.49023,1.21875-1.37109-8.37842-8.5498-14.55225-17.17676-14.55225-7.03125,0-13.39258,4.28809-16.07422,10.75098-1.25684-.49854-2.57422-.75098-3.92578-.75098-5.92773,0-10.75,4.82227-10.75,10.75s4.82227,10.75,10.75,10.75h.32471c.29907,1.46765,1.45776,2.62598,2.92529,2.9248v8.65234c-1.70972,.34814-3.00098,1.86304-3.00098,3.67432,0,2.06787,1.68262,3.75,3.75,3.75,1.06787,0,2.0271-.45398,2.71094-1.17285l9.78735,6.11731c-.15259,.40784-.24731,.84375-.24731,1.30408,0,2.06787,1.68262,3.75,3.75,3.75s3.75-1.68213,3.75-3.75c0-.46045-.09473-.89661-.24731-1.30444l9.7876-6.11694c.68359,.71887,1.64282,1.17285,2.71069,1.17285,2.06738,0,3.75-1.68213,3.75-3.75,0-1.81128-1.29126-3.32617-3.00098-3.67432v-8.65234c1.46753-.29883,2.62622-1.45715,2.92529-2.9248h1.9917c5.00879,0,9.08301-4.07471,9.08301-9.0835,0-5.0083-4.07422-9.08301-9.08301-9.08301ZM21.74902,40.00049c0-1.24072,1.00977-2.25,2.25-2.25s2.25,1.00928,2.25,2.25-1.00977,2.25-2.25,2.25-2.25-1.00928-2.25-2.25Zm31.31787,13.69458l-9.45874-4.72937c.08325-.30994,.14185-.62939,.14185-.96521,0-.33594-.05859-.65564-.14209-.96558l9.45801-4.729c.53931,.68481,1.29932,1.18799,2.18408,1.36865v8.65283c-.88428,.18054-1.64404,.68335-2.18311,1.36768Zm-.67407-12.72937l-9.45801,4.729c-.53931-.68494-1.2998-1.18799-2.18481-1.36841v-10.65161c.76514-.15601,1.44092-.55066,1.95996-1.09607l9.78833,6.11768c-.15259,.40784-.24731,.84387-.24731,1.3042,0,.33582,.05859,.65527,.14185,.96521Zm-12.39282,9.28479c-1.24023,0-2.25-1.00928-2.25-2.25s1.00977-2.25,2.25-2.25,2.25,1.00928,2.25,2.25-1.00977,2.25-2.25,2.25Zm0-18c-1.24023,0-2.25-1.00928-2.25-2.25s1.00977-2.25,2.25-2.25,2.25,1.00928,2.25,2.25-1.00977,2.25-2.25,2.25Zm-.75,1.42419v10.65161c-.88477,.1803-1.64502,.68323-2.18457,1.36804l-9.45801-4.729c.08301-.30981,.1416-.62915,.1416-.96484,0-.46045-.09473-.89648-.24731-1.30444l9.78833-6.11743c.51904,.54541,1.19482,.94006,1.95996,1.09607Zm-14.5,18.65271v-8.65283c.88477-.18066,1.64502-.68396,2.18433-1.3689l9.45776,4.72876c-.08325,.31006-.14209,.62988-.14209,.96606,0,.33582,.05859,.6554,.14185,.96533l-9.45825,4.72949c-.53931-.68457-1.29932-1.18738-2.18359-1.36792Zm-.75098,5.92407c-1.24023,0-2.25-1.00928-2.25-2.25s1.00977-2.25,2.25-2.25,2.25,1.00928,2.25,2.25-1.00977,2.25-2.25,2.25Zm3.50317-.94702c.1521-.40747,.24683-.84302,.24683-1.30298,0-.33618-.05884-.65588-.14209-.96606l9.45801-4.72949c.53955,.68518,1.30005,1.18835,2.18506,1.36877v10.65112c-.76538,.15601-1.44092,.55066-1.95996,1.09619l-9.78784-6.11755Zm12.4978,10.94556c-1.24023,0-2.25-1.00928-2.25-2.25s1.00977-2.25,2.25-2.25,2.25,1.00928,2.25,2.25-1.00977,2.25-2.25,2.25Zm2.70996-4.82837c-.51929-.54541-1.19482-.93982-1.95996-1.09583v-10.65112c.88501-.18042,1.64551-.68372,2.18506-1.36877l9.45801,4.729c-.08325,.3103-.14209,.63037-.14209,.96655,0,.45996,.09473,.89551,.24707,1.30298l-9.78809,6.11719Zm15.54102-7.42017c0,1.24072-1.00977,2.25-2.25,2.25s-2.25-1.00928-2.25-2.25,1.00977-2.25,2.25-2.25,2.25,1.00928,2.25,2.25Zm-2.25-13.75098c-1.24023,0-2.25-1.00928-2.25-2.25s1.00977-2.25,2.25-2.25,2.25,1.00928,2.25,2.25-1.00977,2.25-2.25,2.25Zm5.66602-3.00049h-1.99194c-.34863-1.70935-1.86353-2.99951-3.67407-2.99951-1.06738,0-2.02637,.45361-2.70996,1.17188l-9.78833-6.11768c.15259-.40784,.24731-.84387,.24731-1.3042,0-2.06787-1.68262-3.75-3.75-3.75s-3.75,1.68213-3.75,3.75c0,.46033,.09473,.89636,.24731,1.3042l-9.78833,6.11768c-.68359-.71838-1.64258-1.17188-2.70996-1.17188-1.81055,0-3.32544,1.29016-3.67407,2.99951h-.32495c-5.10059,0-9.25-4.14941-9.25-9.25s4.14941-9.25,9.25-9.25c1.3916,0,2.74219,.31201,4.01562,.92773,.19043,.09277,.41309,.09961,.60938,.01953s.34961-.23975,.42188-.43945c2.27441-6.28516,8.2832-10.50781,14.95312-10.50781,8.26465,0,15.0752,6.2002,15.84082,14.42236,.02539,.27295,.19727,.50977,.44824,.61865,.25391,.1084,.54297,.07178,.75879-.09521,1.35938-1.05469,2.95703-1.6123,4.61914-1.6123,4.18164,0,7.58301,3.40186,7.58301,7.58301,0,4.18164-3.40137,7.5835-7.58301,7.5835Z"/></svg>