<?xml version="1.0" encoding="UTF-8"?><svg id="a" xmlns="http://www.w3.org/2000/svg" viewBox="0 0 80 80"><path d="M40,36.75c4.8252,0,8.75-3.92529,8.75-8.75s-3.9248-8.75-8.75-8.75-8.75,3.92529-8.75,8.75,3.9248,8.75,8.75,8.75Zm0-16c3.99805,0,7.25,3.25244,7.25,7.25s-3.25195,7.25-7.25,7.25-7.25-3.25244-7.25-7.25,3.25195-7.25,7.25-7.25Z"/><path d="M9.25,56v12c0,.41406,.33594,.75,.75,.75h8c.32227,0,.60938-.20654,.71094-.5127l2.49976-7.4873H58.78931l2.49976,7.4873c.10156,.30615,.38867,.5127,.71094,.5127h8c.41406,0,.75-.33594,.75-.75V15.9165c0-1.47021-1.2334-2.6665-2.75-2.6665H12c-1.5166,0-2.75,1.19629-2.75,2.6665V56Zm60,11.25h-6.70996l-2.16943-6.5h7.62939c.45239,0,.87329-.11658,1.25-.30493v6.80493ZM10.75,15.9165c0-.64307,.56055-1.1665,1.25-1.1665h56c.68945,0,1.25,.52344,1.25,1.1665V51.25h-16.5v-4.78857c0-3.97656-3.02832-7.21143-6.75-7.21143h-12c-3.72168,0-6.75,3.23486-6.75,7.21143v4.78857H10.75V15.9165Zm40.5,30.54492v4.78857H28.75v-4.78857c0-3.14941,2.35547-5.71143,5.25-5.71143h12c2.89453,0,5.25,2.56201,5.25,5.71143ZM10.75,56v-3.25h58.5v5.3335c0,.64307-.56055,1.1665-1.25,1.1665H12c-.68945,0-1.25-.52344-1.25-1.1665v-2.0835Zm0,4.44507c.37671,.18835,.79761,.30493,1.25,.30493h7.62939l-2.16943,6.5h-6.70996v-6.80493Z"/><circle cx="64" cy="20" r="1"/></svg>