<?xml version="1.0" encoding="UTF-8"?><svg id="a" xmlns="http://www.w3.org/2000/svg" viewBox="0 0 80 80"><path d="M9.49414,68.75h61.01172c.41406,0,.75-.33594,.75-.75V12c0-.41406-.33594-.75-.75-.75H9.49414c-.41406,0-.75,.33594-.75,.75v56c0,.41406,.33594,.75,.75,.75ZM41.1123,12.75h28.64355v12.5h-28.64355V12.75Zm0,14h28.64355v12.5h-28.64355v-12.5Zm0,14h28.64355v12.5h-28.64355v-12.5Zm0,14h28.64355v12.5h-28.64355v-12.5ZM10.24414,12.75h29.36816v12.5H10.24414V12.75Zm0,14h29.36816v12.5H10.24414v-12.5Zm0,14h29.36816v12.5H10.24414v-12.5Zm0,14h29.36816v12.5H10.24414v-12.5Z"/></svg>