<?xml version="1.0" encoding="UTF-8"?><svg id="a" xmlns="http://www.w3.org/2000/svg" viewBox="0 0 80 80"><path d="M10.75,40c0-16.12842,13.12109-29.25,29.25-29.25s29.25,13.12158,29.25,29.25h1.5c0-16.95557-13.79395-30.75-30.75-30.75S9.25,23.04443,9.25,40h1.5Z"/><path d="M30,35.25c-1.5166,0-2.75,1.2334-2.75,2.75s1.2334,2.75,2.75,2.75,2.75-1.2334,2.75-2.75c0-.48535-.13696-.93481-.3584-1.33105l6.27734-6.27734c.39624,.22144,.8457,.3584,1.33105,.3584s.93481-.13696,1.33105-.3584l6.27734,6.27734c-.22144,.39624-.3584,.8457-.3584,1.33105s.13696,.93481,.3584,1.33105l-6.27734,6.27734c-.39624-.22144-.8457-.3584-1.33105-.3584-1.5166,0-2.75,1.2334-2.75,2.75s1.2334,2.75,2.75,2.75,2.75-1.2334,2.75-2.75c0-.48535-.13696-.93481-.3584-1.33105l6.27734-6.27734c.39624,.22144,.8457,.3584,1.33105,.3584,1.5166,0,2.75-1.2334,2.75-2.75s-1.2334-2.75-2.75-2.75c-.48535,0-.93481,.13696-1.33105,.3584l-6.27734-6.27734c.22144-.39624,.3584-.8457,.3584-1.33105,0-1.5166-1.2334-2.75-2.75-2.75s-2.75,1.2334-2.75,2.75c0,.48535,.13696,.93481,.3584,1.33105l-6.27734,6.27734c-.39624-.22144-.8457-.3584-1.33105-.3584Zm0,4c-.68945,0-1.25-.56055-1.25-1.25s.56055-1.25,1.25-1.25,1.25,.56055,1.25,1.25-.56055,1.25-1.25,1.25Zm10,10c-.68945,0-1.25-.56055-1.25-1.25s.56055-1.25,1.25-1.25,1.25,.56055,1.25,1.25-.56055,1.25-1.25,1.25Zm10-12.5c.68945,0,1.25,.56055,1.25,1.25s-.56055,1.25-1.25,1.25-1.25-.56055-1.25-1.25,.56055-1.25,1.25-1.25Zm-10-10c.68945,0,1.25,.56055,1.25,1.25s-.56055,1.25-1.25,1.25-1.25-.56055-1.25-1.25,.56055-1.25,1.25-1.25Z"/><path d="M60,40.75c1.5166,0,2.75-1.2334,2.75-2.75s-1.2334-2.75-2.75-2.75-2.75,1.2334-2.75,2.75c0,.48535,.13696,.93481,.3584,1.33105l-6.27734,6.27734c-.39624-.22144-.8457-.3584-1.33105-.3584-1.5166,0-2.75,1.2334-2.75,2.75,0,.48535,.13696,.93481,.3584,1.33105l-6.27734,6.27734c-.39624-.22144-.8457-.3584-1.33105-.3584-1.5166,0-2.75,1.2334-2.75,2.75s1.2334,2.75,2.75,2.75,2.75-1.2334,2.75-2.75c0-.48535-.13696-.93481-.3584-1.33105l6.27734-6.27734c.39624,.22144,.8457,.3584,1.33105,.3584,1.5166,0,2.75-1.2334,2.75-2.75,0-.48535-.13696-.93481-.3584-1.33105l6.27734-6.27734c.39624,.22144,.8457,.3584,1.33105,.3584Zm0-4c.68945,0,1.25,.56055,1.25,1.25s-.56055,1.25-1.25,1.25-1.25-.56055-1.25-1.25,.56055-1.25,1.25-1.25Zm-20,22.5c-.68945,0-1.25-.56055-1.25-1.25s.56055-1.25,1.25-1.25,1.25,.56055,1.25,1.25-.56055,1.25-1.25,1.25Zm10-10c-.68945,0-1.25-.56055-1.25-1.25s.56055-1.25,1.25-1.25,1.25,.56055,1.25,1.25-.56055,1.25-1.25,1.25Z"/><path d="M40,40.75c1.5166,0,2.75-1.2334,2.75-2.75s-1.2334-2.75-2.75-2.75-2.75,1.2334-2.75,2.75c0,.48535,.13696,.93481,.3584,1.33105l-6.27734,6.27734c-.39624-.22144-.8457-.3584-1.33105-.3584s-.93481,.13696-1.33105,.3584l-6.27734-6.27734c.22144-.39624,.3584-.8457,.3584-1.33105,0-1.5166-1.2334-2.75-2.75-2.75s-2.75,1.2334-2.75,2.75,1.2334,2.75,2.75,2.75c.48535,0,.93481-.13696,1.33105-.3584l6.27734,6.27734c-.22144,.39624-.3584,.8457-.3584,1.33105,0,1.5166,1.2334,2.75,2.75,2.75s2.75-1.2334,2.75-2.75c0-.48535-.13696-.93481-.3584-1.33105l6.27734-6.27734c.39624,.22144,.8457,.3584,1.33105,.3584Zm0-4c.68945,0,1.25,.56055,1.25,1.25s-.56055,1.25-1.25,1.25-1.25-.56055-1.25-1.25,.56055-1.25,1.25-1.25Zm-20,2.5c-.68945,0-1.25-.56055-1.25-1.25s.56055-1.25,1.25-1.25,1.25,.56055,1.25,1.25-.56055,1.25-1.25,1.25Zm10,10c-.68945,0-1.25-.56055-1.25-1.25s.56055-1.25,1.25-1.25,1.25,.56055,1.25,1.25-.56055,1.25-1.25,1.25Z"/></svg>