<?xml version="1.0" encoding="UTF-8"?><svg id="a" xmlns="http://www.w3.org/2000/svg" viewBox="0 0 80 80"><path d="M10,56.75h60c.41406,0,.75-.33594,.75-.75v-16c0-.41406-.33594-.75-.75-.75H24.75V18h-1.5v21.25h-4.5v-15.25h-1.5v15.25h-7.25c-.41406,0-.75,.33594-.75,.75v16c0,.41406,.33594,.75,.75,.75Zm.75-16h58.5v14.5H10.75v-14.5Z"/><rect x="23.25" y="48" width="1.5" height="4"/><rect x="17.25" y="50" width="1.5" height="2"/><rect x="29.25" y="46" width="1.5" height="6"/><rect x="35.25" y="44" width="1.5" height="8"/><circle cx="50" cy="48" r="1"/><circle cx="56" cy="48" r="1"/><circle cx="62" cy="48" r="1"/></svg>