<?xml version="1.0" encoding="UTF-8"?><svg id="modifiers" xmlns="http://www.w3.org/2000/svg" viewBox="0 0 80 80"><defs><style>.cls-1{fill:#07182d;}</style></defs><path class="cls-1" d="M40,0C17.94,0,0,17.94,0,40s17.94,40,40,40,40-17.94,40-40S62.06,0,40,0ZM40,78.95C18.52,78.95,1.05,61.48,1.05,40S18.52,1.05,40,1.05s38.95,17.47,38.95,38.95-17.47,38.95-38.95,38.95ZM56.08,47.16c-3.33-1.43-5.34.94-6.95,2.85-.53.62-1.02,1.21-1.6,1.73-.19.24-.5.38-.95.4-2.02.11-6.6-2.26-11.38-7.03-4.77-4.77-7.15-9.33-7.03-11.37.02-.44.16-.75.45-.99.58-.6,1.22-1.12,1.84-1.63,2.25-1.84,4.38-3.58,2.05-7.81-.24-.43-.54-1.06-.89-1.79-2-4.16-3.81-7.59-5.69-7.41-3.95.35-6.72.93-9.16,5.73-2.95,5.16-1.61,10.46-.12,15.02,2.27,6.97,6.09,11.79,11.51,17.31,5.84,5.74,12.15,9.95,17.75,11.86,2.37.8,4.84,1.46,7.42,1.46,2.3,0,4.67-.52,7.13-1.92,4.78-2.43,5.38-5.2,5.75-9.16.31-2.38-6.22-5.55-10.14-7.24ZM65.16,54.29c-.38,4.06-1.01,6.21-5.2,8.34-4.6,2.63-8.81,2.06-13.71.39-5.46-1.85-11.62-5.98-17.35-11.61-5.31-5.41-9.05-10.12-11.26-16.89-1.81-5.55-2.43-9.85.05-14.19,2.14-4.2,4.28-4.82,8.33-5.18.02,0,.03,0,.05,0,1.31,0,3.52,4.59,4.59,6.82.36.75.68,1.4.92,1.84,1.91,3.46.43,4.66-1.79,6.49-.64.52-1.3,1.07-1.88,1.67-.49.39-.75.96-.79,1.71-.15,2.74,2.8,7.63,7.34,12.18,4.55,4.55,9.46,7.51,12.18,7.34.75-.04,1.32-.31,1.65-.73.57-.51,1.12-1.15,1.64-1.77,1.6-1.9,3.11-3.69,5.73-2.56,5.57,2.4,9.66,5.03,9.51,6.14v.02Z"/></svg>