<?xml version="1.0" encoding="UTF-8"?><svg id="a" xmlns="http://www.w3.org/2000/svg" viewBox="0 0 80 80"><path d="M12,60.75h5.25v3.25c0,2.61914,2.13086,4.75,4.75,4.75h14c2.61914,0,4.75-2.13086,4.75-4.75v-3.25h27.25c1.5166,0,2.75-1.2334,2.75-2.75V22c0-1.5166-1.2334-2.75-2.75-2.75H32c-1.5166,0-2.75,1.2334-2.75,2.75V58c0,1.5166,1.2334,2.75,2.75,2.75h7.25v3.25c0,1.79199-1.45801,3.25-3.25,3.25h-14c-1.79199,0-3.25-1.45801-3.25-3.25v-3.25h5.25c1.5166,0,2.75-1.2334,2.75-2.75V22c0-1.5166-1.2334-2.75-2.75-2.75H12c-1.5166,0-2.75,1.2334-2.75,2.75V58c0,1.5166,1.2334,2.75,2.75,2.75ZM64.75,20.75h3.25c.68945,0,1.25,.56055,1.25,1.25v13.25h-4.5v-14.5Zm-28,0h26.5v14.5h-26.5v-14.5Zm-6,1.25c0-.68945,.56055-1.25,1.25-1.25h3.25v14.5h-4.5v-13.25Zm1.25,37.25c-.68945,0-1.25-.56055-1.25-1.25v-21.25h38.5v21.25c0,.68945-.56055,1.25-1.25,1.25H32ZM10.75,22c0-.68945,.56055-1.25,1.25-1.25h12c.68945,0,1.25,.56055,1.25,1.25V58c0,.68945-.56055,1.25-1.25,1.25H12c-.68945,0-1.25-.56055-1.25-1.25V22Z"/><rect x="38" y="41.25" width="6" height="1.5"/><rect x="38" y="47.25" width="6" height="1.5"/><rect x="38" y="53.25" width="6" height="1.5"/><circle cx="50" cy="42" r="1"/><circle cx="56" cy="42" r="1"/><circle cx="62" cy="42" r="1"/><circle cx="50" cy="48" r="1"/><circle cx="56" cy="48" r="1"/><circle cx="62" cy="48" r="1"/><circle cx="50" cy="54" r="1"/><circle cx="56" cy="54" r="1"/><circle cx="62" cy="54" r="1"/></svg>