<svg width="80" height="80" viewBox="0 0 80 80" fill="none" xmlns="http://www.w3.org/2000/svg">
<path d="M40 0C62.0914 0 80 17.9086 80 40C80 62.0914 62.0914 80 40 80C17.9086 80 0 62.0914 0 40C6.44344e-07 17.9086 17.9086 6.4426e-07 40 0ZM40 1C18.4609 1 1 18.4609 1 40C1 61.5391 18.4609 79 40 79C61.5391 79 79 61.5391 79 40C79 18.4609 61.5391 1 40 1ZM60 16C62.2091 16 64 17.7909 64 20C64 22.2091 62.2091 24 60 24C59.0755 24 58.2253 23.6849 57.5479 23.1582L51.5957 29.1104C53.284 29.8821 54.9551 30.8243 56.6006 31.9385C58.4052 33.1604 60.3576 35.1086 61.8438 36.7285C62.5904 37.5424 63.2263 38.2818 63.6758 38.8174C63.9006 39.0852 64.0797 39.3025 64.2021 39.4531C64.2634 39.5284 64.3107 39.5879 64.3428 39.6279C64.3585 39.6475 64.3707 39.6625 64.3789 39.6729C64.3831 39.6781 64.3865 39.6828 64.3887 39.6855C64.3896 39.6867 64.3901 39.6878 64.3906 39.6885L64.3916 39.6895L64.6377 40L64.3916 40.3105L64.3906 40.3115C64.3901 40.3122 64.3896 40.3133 64.3887 40.3145C64.3865 40.3172 64.3831 40.3219 64.3789 40.3271C64.3707 40.3375 64.3585 40.3525 64.3428 40.3721C64.3107 40.4121 64.2634 40.4716 64.2021 40.5469C64.0797 40.6975 63.9006 40.9147 63.6758 41.1826C63.2263 41.7182 62.5904 42.4576 61.8438 43.2715C60.3576 44.8914 58.4052 46.8396 56.6006 48.0615C54.9542 49.1763 53.282 50.1186 51.5928 50.8906L57.5449 56.8428C58.2227 56.315 59.0744 56 60 56C62.2091 56 64 57.7909 64 60C64 62.2091 62.2091 64 60 64C57.7909 64 56 62.2091 56 60C56 59.0769 56.3126 58.2267 56.8379 57.5498L50.6416 51.3535L50.7217 51.2725C43.7035 54.2256 36.4088 54.2409 29.3877 51.3184L23.1582 57.5479C23.6849 58.2253 24 59.0755 24 60C24 62.2091 22.2091 64 20 64C17.7909 64 16 62.2091 16 60C16 57.7909 17.7909 56 20 56C20.9241 56 21.7739 56.3146 22.4512 56.8408L28.4033 50.8887C26.7154 50.117 25.0445 49.1754 23.3994 48.0615C21.5948 46.8396 19.6424 44.8914 18.1562 43.2715C17.4096 42.4576 16.7737 41.7182 16.3242 41.1826C16.0994 40.9147 15.9203 40.6975 15.7979 40.5469C15.7366 40.4716 15.6893 40.4121 15.6572 40.3721C15.6415 40.3525 15.6293 40.3375 15.6211 40.3271C15.6169 40.3219 15.6135 40.3172 15.6113 40.3145C15.6104 40.3133 15.6099 40.3122 15.6094 40.3115L15.6084 40.3105L15.3623 40L15.6084 39.6895L15.6094 39.6885C15.6099 39.6878 15.6104 39.6867 15.6113 39.6855C15.6135 39.6828 15.6169 39.6781 15.6211 39.6729C15.6294 39.6625 15.6415 39.6475 15.6572 39.6279C15.6893 39.5879 15.7366 39.5284 15.7979 39.4531C15.9203 39.3025 16.0994 39.0852 16.3242 38.8174C16.7737 38.2818 17.4096 37.5424 18.1562 36.7285C19.6424 35.1086 21.5948 33.1604 23.3994 31.9385C25.0435 30.8253 26.7126 29.8827 28.3994 29.1113L22.4492 23.1611C21.7723 23.6863 20.9231 24 20 24C17.7909 24 16 22.2091 16 20C16 17.7909 17.7909 16 20 16C22.2091 16 24 17.7909 24 20C24 20.9253 23.6847 21.7764 23.1572 22.4541L29.3486 28.6465L29.2607 28.7334C36.3235 25.7566 43.6675 25.7561 50.7305 28.7305L50.6465 28.6465L56.8408 22.4512C56.3146 21.7739 56 20.9241 56 20C56 17.7909 57.7909 16 60 16ZM20 57C18.3431 57 17 58.3431 17 60C17 61.6569 18.3431 63 20 63C21.6569 63 23 61.6569 23 60C23 58.3431 21.6569 57 20 57ZM60 57C58.3431 57 57 58.3431 57 60C57 61.6569 58.3431 63 60 63C61.6569 63 63 61.6569 63 60C63 58.3431 61.6569 57 60 57ZM56.04 32.7666C45.6688 25.7442 34.3312 25.7442 23.96 32.7666C22.2572 33.9195 20.3705 35.7954 18.8936 37.4053C18.1588 38.2061 17.5323 38.9338 17.0898 39.4609C16.9081 39.6775 16.7577 39.8603 16.6436 40C16.7577 40.1397 16.9081 40.3225 17.0898 40.5391C17.5323 41.0662 18.1588 41.7939 18.8936 42.5947C20.3705 44.2046 22.2572 46.0805 23.96 47.2334C34.3312 54.2558 45.6688 54.2558 56.04 47.2334C57.7428 46.0805 59.6295 44.2046 61.1064 42.5947C61.8412 41.7939 62.4677 41.0662 62.9102 40.5391C63.0917 40.3228 63.2413 40.1397 63.3555 40C63.2413 39.8603 63.0917 39.6772 62.9102 39.4609C62.4677 38.9338 61.8412 38.2061 61.1064 37.4053C59.6295 35.7954 57.7428 33.9195 56.04 32.7666ZM40 32C44.4183 32 48 35.5817 48 40C48 44.4183 44.4183 48 40 48C35.5817 48 32 44.4183 32 40C32 35.5817 35.5817 32 40 32ZM40 33C36.134 33 33 36.134 33 40C33 43.866 36.134 47 40 47C43.866 47 47 43.866 47 40C47 36.134 43.866 33 40 33ZM20 17C18.3431 17 17 18.3431 17 20C17 21.6569 18.3431 23 20 23C21.6569 23 23 21.6569 23 20C23 18.3431 21.6569 17 20 17ZM60 17C58.3431 17 57 18.3431 57 20C57 21.6569 58.3431 23 60 23C61.6569 23 63 21.6569 63 20C63 18.3431 61.6569 17 60 17Z" fill="black"/>
</svg>
