<?xml version="1.0" encoding="UTF-8"?>
<svg fill="#FFFFFF" id="DO_NOT_TOUCH_Outlines_" data-name="DO NOT TOUCH (Outlines)" xmlns="http://www.w3.org/2000/svg" viewBox="0 0 80 80">
  <path d="m65.99,35.14c-2.37,0-4.32,1.75-4.68,4.02l-8.2.14.03,1.5,8.18-.14c.37,2.26,2.32,3.99,4.68,3.99,2.62,0,4.76-2.13,4.76-4.76s-2.13-4.76-4.76-4.76Zm0,8.01c-1.79,0-3.26-1.46-3.26-3.26s1.46-3.26,3.26-3.26,3.26,1.46,3.26,3.26-1.46,3.26-3.26,3.26Z"/>
  <path d="m9.25,39.9c0,2.62,2.13,4.76,4.76,4.76,2.36,0,4.31-1.73,4.68-3.99l8.18.14.03-1.5-8.2-.14c-.36-2.27-2.31-4.02-4.68-4.02-2.62,0-4.76,2.13-4.76,4.76Zm8.01,0c0,1.8-1.46,3.26-3.26,3.26s-3.26-1.46-3.26-3.26,1.46-3.26,3.26-3.26,3.26,1.46,3.26,3.26Z"/>
  <path d="m48.04,33.08l7.17-7.36c.8.58,1.76.91,2.77.91,1.27,0,2.46-.49,3.36-1.39,1.85-1.85,1.85-4.87,0-6.73-.9-.9-2.09-1.39-3.36-1.39s-2.46.49-3.36,1.39c-1.68,1.67-1.82,4.29-.47,6.15l-7.19,7.37,1.07,1.05Zm7.64-13.51c.62-.61,1.43-.95,2.3-.95s1.69.34,2.3.95c1.27,1.27,1.27,3.34,0,4.6-1.23,1.23-3.37,1.23-4.6,0-1.27-1.27-1.27-3.34,0-4.6Z"/>
  <path d="m31.96,47.03l-7.57,7.76c-1.86-1.34-4.46-1.19-6.13.48-1.85,1.85-1.85,4.87,0,6.73.93.93,2.14,1.39,3.36,1.39s2.44-.46,3.36-1.39c1.68-1.68,1.82-4.29.47-6.15l7.58-7.77-1.07-1.05Zm-8.04,13.91c-1.27,1.27-3.34,1.27-4.6,0-1.27-1.27-1.27-3.34,0-4.6.63-.63,1.47-.95,2.3-.95s1.67.32,2.3.95c1.27,1.27,1.27,3.34,0,4.6Z"/>
  <path d="m39.25,53.18v8.07c-2.29.34-4.05,2.3-4.05,4.68,0,2.62,2.13,4.76,4.76,4.76s4.76-2.13,4.76-4.76c0-2.35-1.72-4.29-3.96-4.68v-8.08h-1.5Zm3.96,12.76c0,1.8-1.46,3.26-3.26,3.26s-3.26-1.46-3.26-3.26,1.46-3.26,3.26-3.26,3.26,1.46,3.26,3.26Z"/>
  <path d="m44.71,14.06c0-2.62-2.13-4.76-4.76-4.76s-4.76,2.13-4.76,4.76c0,2.35,1.72,4.3,3.97,4.68l.08,8.2h1.5s-.08-8.19-.08-8.19c2.28-.35,4.04-2.31,4.04-4.68Zm-4.76,3.26c-1.79,0-3.26-1.46-3.26-3.26s1.46-3.26,3.26-3.26,3.26,1.46,3.26,3.26-1.46,3.26-3.26,3.26Z"/>
  <path d="m24.98,18.51c-1.85-1.85-4.87-1.85-6.73,0s-1.85,4.87,0,6.73c.93.93,2.14,1.39,3.36,1.39.98,0,1.96-.32,2.78-.92l7.57,7.38,1.05-1.07-7.56-7.37c1.34-1.86,1.19-4.46-.48-6.14Zm-1.06,5.67c-1.27,1.27-3.34,1.27-4.6,0s-1.27-3.34,0-4.6c.63-.63,1.47-.95,2.3-.95s1.67.32,2.3.95c1.27,1.27,1.27,3.34,0,4.6Z"/>
  <path d="m55.61,54.79l-7.57-7.76-1.07,1.05,7.58,7.77c-1.35,1.86-1.2,4.47.47,6.15.93.93,2.14,1.39,3.36,1.39s2.44-.46,3.36-1.39c1.85-1.85,1.85-4.87,0-6.73-1.67-1.67-4.28-1.82-6.13-.48Zm5.07,6.15c-1.27,1.27-3.33,1.27-4.6,0-1.27-1.27-1.27-3.34,0-4.6.63-.63,1.47-.95,2.3-.95s1.67.32,2.3.95c1.27,1.27,1.27,3.34,0,4.6Z"/>
  <path d="m29.04,40.51l10.43,10.43c.15.15.34.22.53.22s.38-.07.53-.22l10.43-10.43c.29-.29.29-.77,0-1.06l-10.43-10.43c-.29-.29-.77-.29-1.06,0l-10.43,10.43c-.29.29-.29.77,0,1.06Zm10.96-9.9l9.37,9.37-9.37,9.37-9.37-9.37,9.37-9.37Z"/>
</svg>