<?xml version="1.0" encoding="UTF-8"?><svg fill="#FFFFFF" id="a" xmlns="http://www.w3.org/2000/svg" viewBox="0 0 80 80"><path d="M43.35547,12.41406c-11.65552,0-22.04102,7.33984-25.95386,18.28906-4.60547,.77051-8.13013,4.77393-8.13013,9.59473,0,4.90869,3.6543,8.96997,8.3833,9.63354,4.08887,10.54614,14.36475,17.61206,25.70068,17.61206,15.19922,0,27.56445-12.36572,27.56445-27.56494s-12.36523-27.56445-27.56445-27.56445ZM10.77148,40.29785c0-4.54297,3.69629-8.23926,8.23926-8.23926s8.23926,3.69629,8.23926,8.23926-3.69629,8.23926-8.23926,8.23926-8.23926-3.69629-8.23926-8.23926Zm32.58398,25.74561c-10.48999,0-20.01221-6.40283-24.03809-16.02185,5.07593-.15906,9.17578-4.21436,9.40967-9.27161h12.52295v5.25h1.5v-5.25h4.5v5.25h1.5v-5.25h4.5v5.25h1.5v-6c0-.41406-.33594-.75-.75-.75H28.69141c-.52271-4.86084-4.63477-8.66064-9.62573-8.6886,3.87354-9.99158,13.50122-16.64734,24.28979-16.64734,14.37207,0,26.06445,11.69238,26.06445,26.06445s-11.69238,26.06494-26.06445,26.06494Z"/></svg>