<?xml version="1.0" encoding="UTF-8"?><svg id="a" xmlns="http://www.w3.org/2000/svg" viewBox="0 0 80 80"><path d="M40,18.75c11.13672,0,21.60596,4.18701,29.479,11.78955l1.04199-1.0791c-8.1543-7.87402-18.99316-12.21045-30.521-12.21045s-22.3667,4.33643-30.521,12.21045l1.04199,1.0791c7.87305-7.60254,18.34229-11.78955,29.479-11.78955Z"/><path d="M60.521,39.46045c-5.48291-5.29443-12.77051-8.21045-20.521-8.21045s-15.03809,2.91602-20.521,8.21045l1.04199,1.0791c5.20166-5.02295,12.11963-7.78955,19.479-7.78955s14.27734,2.7666,19.479,7.78955l1.04199-1.0791Z"/><path d="M50.521,49.46045c-2.81152-2.71533-6.54834-4.21045-10.521-4.21045s-7.70947,1.49512-10.521,4.21045l1.04199,1.0791c2.53076-2.44385,5.89697-3.78955,9.479-3.78955s6.94824,1.3457,9.479,3.78955l1.04199-1.0791Z"/><path d="M37.25,60c0,1.5166,1.2334,2.75,2.75,2.75s2.75-1.2334,2.75-2.75-1.2334-2.75-2.75-2.75-2.75,1.2334-2.75,2.75Zm4,0c0,.68945-.56055,1.25-1.25,1.25s-1.25-.56055-1.25-1.25,.56055-1.25,1.25-1.25,1.25,.56055,1.25,1.25Z"/></svg>