<?xml version="1.0" encoding="UTF-8"?><svg fill="#FFFFFF" id="a" xmlns="http://www.w3.org/2000/svg" viewBox="0 0 80 80"><path d="M25.25,34v12c0,.41406,.33594,.75,.75,.75h28c.41406,0,.75-.33594,.75-.75v-12c0-.41406-.33594-.75-.75-.75H26c-.41406,0-.75,.33594-.75,.75Zm1.5,.75h26.5v10.5H26.75v-10.5Z"/><rect x="38" y="39.25" width="12" height="1.5"/><path d="M47.47559,21.37744l.83789,1.24512c7.09961-4.77393,9.76758-3.48047,11.15625-2.09229,1.38281,1.3833,2.67773,4.03516-2.0332,11.06885l1.24609,.83496c4.05371-6.05273,4.64062-10.17188,1.84766-12.96436-2.76367-2.76367-7.0332-2.13965-13.05469,1.90771Z"/><path d="M21.30078,47.58252c-4.04199,6.04102-4.62402,10.15527-1.83105,12.94775,1.15039,1.1499,2.52344,1.72754,4.16309,1.72754,2.34375,0,5.23047-1.18066,8.78418-3.55811l-.83398-1.24707c-7.01758,4.69629-9.66895,3.40039-11.05273,2.01709s-2.67969-4.03369,2.0166-11.05322l-1.24609-.83398Z"/><path d="M19.46973,19.46973c-2.79785,2.79688-2.19141,6.94043,1.9082,13.04004l1.24414-.83691c-4.76855-7.09473-3.47754-9.75732-2.0918-11.14258,1.38672-1.38623,4.04395-2.68506,11.06934,2.01855l.83398-1.24609c-5.96289-3.99219-10.20508-4.59375-12.96387-1.83301Z"/><path d="M48.41699,57.43848l-.83398,1.24609c3.56055,2.38428,6.45117,3.56738,8.7959,3.56689,1.63574,0,3.00586-.57568,4.15137-1.72119,2.75977-2.75928,2.16113-6.99902-1.83105-12.9624l-1.24609,.83398c4.70312,7.02588,3.40332,9.68164,2.0166,11.06787-1.37988,1.37939-4.0293,2.67041-11.05273-2.03125Z"/><path d="M58.05371,14.02979c.06348,0,.12012-.03955,.1416-.09912l.4668-1.29834h2.24902l.4668,1.29834c.02148,.05957,.07812,.09912,.1416,.09912h1.11035c.0498,0,.0957-.02441,.12402-.06543,.02734-.04053,.03418-.09277,.01562-.13867l-2.23633-5.74951c-.02246-.05762-.07812-.0957-.13965-.0957h-1.14941c-.06152,0-.11719,.03809-.13965,.0957l-2.23633,5.74951c-.01855,.0459-.01172,.09814,.01562,.13867,.02832,.04102,.07422,.06543,.12402,.06543h1.0459Zm1.74707-4.52979l.73926,2.08203h-1.49707l.75781-2.08203Z"/><path d="M65.68848,8.94336c.32812,0,.60742,.08203,.8291,.24219,.25586,.18945,.40918,.46094,.46777,.8291,.01172,.07275,.07422,.12646,.14844,.12646h1.03027c.04297,0,.08301-.01807,.11133-.0498,.0293-.03174,.04199-.07422,.03809-.1167-.06348-.57812-.31152-1.06445-.73535-1.44482-.49512-.44385-1.13086-.66895-1.88965-.66895-.80859,0-1.47168,.23926-1.97168,.71094-.59277,.5542-.89453,1.37012-.89453,2.42529,0,.92627,.22949,1.67529,.68164,2.22705,.50098,.61426,1.21484,.92578,2.12012,.92578,.71191,0,1.31934-.19336,1.80273-.57568,.54199-.42822,.84863-1.01416,.91016-1.7417,.00391-.04199-.01074-.08301-.03906-.11426-.02832-.03076-.06836-.04834-.11035-.04834h-1.03809c-.0791,0-.14453,.06104-.14941,.14014-.02441,.35986-.14355,.65332-.35645,.87109-.25,.25439-.57812,.37842-1.00293,.37842-.41113,0-.73242-.1377-.98242-.4209-.31934-.35889-.48047-.91113-.48047-1.6416,0-.646,.12695-1.15137,.37988-1.50293,.25977-.37061,.62988-.55078,1.13086-.55078Z"/><rect x="68.8916" y="7.98047" width="1.32324" height="6.04932" rx=".15039" ry=".15039"/><path d="M40.75,24V11.81055l2.71973,2.71973,1.06055-1.06055-4-4c-.29297-.29297-.76758-.29297-1.06055,0l-4,4,1.06055,1.06055,2.71973-2.71973v12.18945h1.5Z"/><path d="M39.25,56v12.18945l-2.71973-2.71973-1.06055,1.06055,4,4c.14648,.14648,.33789,.21973,.53027,.21973s.38379-.07324,.53027-.21973l4-4-1.06055-1.06055-2.71973,2.71973v-12.18945h-1.5Z"/><path d="M13.46973,44.53027l1.06055-1.06055-2.71973-2.71973h10.18945v-1.5H11.81055l2.71973-2.71973-1.06055-1.06055-4,4c-.29297,.29297-.29297,.76758,0,1.06055l4,4Z"/><path d="M70.53027,39.46973l-4-4-1.06055,1.06055,2.71973,2.71973h-10.18945v1.5h10.18945l-2.71973,2.71973,1.06055,1.06055,4-4c.29297-.29297,.29297-.76758,0-1.06055Z"/><circle cx="30" cy="40" r="1"/><circle cx="34" cy="40" r="1"/></svg>