<?xml version="1.0" encoding="UTF-8"?><svg id="device" xmlns="http://www.w3.org/2000/svg" viewBox="0 0 80 80"><defs><style>.cls-1{fill:#fff;}</style></defs><g id="Layer_4"><path class="cls-1" d="M51.68,38.48v-1.34c0-.24.19-.43.43-.43h2.48c.24,0,.43.19.43.43v1.34c0,.24-.19.43-.43.43h-2.48c-.24,0-.43-.19-.43-.43ZM52.11,43.29h2.48c.24,0,.43-.19.43-.43v-1.34c0-.24-.19-.43-.43-.43h-2.48c-.24,0-.43.19-.43.43v1.34c0,.24.19.43.43.43ZM59.72,43.29h7.49c.24,0,.43-.19.43-.43v-1.34c0-.24-.19-.43-.43-.43h-7.49c-.24,0-.43.19-.43.43v1.34c0,.24.19.43.43.43ZM42.48,38.9h7.49c.24,0,.43-.19.43-.43v-1.34c0-.24-.19-.43-.43-.43h-7.49c-.24,0-.43.19-.43.43v1.34c0,.24.19.43.43.43ZM42.48,43.29h7.49c.24,0,.43-.19.43-.43v-1.34c0-.24-.19-.43-.43-.43h-7.49c-.24,0-.43.19-.43.43v1.34c0,.24.19.43.43.43ZM69.35,38.9h2.48c.24,0,.43-.19.43-.43v-1.34c0-.24-.19-.43-.43-.43h-2.48c-.24,0-.43.19-.43.43v1.34c0,.24.19.43.43.43ZM69.35,43.29h2.48c.24,0,.43-.19.43-.43v-1.34c0-.24-.19-.43-.43-.43h-2.48c-.24,0-.43.19-.43.43v1.34c0,.24.19.43.43.43ZM59.72,38.9h7.49c.24,0,.43-.19.43-.43v-1.34c0-.24-.19-.43-.43-.43h-7.49c-.24,0-.43.19-.43.43v1.34c0,.24.19.43.43.43ZM7.99,43.29h7.49c.24,0,.43-.19.43-.43v-1.34c0-.24-.19-.43-.43-.43h-7.49c-.24,0-.43.19-.43.43v1.34c0,.24.19.43.43.43ZM17.62,43.29h2.48c.24,0,.43-.19.43-.43v-1.34c0-.24-.19-.43-.43-.43h-2.48c-.24,0-.43.19-.43.43v1.34c0,.24.19.43.43.43ZM34.86,38.9h2.48c.24,0,.43-.19.43-.43v-1.34c0-.24-.19-.43-.43-.43h-2.48c-.24,0-.43.19-.43.43v1.34c0,.24.19.43.43.43ZM17.62,38.9h2.48c.24,0,.43-.19.43-.43v-1.34c0-.24-.19-.43-.43-.43h-2.48c-.24,0-.43.19-.43.43v1.34c0,.24.19.43.43.43ZM80,33.47v13.07c0,.3-.28.58-.58.58h-2.73s-.03,0-.04,0c-.01,0-.03,0-.04,0H3.25s-.03,0-.04,0c-.01,0-.03,0-.04,0H.58c-.3,0-.58-.28-.58-.58v-13.07c0-.3.28-.58.58-.58h2.59s.03,0,.04,0c.01,0,.03,0,.04,0h73.36s.03,0,.04,0c.01,0,.03,0,.04,0h2.73c.3,0,.58.28.58.58ZM2.67,33.96h-1.59v12.07h1.59v-12.07ZM76.11,33.96H3.75v12.07h72.36v-12.07ZM78.92,33.96h-1.73v12.07h1.73v-12.07ZM7.99,38.9h7.49c.24,0,.43-.19.43-.43v-1.34c0-.24-.19-.43-.43-.43h-7.49c-.24,0-.43.19-.43.43v1.34c0,.24.19.43.43.43ZM25.23,43.29h7.49c.24,0,.43-.19.43-.43v-1.34c0-.24-.19-.43-.43-.43h-7.49c-.24,0-.43.19-.43.43v1.34c0,.24.19.43.43.43ZM34.86,43.29h2.48c.24,0,.43-.19.43-.43v-1.34c0-.24-.19-.43-.43-.43h-2.48c-.24,0-.43.19-.43.43v1.34c0,.24.19.43.43.43ZM25.23,38.9h7.49c.24,0,.43-.19.43-.43v-1.34c0-.24-.19-.43-.43-.43h-7.49c-.24,0-.43.19-.43.43v1.34c0,.24.19.43.43.43Z"/></g></svg>