<?xml version="1.0" encoding="UTF-8"?><svg fill="#FFFFFF" id="a" xmlns="http://www.w3.org/2000/svg" viewBox="0 0 80 80"><path d="M11.25,46.2962v3.7038c0,.41406,.33594,.75,.75,.75h8c.41406,0,.75-.33594,.75-.75v-3.7038c1.18335-.63135,2-1.86377,2-3.2962v-6c0-1.43243-.81665-2.66486-2-3.2962v-3.7038c0-.41406-.33594-.75-.75-.75H12c-.41406,0-.75,.33594-.75,.75v3.7038c-1.18335,.63135-2,1.86377-2,3.2962v6c0,1.43243,.81665,2.66486,2,3.2962Zm8,2.9538h-6.5v-2.5h6.5v2.5Zm-6.5-18.5h6.5v2.5h-6.5v-2.5Zm-2,6.25c0-1.24072,1.00977-2.25,2.25-2.25h6c1.24023,0,2.25,1.00928,2.25,2.25v6c0,1.24072-1.00977,2.25-2.25,2.25h-6c-1.24023,0-2.25-1.00928-2.25-2.25v-6Z"/><path d="M50,66.75c.41406,0,.75-.33594,.75-.75v-12c0-.41406-.33594-.75-.75-.75H30c-.41406,0-.75,.33594-.75,.75v12c0,.41406,.33594,.75,.75,.75h9.25v2.5h-3.25v1.5h8v-1.5h-3.25v-2.5h9.25Zm-19.25-1.5v-10.5h18.5v10.5H30.75Z"/><path d="M70.75,42c0-1.26685-.86523-2.32526-2.03247-2.64307-.33154-4.52454-4.10938-8.10693-8.71753-8.10693s-8.38599,3.5824-8.71753,8.10693c-1.16724,.31781-2.03247,1.37622-2.03247,2.64307v2c0,1.5166,1.2334,2.75,2.75,2.75h2c.41406,0,.75-.33594,.75-.75v-6c0-.41406-.33594-.75-.75-.75h-1.21094c.37646-3.64648,3.46631-6.5,7.21094-6.5s6.83447,2.85352,7.21094,6.5h-1.21094c-.41406,0-.75,.33594-.75,.75v6c0,.41406,.33594,.75,.75,.75h2c1.5166,0,2.75-1.2334,2.75-2.75v-2Zm-17.5-1.25v4.5h-1.25c-.68945,0-1.25-.56055-1.25-1.25v-2c0-.68945,.56055-1.25,1.25-1.25h1.25Zm16,3.25c0,.68945-.56055,1.25-1.25,1.25h-1.25v-4.5h1.25c.68945,0,1.25,.56055,1.25,1.25v2Z"/><path d="M52.75,24V14c0-1.5166-1.2334-2.75-2.75-2.75h-3.68945l-1.78027-1.78027c-.14062-.14062-.33105-.21973-.53027-.21973h-8c-.19922,0-.38965,.0791-.53027,.21973l-1.78027,1.78027h-3.68945c-1.5166,0-2.75,1.2334-2.75,2.75v10c0,1.5166,1.2334,2.75,2.75,2.75h20c1.5166,0,2.75-1.2334,2.75-2.75Zm-24,0V14c0-.68945,.56055-1.25,1.25-1.25h4c.19922,0,.38965-.0791,.53027-.21973l1.78027-1.78027h7.37891l1.78027,1.78027c.14062,.14062,.33105,.21973,.53027,.21973h4c.68945,0,1.25,.56055,1.25,1.25v10c0,.68945-.56055,1.25-1.25,1.25H30c-.68945,0-1.25-.56055-1.25-1.25Z"/><path d="M40,13.25c-2.61914,0-4.75,2.13086-4.75,4.75s2.13086,4.75,4.75,4.75,4.75-2.13086,4.75-4.75-2.13086-4.75-4.75-4.75Zm0,8c-1.79199,0-3.25-1.45801-3.25-3.25s1.45801-3.25,3.25-3.25,3.25,1.45801,3.25,3.25-1.45801,3.25-3.25,3.25Z"/><circle cx="48" cy="16" r="1"/></svg>