<svg viewBox="0 0 80 80" xmlns="http://www.w3.org/2000/svg" xmlns:xlink="http://www.w3.org/1999/xlink" id="icon_art" overflow="hidden"><style>
.MsftOfcThm_Background1_Fill_v2 {
 fill:#0D274D; 
}
</style>
<defs></defs><path d="M40 9.54C25.08 9.54 12.45 20.21 9.97 34.92 9.68 36.65 9.54 38.35 9.54 40 9.54 56.8 23.21 70.46 40 70.46 43.86 70.46 47.66 69.72 51.3 68.27 51.45 68.23 51.53 68.2 51.6 68.16 60.5 64.48 67.19 56.76 69.54 47.5 70.16 45.07 70.47 42.54 70.47 40 70.47 25.39 60.06 12.81 45.72 10.08L45.68 10.08C43.78 9.72 41.88 9.54 40.01 9.54ZM40 68.97C24.03 68.97 11.04 55.98 11.04 40.01 11.04 38.65 11.16 37.24 11.41 35.59L11.43 35.47 11.53 35.4C20.75 28.71 28.61 25.23 35.55 24.77L35.9 24.75 35.85 25.1C35.42 27.91 35.67 30.81 36.58 33.71 38.91 41.16 45.79 45.93 56.47 47.52L56.74 47.56 56.71 47.83C56.16 53.41 54.15 59.8 50.72 66.83L50.67 66.93 50.57 66.97C47.16 68.3 43.61 68.98 40.01 68.98ZM52.75 66.02 53.09 65.26C55.96 58.96 57.67 53.15 58.17 48.01L58.2 47.72 58.49 47.75C60.48 47.96 62.52 48.07 64.54 48.07 65.33 48.07 66.16 48.03 66.97 48L67.83 47.96 67.71 48.34C65.46 55.84 60.4 61.98 53.48 65.62L52.74 66.01ZM64.57 46.56C62.48 46.56 60.47 46.46 58.57 46.25L58.3 46.22 58.3 45.95C58.57 38.76 56.35 33.01 51.7 28.86 47.73 25.32 43.17 23.41 38.14 23.18L37.77 23.16 37.88 22.81C39.08 18.96 41.65 15.33 45.75 11.72L45.86 11.63 46 11.66C59.31 14.47 68.97 26.39 68.97 39.99 68.97 42.06 68.74 44.16 68.28 46.23L68.23 46.44 68.01 46.44C66.84 46.51 65.69 46.54 64.57 46.54ZM56.82 46.04 56.5 45.99C46.53 44.47 40.13 40.06 38 33.25 37.12 30.43 36.9 27.64 37.36 24.96L37.4 24.72 37.65 24.72C42.53 24.85 46.92 26.62 50.7 29.99 54.97 33.8 57.04 39.09 56.83 45.71L56.83 46.03ZM11.83 33.33 12.03 32.58C15.4 19.89 26.9 11.03 40 11.03 41.04 11.03 42.14 11.1 43.36 11.24L43.96 11.31 43.52 11.73C39.79 15.3 37.35 19.08 36.28 22.97L36.22 23.17 36.01 23.17C29.23 23.49 21.31 26.76 12.46 32.88L11.82 33.32Z" class="MsftOfcThm_Background1_Fill_v2" stroke="none" stroke-width="1" stroke-linecap="butt" stroke-linejoin="miter" stroke-miterlimit="4" fill="#0D274D" fill-opacity="1"/></svg>