<svg viewBox="0 0 80 80" xmlns="http://www.w3.org/2000/svg" xmlns:xlink="http://www.w3.org/1999/xlink" id="icon_art" overflow="hidden"><style>
.MsftOfcThm_Background1_Fill_v2 {
 fill:#0D274D; 
}
</style>
<defs></defs><path d="M25.99 38.5C24.55 38.5 23.16 38.99 22.04 39.91 20.57 41.1 19.73 42.87 19.73 44.76 19.73 46.65 20.29 48.04 21.39 49.13 23.25 50.97 26.02 51.02 26.33 51.02L47.76 51.02C47.76 51.02 49.58 50.77 51.41 49.61 53.05 48.57 55.01 46.57 55.01 42.92 55.01 40.73 54.11 38.61 52.53 37.09 51.07 35.69 49.16 34.89 47.14 34.84L47.11 34.84 47.11 34.82C46.16 33.06 44.76 31.58 43.04 30.55 41.32 29.51 39.35 28.96 37.36 28.96 31.88 28.96 27.18 33.05 26.44 38.48L26.44 38.52 26.39 38.52C26.25 38.51 26.11 38.5 25.97 38.5ZM26.35 49.52 26.35 49.52C26.14 49.52 23.89 49.49 22.44 48.05L22.44 48.05C21.64 47.26 21.23 46.15 21.23 44.76 21.23 43.37 21.87 41.98 22.99 41.07 23.84 40.38 24.9 40 25.99 40 26.32 40 26.65 40.03 26.97 40.1 27.19 40.14 27.41 40.1 27.58 39.96 27.75 39.83 27.86 39.63 27.87 39.41 28.17 34.39 32.34 30.45 37.37 30.45 41.03 30.45 44.41 32.59 45.98 35.91 46.11 36.19 46.36 36.34 46.68 36.34L46.68 36.34C48.48 36.27 50.18 36.91 51.49 38.17 52.79 39.43 53.51 41.11 53.51 42.92 53.51 48.38 48.27 49.41 47.67 49.51L26.35 49.51Z" class="MsftOfcThm_Background1_Fill_v2" stroke="none" stroke-width="1" stroke-linecap="butt" stroke-linejoin="miter" stroke-miterlimit="4" fill="#0D274D" fill-opacity="1"/><path d="M23.56 58.7C23.15 58.7 22.81 59.04 22.81 59.45 22.81 59.86 23.15 60.2 23.56 60.2L56.16 60.2C56.3 60.17 70.71 58.13 70.71 44.01 70.71 38.46 67.92 33.36 63.24 30.36 62.89 30.14 62.43 30.24 62.2 30.59 61.98 30.94 62.08 31.4 62.43 31.63 66.68 34.35 69.21 38.98 69.21 44.01 69.21 46.92 68.54 49.5 67.23 51.67 66.17 53.42 64.7 54.91 62.84 56.11 59.78 58.08 56.66 58.62 56.07 58.71L23.56 58.71Z" class="MsftOfcThm_Background1_Fill_v2" stroke="none" stroke-width="1" stroke-linecap="butt" stroke-linejoin="miter" stroke-miterlimit="4" fill="#0D274D" fill-opacity="1"/><path d="M52.39 32.86C53.01 33.13 53.66 33.27 54.33 33.27 56.28 33.27 58.05 32.11 58.83 30.33 59.91 27.85 58.77 24.96 56.29 23.89 55.09 23.37 53.76 23.34 52.54 23.82 51.32 24.3 50.37 25.22 49.85 26.42 49.33 27.62 49.31 28.95 49.79 30.17 50.27 31.39 51.19 32.34 52.39 32.86L52.39 32.86ZM54.34 31.76C53.89 31.76 53.43 31.67 52.99 31.48 52.16 31.12 51.52 30.46 51.19 29.61 50.86 28.77 50.87 27.84 51.23 27.01L51.27 27.03 51.23 27.01C51.59 26.18 52.26 25.54 53.1 25.2 53.5 25.04 53.92 24.96 54.34 24.96 54.81 24.96 55.26 25.06 55.69 25.24 56.52 25.6 57.16 26.26 57.49 27.11 57.82 27.95 57.81 28.88 57.45 29.71 56.9 30.99 55.64 31.75 54.33 31.75Z" class="MsftOfcThm_Background1_Fill_v2" stroke="none" stroke-width="1" stroke-linecap="butt" stroke-linejoin="miter" stroke-miterlimit="4" fill="#0D274D" fill-opacity="1"/><path d="M14.39 54.36C13.76 54.36 13.13 54.48 12.52 54.72 11.25 55.22 10.26 56.18 9.72 57.43 8.6 60.01 9.78 63.01 12.36 64.13 13 64.41 13.68 64.55 14.38 64.55L14.38 64.55C16.41 64.55 18.25 63.35 19.06 61.49 19.6 60.24 19.63 58.86 19.13 57.59 18.63 56.32 17.67 55.33 16.42 54.79L16.42 54.79C15.77 54.51 15.08 54.36 14.39 54.36ZM14.39 63.05C13.9 63.05 13.42 62.95 12.96 62.75 12.08 62.37 11.4 61.67 11.05 60.77 10.7 59.87 10.71 58.9 11.1 58.02 11.48 57.14 12.18 56.46 13.08 56.11 13.5 55.94 13.95 55.86 14.4 55.86 14.89 55.86 15.38 55.96 15.83 56.16 16.71 56.54 17.39 57.24 17.74 58.14 18.09 59.03 18.07 60.01 17.69 60.89L17.69 60.89C17.31 61.77 16.61 62.45 15.71 62.8 15.28 62.97 14.84 63.05 14.39 63.05Z" class="MsftOfcThm_Background1_Fill_v2" stroke="none" stroke-width="1" stroke-linecap="butt" stroke-linejoin="miter" stroke-miterlimit="4" fill="#0D274D" fill-opacity="1"/><path d="M16.93 27.05C17.45 27.28 18 27.39 18.56 27.39 20.2 27.39 21.68 26.42 22.33 24.92 22.9 23.61 22.74 22.11 21.91 20.92L21.86 20.85 21.97 20.85C22.14 20.85 22.29 20.81 22.41 20.72 24.45 19.19 30.15 16.96 34.43 16.96 39.38 16.96 44.18 18.73 47.94 21.95 48.08 22.07 48.25 22.13 48.43 22.13 48.65 22.13 48.86 22.03 49 21.87 49.27 21.56 49.23 21.08 48.92 20.81 44.88 17.36 39.74 15.46 34.43 15.46 29.78 15.46 23.77 17.82 21.51 19.52 21.34 19.65 21.23 19.85 21.22 20.09L21.22 20.18 21.15 20.12C20.82 19.85 20.51 19.66 20.2 19.52 19.19 19.08 18.08 19.06 17.05 19.47 16.03 19.87 15.23 20.65 14.79 21.66 14.35 22.67 14.33 23.78 14.74 24.8 15.14 25.82 15.92 26.62 16.93 27.06L16.93 27.06ZM18.57 25.89C18.22 25.89 17.86 25.82 17.53 25.67 16.89 25.39 16.4 24.88 16.14 24.23 15.88 23.58 15.9 22.87 16.17 22.23L16.17 22.23C16.45 21.59 16.96 21.1 17.61 20.84 18.25 20.59 18.97 20.6 19.61 20.87 20.25 21.15 20.74 21.66 21 22.31 21.26 22.96 21.24 23.67 20.97 24.31 20.69 24.95 20.18 25.44 19.53 25.7 19.22 25.82 18.9 25.88 18.57 25.88Z" class="MsftOfcThm_Background1_Fill_v2" stroke="none" stroke-width="1" stroke-linecap="butt" stroke-linejoin="miter" stroke-miterlimit="4" fill="#0D274D" fill-opacity="1"/></svg>