<svg viewBox="0 0 80 80" xmlns="http://www.w3.org/2000/svg" xmlns:xlink="http://www.w3.org/1999/xlink" id="icon_art" overflow="hidden"><style>
.MsftOfcThm_Background1_Fill_v2 {
 fill:#0D274D; 
}
</style>
<defs></defs><path d="M21.22 36.41C18.52 36.41 15.86 37.36 13.74 39.09 10.94 41.36 9.34 44.74 9.34 48.34 9.34 51.94 10.41 54.6 12.52 56.67 16.07 60.17 21.31 60.27 21.9 60.27L46.21 60.27C46.62 60.27 46.96 59.93 46.96 59.52 46.96 59.11 46.62 58.77 46.21 58.77L21.89 58.77C21.37 58.77 16.69 58.68 13.57 55.6 11.75 53.81 10.83 51.37 10.83 48.33 10.83 45.29 12.23 42.23 14.68 40.24 16.87 38.46 19.61 37.65 22.39 37.96 22.41 37.96 22.44 37.96 22.47 37.96 22.86 37.96 23.18 37.68 23.22 37.29 24.32 27.56 32.54 20.21 42.34 20.21 48.96 20.21 55.04 23.57 58.6 29.19 58.82 29.54 59.28 29.65 59.64 29.42 59.81 29.31 59.93 29.15 59.97 28.95 60.01 28.75 59.97 28.55 59.87 28.39 56.04 22.33 49.48 18.71 42.34 18.71 37.38 18.71 32.58 20.49 28.82 23.71 25.07 26.92 22.59 31.38 21.84 36.25L21.82 36.4 21.67 36.4C21.52 36.4 21.37 36.39 21.22 36.39Z" class="MsftOfcThm_Background1_Fill_v2" stroke="none" stroke-width="1" stroke-linecap="butt" stroke-linejoin="miter" stroke-miterlimit="4" fill="#0D274D" fill-opacity="1"/><path d="M52.08 42.1C51.66 42.1 51.32 42.44 51.32 42.86L51.32 58.72C51.32 59.14 51.66 59.48 52.08 59.48L69.9 59.48C70.32 59.48 70.66 59.14 70.66 58.72L70.66 42.86C70.66 42.44 70.32 42.1 69.9 42.1L67.16 42.1 67.16 39.8C67.16 36.4 64.39 33.63 60.99 33.63 57.59 33.63 54.82 36.4 54.82 39.8L54.82 42.1 52.08 42.1ZM69.14 57.96 52.84 57.96 52.84 43.63 69.14 43.63 69.14 57.96ZM65.63 42.1 56.35 42.1 56.35 39.8C56.35 37.24 58.43 35.16 60.99 35.16 63.55 35.16 65.63 37.24 65.63 39.8L65.63 42.1Z" class="MsftOfcThm_Background1_Fill_v2" stroke="none" stroke-width="1" stroke-linecap="butt" stroke-linejoin="miter" stroke-miterlimit="4" fill="#0D274D" fill-opacity="1"/><path d="M61.03 47.61C60.61 47.61 60.27 47.95 60.27 48.37L60.27 53.22C60.27 53.64 60.61 53.98 61.03 53.98 61.45 53.98 61.79 53.64 61.79 53.22L61.79 48.37C61.79 47.95 61.45 47.61 61.03 47.61Z" class="MsftOfcThm_Background1_Fill_v2" stroke="none" stroke-width="1" stroke-linecap="butt" stroke-linejoin="miter" stroke-miterlimit="4" fill="#0D274D" fill-opacity="1"/></svg>