<svg viewBox="0 0 80 80" xmlns="http://www.w3.org/2000/svg" xmlns:xlink="http://www.w3.org/1999/xlink" id="icon_art" overflow="hidden"><style>
.MsftOfcThm_Background1_Fill_v2 {
 fill:#FFFFFF; 
}
</style>
<defs></defs><path d="M56.17 37.82C52.36 37.82 49.25 40.92 49.25 44.74 49.25 48.56 52.35 51.66 56.17 51.66 59.99 51.66 63.09 48.56 63.09 44.74 63.09 40.92 59.99 37.82 56.17 37.82ZM61.57 44.74C61.57 47.72 59.15 50.14 56.17 50.14 53.19 50.14 50.77 47.72 50.77 44.74 50.77 44.6 50.79 44.47 50.81 44.34 50.81 44.28 50.83 44.22 50.83 44.17L50.85 43.99 50.95 44.13C51.57 44.99 52.57 45.51 53.63 45.51 55.45 45.51 56.94 44.03 56.94 42.21 56.94 41.16 56.42 40.16 55.56 39.53L55.42 39.43 55.6 39.41 55.69 39.41C55.69 39.41 55.74 39.39 55.77 39.39L55.77 39.39C55.9 39.37 56.04 39.35 56.18 39.35 59.16 39.35 61.58 41.77 61.58 44.75ZM51.85 42.2C51.85 41.22 52.65 40.41 53.64 40.41 54.63 40.41 55.43 41.21 55.43 42.2 55.43 43.19 54.63 43.98 53.64 43.98 52.65 43.98 51.85 43.18 51.85 42.2Z" class="MsftOfcThm_Background1_Fill_v2" stroke="none" stroke-width="1" stroke-linecap="butt" stroke-linejoin="miter" stroke-miterlimit="4" fill="#FFFFFF" fill-opacity="1"/><path d="M56.17 30.17C48.13 30.17 41.6 36.71 41.6 44.74 41.6 52.77 48.14 59.31 56.17 59.31 64.2 59.31 70.74 52.77 70.74 44.74 70.74 36.71 64.2 30.17 56.17 30.17ZM56.17 57.81C48.97 57.81 43.11 51.95 43.11 44.75 43.11 37.55 48.97 31.69 56.17 31.69 63.37 31.69 69.23 37.55 69.23 44.75 69.23 51.95 63.37 57.81 56.17 57.81Z" class="MsftOfcThm_Background1_Fill_v2" stroke="none" stroke-width="1" stroke-linecap="butt" stroke-linejoin="miter" stroke-miterlimit="4" fill="#FFFFFF" fill-opacity="1"/><path d="M20.1 36.71C17.64 36.71 15.21 37.58 13.28 39.15 10.73 41.22 9.27 44.3 9.27 47.59 9.27 50.88 10.25 53.3 12.17 55.19 15.4 58.38 20.18 58.47 20.71 58.47L42.74 58.47C43.15 58.47 43.49 58.13 43.49 57.72 43.49 57.31 43.15 56.97 42.74 56.97L20.71 56.97C20.24 56.97 16.03 56.89 13.22 54.12 11.59 52.51 10.76 50.32 10.76 47.59 10.76 44.86 12.02 42.1 14.22 40.31 16.19 38.71 18.65 37.98 21.15 38.26 21.18 38.26 21.2 38.26 21.23 38.26 21.61 38.26 21.94 37.97 21.98 37.59 22.97 28.81 30.39 22.18 39.24 22.18 43.79 22.18 48.08 23.92 51.33 27.09L51.33 27.09 51.39 27.15C51.54 27.31 51.73 27.4 51.94 27.4 52.35 27.4 52.69 27.06 52.69 26.65 52.69 26.44 52.6 26.24 52.43 26.1L52.37 26.05 52.37 26.05C48.84 22.6 44.18 20.7 39.23 20.7 34.72 20.7 30.35 22.31 26.94 25.24 23.53 28.16 21.28 32.21 20.59 36.65L20.59 36.72 20.51 36.72C20.39 36.72 20.25 36.72 20.1 36.72Z" class="MsftOfcThm_Background1_Fill_v2" stroke="none" stroke-width="1" stroke-linecap="butt" stroke-linejoin="miter" stroke-miterlimit="4" fill="#FFFFFF" fill-opacity="1"/></svg>