<svg viewBox="0 0 80 80" xmlns="http://www.w3.org/2000/svg" xmlns:xlink="http://www.w3.org/1999/xlink" id="Layer_1" overflow="hidden"><style>
.MsftOfcThm_Background1_Fill_v2 {
 fill:#0D274D; 
}
</style>
<defs></defs><path d="M63.25 47 63.25 51.84C63.25 56.4 60.58 60.47 56.45 62.22L40 69.18 23.55 62.22C19.42 60.47 16.75 56.4 16.75 51.84L16.75 10.75 63.25 10.75 63.25 28.07 64.75 28.07C64.75 28.07 64.75 10 64.75 10 64.75 9.59 64.41 9.25 64 9.25L16 9.25C15.59 9.25 15.25 9.59 15.25 10L15.25 51.84C15.25 57 18.28 61.62 22.97 63.6L39.71 70.68C39.8 70.72 39.9 70.74 40 70.74 40.1 70.74 40.2 70.72 40.29 70.68L57.03 63.6C61.72 61.62 64.75 57 64.75 51.84L64.75 47 63.25 47Z" class="MsftOfcThm_Background1_Fill_v2" stroke="none" stroke-width="0" stroke-linecap="butt" stroke-linejoin="miter" stroke-miterlimit="4" fill="#0D274D" fill-opacity="1"/><path d="M43.65 52 41.78 52C40.38 52 39.25 50.87 39.25 49.47L39.25 39.03C39.25 37.63 40.38 36.5 41.78 36.5L52.23 36.5C53.63 36.5 54.76 37.63 54.76 39.03L54.76 40.99 53.26 40.99 53.26 39.03C53.26 38.46 52.8 38 52.23 38L41.78 38C41.21 38 40.75 38.46 40.75 39.03L40.75 49.47C40.75 50.04 41.21 50.5 41.78 50.5L43.65 50.5 43.65 52Z" class="MsftOfcThm_Background1_Fill_v2" stroke="none" stroke-width="0" stroke-linecap="butt" stroke-linejoin="miter" stroke-miterlimit="4" fill="#0D274D" fill-opacity="1"/><path d="M39.53 47.94 37.77 47.94C36.38 47.94 35.25 46.81 35.24 45.42L35.24 35.02C35.24 33.63 36.37 32.5 37.77 32.5L48.22 32.5C49.61 32.5 50.74 33.63 50.75 35.02L50.75 37.03 49.25 37.03 49.25 35.02C49.25 34.45 48.79 34 48.22 34L37.77 34C37.2 34 36.74 34.46 36.74 35.02L36.74 45.42C36.74 45.99 37.2 46.44 37.77 46.44L39.53 46.44 39.53 47.94Z" class="MsftOfcThm_Background1_Fill_v2" stroke="none" stroke-width="0" stroke-linecap="butt" stroke-linejoin="miter" stroke-miterlimit="4" fill="#0D274D" fill-opacity="1"/><path d="M56.02 56 45.98 56C44.47 56 43.25 54.78 43.25 53.27L43.25 43.23C43.25 41.72 44.47 40.5 45.98 40.5L56.02 40.5C57.53 40.5 58.75 41.72 58.75 43.23L58.75 53.27C58.75 54.78 57.53 56 56.02 56ZM45.98 42C45.3 42 44.75 42.55 44.75 43.23L44.75 53.27C44.75 53.95 45.3 54.5 45.98 54.5L56.02 54.5C56.7 54.5 57.25 53.95 57.25 53.27L57.25 43.23C57.25 42.55 56.7 42 56.02 42L45.98 42Z" class="MsftOfcThm_Background1_Fill_v2" stroke="none" stroke-width="0" stroke-linecap="butt" stroke-linejoin="miter" stroke-miterlimit="4" fill="#0D274D" fill-opacity="1"/><path d="M33.25 43.5 30 43.5C26 43.5 22.75 40.25 22.75 36.25 22.75 32.25 26 29 30 29 31.09 29 32.15 29.24 33.15 29.73 33.34 29.82 33.56 29.83 33.76 29.75 33.96 29.67 34.11 29.51 34.18 29.31 35.98 24.34 40.73 21 46 21 52.53 21 57.92 25.9 58.52 32.4 58.55 32.67 58.72 32.91 58.97 33.02 59.22 33.13 59.51 33.09 59.73 32.92 60.79 32.1 62.04 31.66 63.33 31.66 66.59 31.66 69.25 34.31 69.25 37.58 69.25 40.85 66.6 43.5 63.33 43.5L60.75 43.5 60.75 45 63.33 45C67.42 45 70.75 41.67 70.75 37.58 70.75 33.49 67.42 30.16 63.33 30.16 62.11 30.16 60.92 30.47 59.85 31.05 58.66 24.38 52.9 19.49 46 19.49 40.36 19.49 35.26 22.9 33.06 28.05 32.08 27.68 31.05 27.49 30 27.49 25.17 27.49 21.25 31.41 21.25 36.24 21.25 41.07 25.17 44.99 30 44.99L33.25 44.99" class="MsftOfcThm_Background1_Fill_v2" stroke="none" stroke-width="0" stroke-linecap="butt" stroke-linejoin="miter" stroke-miterlimit="4" fill="#0D274D" fill-opacity="1"/></svg>