<svg viewBox="0 0 80 80" xmlns="http://www.w3.org/2000/svg" xmlns:xlink="http://www.w3.org/1999/xlink" id="icons" overflow="hidden"><style>
.MsftOfcThm_Background1_Fill_v2 {
 fill:#FFFFFF; 
}
</style>
<defs></defs><path d="M30.44 47.4C33.75 47.4 36.44 44.71 36.44 41.4 36.44 40.37 36.18 39.39 35.72 38.54L38.97 35.29 37.91 34.23 34.82 37.32C33.72 36.14 32.17 35.4 30.44 35.4 27.13 35.4 24.44 38.09 24.44 41.4 24.44 44.71 27.13 47.4 30.44 47.4ZM30.44 36.9C31.76 36.9 32.93 37.48 33.76 38.38L30.44 41.7 28.22 39.48 27.16 40.54 29.91 43.29C30.06 43.44 30.25 43.51 30.44 43.51 30.63 43.51 30.82 43.44 30.97 43.29L34.59 39.67C34.81 40.2 34.94 40.79 34.94 41.4 34.94 43.88 32.92 45.9 30.44 45.9 27.96 45.9 25.94 43.88 25.94 41.4 25.94 38.92 27.96 36.9 30.44 36.9Z" class="MsftOfcThm_Background1_Fill_v2" stroke="none" stroke-width="0" stroke-linecap="butt" stroke-linejoin="miter" stroke-miterlimit="4" stroke-opacity="1" fill="#FFFFFF" fill-opacity="1"/><path d="M60 9.25 25.25 9.25 25.25 10.75 60 10.75C64 10.75 67.25 14 67.25 18L67.25 62C67.25 66 64 69.25 60 69.25L25.25 69.25 25.25 70.75 60 70.75C64.83 70.75 68.75 66.82 68.75 62L68.75 18C68.75 13.18 64.83 9.25 60 9.25Z" class="MsftOfcThm_Background1_Fill_v2" stroke="none" stroke-width="0" stroke-linecap="butt" stroke-linejoin="miter" stroke-miterlimit="4" stroke-opacity="1" fill="#FFFFFF" fill-opacity="1"/><path d="M54.75 65.25 18 65.25C15.11 65.25 12.75 62.9 12.75 60L12.75 52.4 47.08 52.4C51.31 52.4 54.75 48.96 54.75 44.73 54.75 40.5 51.31 37.06 47.08 37.06 46.09 37.06 45.11 37.26 44.2 37.63 42.5 30.55 35.58 25.87 28.28 27.09 23.71 27.85 19.88 30.75 17.92 34.9 17.09 34.64 16.22 34.51 15.34 34.51L15.34 34.51C14.45 34.51 13.59 34.64 12.75 34.89L12.75 19.99C12.75 17.09 15.11 14.74 18 14.74L54.75 14.74 54.75 13.24 18 13.24C14.28 13.24 11.25 16.27 11.25 19.99L11.25 59.99C11.25 63.71 14.28 66.74 18 66.74L54.75 66.74 54.75 65.24ZM15.34 36.02 15.34 36.02C16.27 36.02 17.18 36.19 18.05 36.54 18.43 36.69 18.86 36.51 19.02 36.13 20.68 32.11 24.24 29.28 28.53 28.57 35.32 27.44 41.79 32.06 42.92 38.86 42.96 39.1 43.12 39.31 43.34 39.42 43.57 39.52 43.83 39.51 44.04 39.39 44.96 38.85 46.01 38.56 47.08 38.56 50.48 38.56 53.25 41.33 53.25 44.73 53.25 48.13 50.48 50.9 47.08 50.9L12.75 50.9 12.75 36.49C13.58 36.18 14.44 36.02 15.34 36.02Z" class="MsftOfcThm_Background1_Fill_v2" stroke="none" stroke-width="0" stroke-linecap="butt" stroke-linejoin="miter" stroke-miterlimit="4" stroke-opacity="1" fill="#FFFFFF" fill-opacity="1"/><path d="M56 61.25 25.25 61.25 25.25 62.75 56 62.75C58.62 62.75 60.75 60.62 60.75 58L60.75 22C60.75 19.38 58.62 17.25 56 17.25L25.25 17.25 25.25 18.75 56 18.75C57.79 18.75 59.25 20.21 59.25 22L59.25 58C59.25 59.79 57.79 61.25 56 61.25Z" class="MsftOfcThm_Background1_Fill_v2" stroke="none" stroke-width="0" stroke-linecap="butt" stroke-linejoin="miter" stroke-miterlimit="4" stroke-opacity="1" fill="#FFFFFF" fill-opacity="1"/></svg>