<svg viewBox="0 0 80 80" xmlns="http://www.w3.org/2000/svg" xmlns:xlink="http://www.w3.org/1999/xlink" id="icons" overflow="hidden"><style>
.MsftOfcThm_Background1_Fill_v2 {
 fill:#FFFFFF; 
}
</style>
<defs></defs><path d="M40 48.64C42.07 48.64 43.75 46.96 43.75 44.89 43.75 42.82 42.07 41.14 40 41.14 37.93 41.14 36.25 42.82 36.25 44.89 36.25 46.96 37.93 48.64 40 48.64ZM40 42.64C41.24 42.64 42.25 43.65 42.25 44.89 42.25 46.13 41.24 47.14 40 47.14 38.76 47.14 37.75 46.13 37.75 44.89 37.75 43.65 38.76 42.64 40 42.64Z" class="MsftOfcThm_Background1_Fill_v2" stroke="none" stroke-width="0" stroke-linecap="butt" stroke-linejoin="miter" stroke-miterlimit="4" stroke-opacity="1" fill="#FFFFFF" fill-opacity="1"/><path d="M56.47 21.47 53.38 24.56C52.28 23.38 50.73 22.64 49 22.64 45.69 22.64 43 25.33 43 28.64 43 31.95 45.69 34.64 49 34.64 52.31 34.64 55 31.95 55 28.64 55 27.61 54.74 26.63 54.28 25.78L57.53 22.53 56.47 21.47ZM53.5 28.64C53.5 31.12 51.48 33.14 49 33.14 46.52 33.14 44.5 31.12 44.5 28.64 44.5 26.16 46.52 24.14 49 24.14 50.32 24.14 51.49 24.72 52.32 25.62L49 28.94 46.78 26.72 45.72 27.78 48.47 30.53C48.62 30.68 48.81 30.75 49 30.75 49.19 30.75 49.38 30.68 49.53 30.53L53.15 26.91C53.37 27.44 53.5 28.03 53.5 28.64Z" class="MsftOfcThm_Background1_Fill_v2" stroke="none" stroke-width="0" stroke-linecap="butt" stroke-linejoin="miter" stroke-miterlimit="4" stroke-opacity="1" fill="#FFFFFF" fill-opacity="1"/><rect x="26.75" y="51" width="1.5" height="7" class="MsftOfcThm_Background1_Fill_v2" stroke="none" stroke-width="0" stroke-linecap="butt" stroke-linejoin="miter" stroke-miterlimit="4" stroke-opacity="1" fill="#FFFFFF" fill-opacity="1"/><path d="M32 37.25 23 37.25C22.59 37.25 22.25 37.59 22.25 38L22.25 62C22.25 62.41 22.59 62.75 23 62.75L35.88 62.75C35.88 62.75 35.95 62.77 36 62.77 36.05 62.77 36.08 62.75 36.12 62.75L43.89 62.75C43.89 62.75 43.96 62.77 44.01 62.77 44.06 62.77 44.09 62.75 44.13 62.75L56.01 62.75C58.63 62.75 60.76 60.62 60.76 58L60.76 22C60.76 19.38 58.63 17.25 56.01 17.25L25.26 17.25 25.26 18.75 56.01 18.75C57.8 18.75 59.26 20.21 59.26 22L59.26 58C59.26 59.79 57.8 61.25 56.01 61.25L44.76 61.25 44.76 55.02C44.76 52.4 42.63 50.27 40.01 50.27 37.39 50.27 35.26 52.4 35.26 55.02L35.26 61.25 32.76 61.25 32.76 38C32.76 37.59 32.42 37.25 32.01 37.25ZM25.25 61.25 23.75 61.25 23.75 38.75 31.25 38.75 31.25 61.25 25.25 61.25ZM36.75 55.02C36.75 53.23 38.21 51.77 40 51.77 41.79 51.77 43.25 53.23 43.25 55.02L43.25 61.25 36.75 61.25 36.75 55.02Z" class="MsftOfcThm_Background1_Fill_v2" stroke="none" stroke-width="0" stroke-linecap="butt" stroke-linejoin="miter" stroke-miterlimit="4" stroke-opacity="1" fill="#FFFFFF" fill-opacity="1"/><circle cx="27.5" cy="43" r="1" class="MsftOfcThm_Background1_Fill_v2" stroke="none" stroke-width="0" stroke-linecap="butt" stroke-linejoin="miter" stroke-miterlimit="4" stroke-opacity="1" fill="#FFFFFF" fill-opacity="1"/><circle cx="27.5" cy="47" r="1" class="MsftOfcThm_Background1_Fill_v2" stroke="none" stroke-width="0" stroke-linecap="butt" stroke-linejoin="miter" stroke-miterlimit="4" stroke-opacity="1" fill="#FFFFFF" fill-opacity="1"/><path d="M60 9.25 25.25 9.25 25.25 10.75 60 10.75C64 10.75 67.25 14 67.25 18L67.25 62C67.25 66 64 69.25 60 69.25L25.25 69.25 25.25 70.75 60 70.75C64.83 70.75 68.75 66.82 68.75 62L68.75 18C68.75 13.18 64.83 9.25 60 9.25Z" class="MsftOfcThm_Background1_Fill_v2" stroke="none" stroke-width="0" stroke-linecap="butt" stroke-linejoin="miter" stroke-miterlimit="4" stroke-opacity="1" fill="#FFFFFF" fill-opacity="1"/><path d="M54.75 65.25 18 65.25C15.11 65.25 12.75 62.9 12.75 60L12.75 52.4 19 52.4C19.41 52.4 19.75 52.06 19.75 51.65 19.75 51.24 19.41 50.9 19 50.9L12.75 50.9 12.75 36.49C13.58 36.18 14.44 36.02 15.34 36.02L15.34 36.02C16.27 36.02 17.18 36.19 18.05 36.54 18.43 36.69 18.86 36.51 19.02 36.13 20.68 32.11 24.24 29.28 28.53 28.57 35.33 27.44 41.79 32.06 42.92 38.86 42.96 39.1 43.12 39.31 43.34 39.42 43.57 39.52 43.83 39.51 44.04 39.39 44.96 38.85 46.01 38.56 47.08 38.56 50.48 38.56 53.25 41.33 53.25 44.73 53.25 48.13 50.48 50.9 47.08 50.9L47 50.9 47 51.65 47.08 52.4C51.31 52.4 54.75 48.96 54.75 44.73 54.75 40.5 51.31 37.06 47.08 37.06 46.09 37.06 45.11 37.26 44.2 37.63 42.5 30.55 35.58 25.87 28.28 27.09 23.71 27.85 19.88 30.75 17.92 34.9 17.09 34.64 16.22 34.51 15.34 34.51L15.34 34.51C14.45 34.51 13.59 34.64 12.75 34.89L12.75 19.99C12.75 17.09 15.11 14.74 18 14.74L54.75 14.74 54.75 13.24 18 13.24C14.28 13.24 11.25 16.27 11.25 19.99L11.25 59.99C11.25 63.71 14.28 66.74 18 66.74L54.75 66.74 54.75 65.24Z" class="MsftOfcThm_Background1_Fill_v2" stroke="none" stroke-width="0" stroke-linecap="butt" stroke-linejoin="miter" stroke-miterlimit="4" stroke-opacity="1" fill="#FFFFFF" fill-opacity="1"/></svg>