<svg viewBox="0 0 80 80" xmlns="http://www.w3.org/2000/svg" xmlns:xlink="http://www.w3.org/1999/xlink" id="icon_art" overflow="hidden"><style>
.MsftOfcThm_Background1_Fill_v2 {
 fill:#FFFFFF; 
}
</style>
<defs></defs><path d="M52.81 28.83C45.33 28.83 38.59 33.57 36.02 40.62 35.98 40.69 35.96 40.76 35.94 40.84 35.27 42.76 34.93 44.73 34.93 46.7 34.93 48.67 35.27 50.64 35.94 52.56 35.96 52.65 35.98 52.72 36.02 52.78 38.59 59.84 45.33 64.58 52.81 64.58 60.29 64.58 67.03 59.84 69.6 52.79 69.64 52.72 69.66 52.66 69.68 52.57L69.68 52.57C70.35 50.65 70.68 48.68 70.68 46.71 70.68 44.74 70.34 42.77 69.68 40.85 69.66 40.76 69.64 40.69 69.6 40.63 67.03 33.57 60.29 28.83 52.81 28.83ZM52.81 63.08C49.76 63.08 46.95 59.22 45.67 53.24L45.65 53.16 59.96 53.16 59.94 53.24C58.66 59.22 55.86 63.08 52.8 63.08ZM48.36 62.46 48.13 62.39C43.51 61.01 39.75 57.68 37.8 53.25L37.76 53.16 44.11 53.16 44.11 53.21C44.88 57.06 46.33 60.28 48.19 62.28L48.35 62.45ZM57.26 62.46 57.42 62.29C59.28 60.29 60.73 57.06 61.49 53.22L61.49 53.17 67.85 53.17 67.81 53.26C65.87 57.69 62.1 61.02 57.48 62.4L57.25 62.47ZM68.42 51.66 61.76 51.66 61.76 51.59C62 49.97 62.12 48.33 62.12 46.7 62.12 45.07 62 43.43 61.77 41.81L61.77 41.74 68.42 41.74 68.42 41.79C68.94 43.38 69.19 45.04 69.19 46.71 69.19 48.38 68.94 50.03 68.43 51.63L68.43 51.68ZM60.23 51.66 45.37 51.66 45.37 51.6C45.11 49.99 44.99 48.34 44.99 46.69 44.99 45.04 45.12 43.39 45.37 41.78L45.37 41.72 60.24 41.72 60.24 41.78C60.5 43.38 60.62 45.03 60.62 46.69 60.62 48.35 60.49 49.99 60.24 51.6L60.24 51.66ZM43.84 51.66 37.18 51.66 37.18 51.61C36.66 50.02 36.41 48.36 36.41 46.69 36.41 45.02 36.66 43.37 37.17 41.77L37.17 41.72 43.84 41.72 43.84 41.79C43.6 43.41 43.48 45.06 43.48 46.68 43.48 48.3 43.6 49.94 43.83 51.57L43.83 51.64ZM67.85 40.24 61.5 40.24 61.5 40.19C60.73 36.34 59.28 33.12 57.42 31.12L57.26 30.95 57.49 31.02C62.11 32.4 65.87 35.73 67.82 40.16L67.86 40.25ZM59.96 40.24 45.65 40.24 45.67 40.16C46.95 34.18 49.75 30.32 52.81 30.32 55.87 30.32 58.66 34.18 59.95 40.16L59.97 40.24ZM44.11 40.24 37.76 40.24 37.8 40.15C39.74 35.72 43.5 32.39 48.13 31.01L48.36 30.94 48.2 31.11C46.34 33.11 44.89 36.34 44.12 40.18L44.12 40.23Z" class="MsftOfcThm_Background1_Fill_v2" stroke="none" stroke-width="1" stroke-linecap="butt" stroke-linejoin="miter" stroke-miterlimit="4" fill="#FFFFFF" fill-opacity="1"/><path d="M14.96 41.56C14.77 41.56 14.57 41.63 14.43 41.78 14.14 42.07 14.14 42.55 14.43 42.84L18.34 46.71 18.29 46.76 14.42 50.59C14.13 50.88 14.13 51.36 14.42 51.65 14.56 51.79 14.75 51.87 14.95 51.87 15.15 51.87 15.33 51.79 15.48 51.65L19.93 47.24C20.07 47.1 20.15 46.91 20.15 46.71 20.15 46.51 20.07 46.32 19.93 46.18L15.48 41.77C15.34 41.63 15.15 41.56 14.95 41.56Z" class="MsftOfcThm_Background1_Fill_v2" stroke="none" stroke-width="1" stroke-linecap="butt" stroke-linejoin="miter" stroke-miterlimit="4" fill="#FFFFFF" fill-opacity="1"/><path d="M10.06 41.56C9.87 41.56 9.67 41.63 9.53 41.78 9.24 42.07 9.24 42.55 9.53 42.84L13.44 46.71 13.39 46.76 9.52 50.59C9.23 50.88 9.23 51.36 9.52 51.65 9.66 51.79 9.85 51.87 10.05 51.87 10.25 51.87 10.43 51.79 10.58 51.65L15.03 47.24C15.17 47.1 15.25 46.91 15.25 46.71 15.25 46.51 15.17 46.32 15.03 46.18L10.58 41.77C10.44 41.63 10.25 41.56 10.05 41.56Z" class="MsftOfcThm_Background1_Fill_v2" stroke="none" stroke-width="1" stroke-linecap="butt" stroke-linejoin="miter" stroke-miterlimit="4" fill="#FFFFFF" fill-opacity="1"/><path d="M31.9 14.29C29.32 14.29 26.88 15.67 25.53 17.89L25.51 17.92 25.48 17.92C24.23 18.05 23.04 18.6 22.13 19.47 21.01 20.55 20.4 22 20.4 23.55 20.4 27.45 23.71 28.95 25.46 29.2L32.84 29.2 32.75 29.31C28.56 34.13 26.25 40.31 26.25 46.72 26.25 53.82 29.01 60.49 34.03 65.51 34.17 65.65 34.36 65.73 34.56 65.73 34.76 65.73 34.95 65.65 35.09 65.51 35.38 65.22 35.38 64.74 35.09 64.45 30.4 59.76 27.8 53.52 27.76 46.87 27.72 40.23 30.25 33.97 34.87 29.23L34.89 29.21 38.66 29.21C39.02 29.21 40.86 29.15 42.17 27.86 42.98 27.06 43.4 25.99 43.4 24.68 43.4 23.31 42.79 22.03 41.73 21.16 41.01 20.57 40.14 20.23 39.23 20.16L39.18 20.16 39.18 20.11C38.41 16.74 35.35 14.3 31.9 14.3ZM25.67 27.71C25.51 27.69 21.9 27.13 21.9 23.54 21.9 22.4 22.35 21.33 23.18 20.54 23.94 19.81 24.93 19.4 25.98 19.38L26.42 19.38 26.63 18.98C27.65 17.04 29.72 15.78 31.91 15.78 34.9 15.78 37.44 18.02 37.81 20.98L37.9 21.69 38.61 21.63C39.4 21.56 40.17 21.8 40.79 22.3 41.5 22.88 41.91 23.74 41.91 24.66 41.91 25.58 41.65 26.25 41.13 26.77 40.2 27.69 38.73 27.7 38.67 27.7L25.68 27.7Z" class="MsftOfcThm_Background1_Fill_v2" stroke="none" stroke-width="1" stroke-linecap="butt" stroke-linejoin="miter" stroke-miterlimit="4" fill="#FFFFFF" fill-opacity="1"/></svg>