<svg viewBox="0 0 80 80" xmlns="http://www.w3.org/2000/svg" xmlns:xlink="http://www.w3.org/1999/xlink" id="icon_art" overflow="hidden"><style>
.MsftOfcThm_Background1_Fill_v2 {
 fill:#0D274D; 
}
</style>
<defs></defs><path d="M52.81 22.13C45.33 22.13 38.59 26.87 36.02 33.92 35.98 33.99 35.96 34.05 35.94 34.14 35.27 36.06 34.93 38.03 34.93 40 34.93 41.97 35.27 43.94 35.94 45.86 35.96 45.95 35.98 46.02 36.02 46.08 38.59 53.14 45.33 57.88 52.81 57.88 60.29 57.88 67.03 53.14 69.6 46.09 69.64 46.02 69.66 45.96 69.68 45.87L69.68 45.87C70.35 43.95 70.68 41.98 70.68 40.01 70.68 38.04 70.34 36.07 69.68 34.15 69.66 34.06 69.64 33.99 69.6 33.93 67.03 26.87 60.29 22.13 52.81 22.13ZM52.81 56.38C49.76 56.38 46.95 52.52 45.67 46.54L45.65 46.46 59.96 46.46 59.94 46.54C58.66 52.52 55.86 56.38 52.8 56.38ZM48.36 55.76 48.13 55.69C43.51 54.31 39.75 50.98 37.8 46.55L37.76 46.46 44.11 46.46 44.11 46.51C44.88 50.36 46.33 53.58 48.19 55.58L48.35 55.75ZM57.26 55.76 57.42 55.59C59.28 53.59 60.73 50.36 61.49 46.52L61.49 46.47 67.85 46.47 67.81 46.56C65.87 50.99 62.1 54.32 57.48 55.7L57.25 55.77ZM68.42 44.96 61.76 44.96 61.76 44.89C62 43.27 62.12 41.63 62.12 40 62.12 38.37 62 36.73 61.77 35.11L61.77 35.04 68.42 35.04 68.42 35.09C68.94 36.68 69.19 38.34 69.19 40.01 69.19 41.68 68.94 43.33 68.43 44.93L68.43 44.98ZM60.23 44.96 45.37 44.96 45.37 44.9C45.11 43.29 44.99 41.64 44.99 39.99 44.99 38.34 45.12 36.69 45.37 35.08L45.37 35.02 60.24 35.02 60.24 35.08C60.5 36.68 60.62 38.33 60.62 39.99 60.62 41.65 60.49 43.29 60.24 44.9L60.24 44.96ZM43.84 44.96 37.18 44.96 37.18 44.91C36.66 43.32 36.41 41.66 36.41 39.99 36.41 38.32 36.66 36.67 37.17 35.07L37.17 35.02 43.84 35.02 43.84 35.09C43.6 36.71 43.48 38.36 43.48 39.98 43.48 41.6 43.6 43.24 43.83 44.87L43.83 44.94ZM67.85 33.54 61.5 33.54 61.5 33.49C60.73 29.64 59.28 26.42 57.42 24.42L57.26 24.25 57.49 24.32C62.11 25.7 65.87 29.03 67.82 33.46L67.86 33.55ZM59.96 33.54 45.65 33.54 45.67 33.46C46.95 27.48 49.75 23.62 52.81 23.62 55.87 23.62 58.67 27.48 59.95 33.46L59.97 33.54ZM44.11 33.54 37.76 33.54 37.8 33.45C39.74 29.02 43.5 25.69 48.13 24.31L48.36 24.24 48.2 24.41C46.34 26.41 44.89 29.64 44.12 33.48L44.12 33.53Z" class="MsftOfcThm_Background1_Fill_v2" stroke="none" stroke-width="1" stroke-linecap="butt" stroke-linejoin="miter" stroke-miterlimit="4" fill="#0D274D" fill-opacity="1"/><path d="M14.96 34.85C14.77 34.85 14.57 34.92 14.43 35.07 14.14 35.36 14.14 35.84 14.43 36.13L18.34 40 18.29 40.05 14.42 43.88C14.13 44.17 14.13 44.65 14.42 44.94 14.56 45.08 14.75 45.16 14.95 45.16 15.15 45.16 15.33 45.08 15.48 44.94L19.93 40.53C20.07 40.39 20.15 40.2 20.15 40 20.15 39.8 20.07 39.61 19.93 39.47L15.48 35.06C15.33 34.92 15.14 34.85 14.95 34.85Z" class="MsftOfcThm_Background1_Fill_v2" stroke="none" stroke-width="1" stroke-linecap="butt" stroke-linejoin="miter" stroke-miterlimit="4" fill="#0D274D" fill-opacity="1"/><path d="M10.06 34.85C9.87 34.85 9.67 34.92 9.53 35.07 9.24 35.36 9.24 35.84 9.53 36.13L13.44 40 13.39 40.05 9.52 43.88C9.23 44.17 9.23 44.65 9.52 44.94 9.66 45.08 9.85 45.16 10.05 45.16 10.25 45.16 10.43 45.08 10.58 44.94L15.03 40.53C15.17 40.39 15.25 40.2 15.25 40 15.25 39.8 15.17 39.61 15.03 39.47L10.58 35.06C10.44 34.92 10.25 34.85 10.05 34.85Z" class="MsftOfcThm_Background1_Fill_v2" stroke="none" stroke-width="1" stroke-linecap="butt" stroke-linejoin="miter" stroke-miterlimit="4" fill="#0D274D" fill-opacity="1"/><path d="M34.55 21C34.35 21 34.16 21.08 34.02 21.22 29 26.24 26.24 32.91 26.24 40.01 26.24 47.11 29 53.78 34.02 58.8 34.16 58.94 34.35 59.02 34.55 59.02 34.75 59.02 34.94 58.94 35.08 58.8 35.37 58.51 35.37 58.03 35.08 57.74 30.35 53.01 27.75 46.72 27.75 40.01 27.75 33.3 30.35 27.01 35.08 22.28 35.37 21.99 35.37 21.51 35.08 21.22 34.94 21.08 34.75 21 34.55 21Z" class="MsftOfcThm_Background1_Fill_v2" stroke="none" stroke-width="1" stroke-linecap="butt" stroke-linejoin="miter" stroke-miterlimit="4" fill="#0D274D" fill-opacity="1"/></svg>