<svg viewBox="0 0 80 80" xmlns="http://www.w3.org/2000/svg" xmlns:xlink="http://www.w3.org/1999/xlink" id="icon_art" overflow="hidden"><style>
.MsftOfcThm_Background1_Fill_v2 {
 fill:#FFFFFF; 
}
</style>
<defs></defs><path d="M26.46 9.44C17 9.44 9.3 17.14 9.3 26.6 9.3 34.09 14.1 40.65 21.23 42.93L21.32 42.96 21.32 45.78 18.62 48.48C18.33 48.77 18.33 49.25 18.62 49.54L21.32 52.24 21.32 54.56 18.62 57.26C18.48 57.4 18.4 57.59 18.4 57.79 18.4 57.99 18.48 58.18 18.62 58.32L21.32 61.02 21.32 65.45C21.32 65.65 21.4 65.85 21.55 65.99L25.93 70.24C26.21 70.51 26.69 70.51 26.97 70.24L31.46 65.99C31.61 65.85 31.69 65.65 31.69 65.45L31.69 42.93 31.78 42.9C38.86 40.59 43.61 34.04 43.61 26.6 43.61 17.14 35.91 9.44 26.45 9.44ZM26.46 68.65 26.37 68.56 22.82 65.12 22.82 60.7C22.82 60.5 22.74 60.31 22.6 60.17L20.21 57.78 22.6 55.39C22.74 55.25 22.82 55.06 22.82 54.86L22.82 51.92C22.82 51.72 22.74 51.53 22.6 51.39L20.21 49 22.6 46.61C22.74 46.47 22.82 46.28 22.82 46.08L22.82 42.39C22.82 42.05 22.59 41.76 22.27 41.67 15.51 39.8 10.79 33.6 10.79 26.6 10.79 17.97 17.81 10.94 26.45 10.94 35.09 10.94 42.11 17.96 42.11 26.6 42.11 33.56 37.43 39.75 30.73 41.65L30.73 41.65C30.41 41.74 30.19 42.04 30.19 42.37L30.19 65.12 30.15 65.16 26.46 68.66Z" class="MsftOfcThm_Background1_Fill_v2" stroke="none" stroke-width="1" stroke-linecap="butt" stroke-linejoin="miter" stroke-miterlimit="4" fill="#FFFFFF" fill-opacity="1"/><path d="M47.09 45.7 49.09 47.7 49.09 51.51C49.09 51.92 49.43 52.26 49.84 52.26L53.66 52.26 55.3 53.9 55.3 57.72C55.3 58.13 55.64 58.47 56.05 58.47L59.87 58.47 59.91 58.51 63 61.6C63.14 61.74 63.33 61.82 63.53 61.82L69.65 61.73C70.05 61.73 70.38 61.4 70.39 61L70.56 54.82C70.56 54.61 70.48 54.41 70.34 54.27L54.42 38.35 54.46 38.27C57.83 31.63 56.56 23.64 51.3 18.38 49.03 16.1 46.17 14.52 43.05 13.8 42.65 13.71 42.24 13.96 42.15 14.36 42.06 14.76 42.31 15.17 42.71 15.26 45.56 15.92 48.16 17.36 50.24 19.44 55.16 24.36 56.23 32.04 52.84 38.12 52.68 38.41 52.73 38.78 52.96 39.02L69.05 55.11 69.05 55.17 68.91 60.25 63.84 60.33 63.8 60.29 60.71 57.2C60.57 57.06 60.38 56.98 60.18 56.98L56.8 56.98 56.8 53.6C56.8 53.4 56.72 53.21 56.58 53.07L54.5 50.99C54.36 50.85 54.17 50.77 53.97 50.77L50.59 50.77 50.59 47.39C50.59 47.19 50.51 47 50.37 46.86L47.76 44.25C47.52 44.01 47.15 43.96 46.86 44.13 42.86 46.39 38.09 46.79 33.77 45.22 33.38 45.08 32.95 45.28 32.81 45.67 32.67 46.06 32.87 46.49 33.26 46.63 37.76 48.27 42.77 47.95 47.01 45.76L47.09 45.72Z" class="MsftOfcThm_Background1_Fill_v2" stroke="none" stroke-width="1" stroke-linecap="butt" stroke-linejoin="miter" stroke-miterlimit="4" fill="#FFFFFF" fill-opacity="1"/><path d="M18.36 25.25 18.35 25.25C18.15 25.25 17.96 25.33 17.82 25.48 17.68 25.63 17.61 25.81 17.61 26.01 17.61 26.21 17.69 26.4 17.84 26.54L23.95 32.49C24.24 32.77 24.73 32.76 25.01 32.48L35.01 22.24C35.3 21.94 35.29 21.47 35 21.18 34.7 20.89 34.23 20.9 33.94 21.19L24.47 30.9 24.38 30.81 18.89 25.47C18.75 25.33 18.56 25.26 18.37 25.26Z" class="MsftOfcThm_Background1_Fill_v2" stroke="none" stroke-width="1" stroke-linecap="butt" stroke-linejoin="miter" stroke-miterlimit="4" fill="#FFFFFF" fill-opacity="1"/></svg>