<svg viewBox="0 0 80 80" xmlns="http://www.w3.org/2000/svg" xmlns:xlink="http://www.w3.org/1999/xlink" id="icon_art" overflow="hidden"><style>
.MsftOfcThm_Background1_Fill_v2 {
 fill:#0D274D; 
}
</style>
<defs></defs><path d="M58.64 27.93C52.23 27.93 46.99 32.95 46.6 39.25L40.99 39.25C40.62 36.56 38.32 34.48 35.53 34.48 34.47 34.48 33.48 34.79 32.64 35.3L18.82 18.49C19.73 17.51 20.29 16.2 20.29 14.75 20.29 11.71 17.82 9.23 14.78 9.23 11.74 9.23 9.26 11.7 9.26 14.75 9.26 17.54 11.34 19.84 14.03 20.21L14.03 34.53C11.34 34.9 9.26 37.2 9.26 39.99 9.26 42.78 11.34 45.08 14.03 45.45L14.03 59.77C11.34 60.14 9.26 62.44 9.26 65.23 9.26 68.27 11.73 70.75 14.78 70.75 17.83 70.75 20.29 68.28 20.29 65.23 20.29 63.79 19.73 62.48 18.82 61.49L32.64 44.68C33.48 45.2 34.47 45.5 35.53 45.5 38.32 45.5 40.62 43.42 40.99 40.73L46.6 40.73C46.99 47.04 52.23 52.05 58.64 52.05 65.05 52.05 70.71 46.63 70.71 39.98 70.71 33.33 65.29 27.91 58.64 27.91ZM15.53 59.78 15.53 45.46C18.22 45.09 20.29 42.79 20.29 40 20.29 37.21 18.21 34.91 15.53 34.54L15.53 20.22C16.31 20.11 17.03 19.85 17.67 19.45L31.49 36.26C30.58 37.24 30.02 38.55 30.02 40 30.02 41.45 30.58 42.75 31.49 43.74L17.67 60.55C17.03 60.16 16.31 59.89 15.53 59.78ZM10.77 14.77C10.77 12.56 12.57 10.75 14.79 10.75 17.01 10.75 18.8 12.55 18.8 14.77 18.8 16.99 17 18.78 14.79 18.78 12.58 18.78 10.77 16.98 10.77 14.77ZM10.77 40C10.77 37.79 12.57 35.98 14.79 35.98 17.01 35.98 18.8 37.78 18.8 40 18.8 42.22 17 44.02 14.79 44.02 12.58 44.02 10.77 42.22 10.77 40ZM14.79 69.25C12.58 69.25 10.77 67.45 10.77 65.23 10.77 63.01 12.57 61.22 14.79 61.22 17.01 61.22 18.8 63.02 18.8 65.23 18.8 67.44 17 69.25 14.79 69.25ZM35.54 44.02C33.33 44.02 31.52 42.22 31.52 40 31.52 37.78 33.32 35.98 35.54 35.98 37.76 35.98 39.55 37.78 39.55 40 39.55 42.22 37.75 44.02 35.54 44.02ZM58.65 50.58C52.82 50.58 48.07 45.84 48.07 40.01 48.07 34.18 52.81 29.44 58.65 29.44 64.49 29.44 69.22 34.18 69.22 40.01 69.22 45.84 64.48 50.58 58.65 50.58Z" class="MsftOfcThm_Background1_Fill_v2" stroke="none" stroke-width="1" stroke-linecap="butt" stroke-linejoin="miter" stroke-miterlimit="4" fill="#0D274D" fill-opacity="1"/><path d="M63.93 35.71 57.07 42.68 53.09 38.92C52.79 38.63 52.31 38.65 52.03 38.95 51.74 39.25 51.76 39.73 52.06 40.01L56.57 44.27C56.62 44.32 56.68 44.35 56.74 44.38 56.76 44.39 56.78 44.41 56.81 44.42 56.9 44.46 56.99 44.47 57.09 44.47 57.19 44.47 57.29 44.45 57.38 44.41 57.41 44.4 57.43 44.37 57.46 44.36 57.52 44.33 57.58 44.3 57.63 44.25L65.01 36.75C65.3 36.45 65.3 35.98 65.01 35.69 64.72 35.4 64.24 35.4 63.95 35.69Z" class="MsftOfcThm_Background1_Fill_v2" stroke="none" stroke-width="1" stroke-linecap="butt" stroke-linejoin="miter" stroke-miterlimit="4" fill="#0D274D" fill-opacity="1"/></svg>