<svg viewBox="0 0 80 80" xmlns="http://www.w3.org/2000/svg" xmlns:xlink="http://www.w3.org/1999/xlink" id="icon_art" overflow="hidden"><style>
.MsftOfcThm_Background1_Fill_v2 {
 fill:#FFFFFF; 
}
</style>
<defs></defs><path d="M10.21 9.37C9.8 9.37 9.46 9.71 9.46 10.12L9.46 52.76C9.46 53.17 9.8 53.51 10.21 53.51L26.39 53.51 26.39 69.88C26.39 70.29 26.73 70.63 27.14 70.63L69.78 70.63C70.19 70.63 70.53 70.29 70.53 69.88L70.53 27.24C70.53 26.83 70.19 26.49 69.78 26.49L53.6 26.49 53.6 10.12C53.6 9.71 53.26 9.37 52.85 9.37L10.21 9.37ZM69.03 69.14 27.89 69.14 27.89 52.02 10.96 52.02 10.96 10.87 52.11 10.87 52.11 27.99 69.04 27.99 69.04 69.13Z" class="MsftOfcThm_Background1_Fill_v2" stroke="none" stroke-width="1" stroke-linecap="butt" stroke-linejoin="miter" stroke-miterlimit="4" fill="#FFFFFF" fill-opacity="1"/><path d="M52.66 51.86 52.66 51.86C52.41 51.86 52.18 51.96 52.03 52.12 51.94 52.21 51.88 52.31 51.84 52.41 51.78 52.53 51.75 52.65 51.75 52.75 51.75 52.87 51.78 52.99 51.83 53.1 51.88 53.22 51.94 53.33 52.02 53.41 52.27 53.66 52.65 53.75 53.03 53.61 53.13 53.56 53.23 53.49 53.33 53.4 53.4 53.33 53.47 53.22 53.51 53.11 53.56 53.01 53.58 52.9 53.58 52.75 53.58 52.61 53.56 52.51 53.52 52.42 53.48 52.3 53.42 52.2 53.33 52.11L53.33 52.11C53.16 51.94 52.92 51.85 52.67 51.85Z" class="MsftOfcThm_Background1_Fill_v2" stroke="none" stroke-width="1" stroke-linecap="butt" stroke-linejoin="miter" stroke-miterlimit="4" fill="#FFFFFF" fill-opacity="1"/><path d="M44.23 51.85C43.73 51.85 43.32 52.26 43.32 52.76 43.32 53.26 43.73 53.68 44.23 53.68 44.73 53.68 45.15 53.26 45.15 52.76 45.15 52.26 44.74 51.85 44.23 51.85Z" class="MsftOfcThm_Background1_Fill_v2" stroke="none" stroke-width="1" stroke-linecap="butt" stroke-linejoin="miter" stroke-miterlimit="4" fill="#FFFFFF" fill-opacity="1"/><path d="M48.46 51.85C47.95 51.85 47.54 52.26 47.54 52.76 47.54 53.26 47.95 53.68 48.46 53.68 48.97 53.68 49.37 53.27 49.37 52.76 49.37 52.25 48.96 51.85 48.46 51.85Z" class="MsftOfcThm_Background1_Fill_v2" stroke="none" stroke-width="1" stroke-linecap="butt" stroke-linejoin="miter" stroke-miterlimit="4" fill="#FFFFFF" fill-opacity="1"/><path d="M31.57 51.85C31.06 51.85 30.65 52.26 30.65 52.76 30.65 53.26 31.06 53.68 31.57 53.68 32.08 53.68 32.48 53.27 32.48 52.76 32.48 52.25 32.07 51.85 31.57 51.85Z" class="MsftOfcThm_Background1_Fill_v2" stroke="none" stroke-width="1" stroke-linecap="butt" stroke-linejoin="miter" stroke-miterlimit="4" fill="#FFFFFF" fill-opacity="1"/><path d="M40.02 51.85C39.51 51.85 39.1 52.26 39.1 52.76 39.1 53.26 39.51 53.68 40.02 53.68 40.53 53.68 40.93 53.27 40.93 52.76 40.93 52.25 40.52 51.85 40.02 51.85Z" class="MsftOfcThm_Background1_Fill_v2" stroke="none" stroke-width="1" stroke-linecap="butt" stroke-linejoin="miter" stroke-miterlimit="4" fill="#FFFFFF" fill-opacity="1"/><path d="M35.79 51.85C35.29 51.85 34.88 52.26 34.88 52.76 34.88 53.26 35.29 53.68 35.79 53.68 36.29 53.68 36.71 53.27 36.71 52.76 36.71 52.25 36.3 51.85 35.79 51.85Z" class="MsftOfcThm_Background1_Fill_v2" stroke="none" stroke-width="1" stroke-linecap="butt" stroke-linejoin="miter" stroke-miterlimit="4" fill="#FFFFFF" fill-opacity="1"/><path d="M27.35 34.78C26.85 34.78 26.44 35.19 26.44 35.7 26.44 36.21 26.85 36.61 27.35 36.61 27.85 36.61 28.27 36.2 28.27 35.7 28.27 35.2 27.87 34.78 27.35 34.78Z" class="MsftOfcThm_Background1_Fill_v2" stroke="none" stroke-width="1" stroke-linecap="butt" stroke-linejoin="miter" stroke-miterlimit="4" fill="#FFFFFF" fill-opacity="1"/><path d="M27.35 39.04C26.85 39.04 26.44 39.45 26.44 39.96 26.44 40.47 26.85 40.87 27.35 40.87 27.85 40.87 28.27 40.46 28.27 39.96 28.27 39.46 27.86 39.04 27.35 39.04Z" class="MsftOfcThm_Background1_Fill_v2" stroke="none" stroke-width="1" stroke-linecap="butt" stroke-linejoin="miter" stroke-miterlimit="4" fill="#FFFFFF" fill-opacity="1"/><path d="M27.35 30.51C26.85 30.51 26.44 30.92 26.44 31.43 26.44 31.94 26.85 32.34 27.35 32.34 27.85 32.34 28.27 31.94 28.27 31.43 28.27 30.92 27.86 30.51 27.35 30.51Z" class="MsftOfcThm_Background1_Fill_v2" stroke="none" stroke-width="1" stroke-linecap="butt" stroke-linejoin="miter" stroke-miterlimit="4" fill="#FFFFFF" fill-opacity="1"/><path d="M27.35 47.57C26.85 47.57 26.44 47.98 26.44 48.49 26.44 49 26.85 49.4 27.35 49.4 27.85 49.4 28.27 49 28.27 48.49 28.27 47.98 27.86 47.57 27.35 47.57Z" class="MsftOfcThm_Background1_Fill_v2" stroke="none" stroke-width="1" stroke-linecap="butt" stroke-linejoin="miter" stroke-miterlimit="4" fill="#FFFFFF" fill-opacity="1"/><path d="M27.35 43.31C26.85 43.31 26.44 43.72 26.44 44.22 26.44 44.72 26.85 45.14 27.35 45.14 27.85 45.14 28.27 44.73 28.27 44.22 28.27 43.71 27.86 43.31 27.35 43.31Z" class="MsftOfcThm_Background1_Fill_v2" stroke="none" stroke-width="1" stroke-linecap="butt" stroke-linejoin="miter" stroke-miterlimit="4" fill="#FFFFFF" fill-opacity="1"/><path d="M27.36 26.25C27.24 26.25 27.12 26.27 27.02 26.32 26.9 26.37 26.81 26.44 26.72 26.53 26.54 26.69 26.45 26.92 26.45 27.17 26.45 27.29 26.47 27.4 26.52 27.53 26.56 27.65 26.62 27.74 26.72 27.82 26.99 28.09 27.35 28.17 27.72 28.03 27.84 27.99 27.94 27.92 28.01 27.83 28.1 27.74 28.17 27.64 28.22 27.52 28.27 27.39 28.29 27.29 28.29 27.17 28.29 27.07 28.27 26.95 28.22 26.83 28.17 26.72 28.1 26.62 28.02 26.54L28.02 26.54C27.95 26.47 27.85 26.4 27.71 26.33 27.61 26.28 27.49 26.26 27.37 26.26Z" class="MsftOfcThm_Background1_Fill_v2" stroke="none" stroke-width="1" stroke-linecap="butt" stroke-linejoin="miter" stroke-miterlimit="4" fill="#FFFFFF" fill-opacity="1"/><path d="M31.57 26.25C31.06 26.25 30.65 26.66 30.65 27.17 30.65 27.68 31.06 28.08 31.57 28.08 32.08 28.08 32.48 27.67 32.48 27.17 32.48 26.67 32.08 26.25 31.57 26.25Z" class="MsftOfcThm_Background1_Fill_v2" stroke="none" stroke-width="1" stroke-linecap="butt" stroke-linejoin="miter" stroke-miterlimit="4" fill="#FFFFFF" fill-opacity="1"/><path d="M44.23 26.25C43.72 26.25 43.32 26.65 43.32 27.17 43.32 27.69 43.73 28.08 44.23 28.08 44.73 28.08 45.15 27.67 45.15 27.17 45.15 26.67 44.74 26.25 44.23 26.25Z" class="MsftOfcThm_Background1_Fill_v2" stroke="none" stroke-width="1" stroke-linecap="butt" stroke-linejoin="miter" stroke-miterlimit="4" fill="#FFFFFF" fill-opacity="1"/><path d="M35.79 26.25C35.28 26.25 34.88 26.65 34.88 27.17 34.88 27.69 35.29 28.08 35.79 28.08 36.29 28.08 36.71 27.67 36.71 27.17 36.71 26.67 36.3 26.25 35.79 26.25Z" class="MsftOfcThm_Background1_Fill_v2" stroke="none" stroke-width="1" stroke-linecap="butt" stroke-linejoin="miter" stroke-miterlimit="4" fill="#FFFFFF" fill-opacity="1"/><path d="M40.02 26.25C39.5 26.25 39.1 26.65 39.1 27.17 39.1 27.69 39.51 28.08 40.02 28.08 40.53 28.08 40.93 27.67 40.93 27.17 40.93 26.67 40.53 26.25 40.02 26.25Z" class="MsftOfcThm_Background1_Fill_v2" stroke="none" stroke-width="1" stroke-linecap="butt" stroke-linejoin="miter" stroke-miterlimit="4" fill="#FFFFFF" fill-opacity="1"/><path d="M48.44 26.25C47.94 26.25 47.53 26.66 47.53 27.17 47.53 27.68 47.94 28.08 48.44 28.08 48.94 28.08 49.36 27.67 49.36 27.17 49.36 26.67 48.95 26.25 48.44 26.25Z" class="MsftOfcThm_Background1_Fill_v2" stroke="none" stroke-width="1" stroke-linecap="butt" stroke-linejoin="miter" stroke-miterlimit="4" fill="#FFFFFF" fill-opacity="1"/><path d="M52.67 43.31C52.16 43.31 51.75 43.72 51.75 44.22 51.75 44.72 52.16 45.14 52.67 45.14 53.18 45.14 53.59 44.73 53.59 44.22 53.59 43.71 53.18 43.31 52.67 43.31Z" class="MsftOfcThm_Background1_Fill_v2" stroke="none" stroke-width="1" stroke-linecap="butt" stroke-linejoin="miter" stroke-miterlimit="4" fill="#FFFFFF" fill-opacity="1"/><path d="M52.67 47.57C52.17 47.57 51.75 47.99 51.75 48.49 51.75 48.99 52.16 49.4 52.67 49.4 53.18 49.4 53.59 48.99 53.59 48.49 53.59 47.99 53.17 47.57 52.67 47.57Z" class="MsftOfcThm_Background1_Fill_v2" stroke="none" stroke-width="1" stroke-linecap="butt" stroke-linejoin="miter" stroke-miterlimit="4" fill="#FFFFFF" fill-opacity="1"/><path d="M52.67 30.52C52.16 30.52 51.75 30.93 51.75 31.43 51.75 31.93 52.17 32.35 52.67 32.35 53.17 32.35 53.59 31.93 53.59 31.43 53.59 30.93 53.18 30.52 52.67 30.52Z" class="MsftOfcThm_Background1_Fill_v2" stroke="none" stroke-width="1" stroke-linecap="butt" stroke-linejoin="miter" stroke-miterlimit="4" fill="#FFFFFF" fill-opacity="1"/><path d="M52.67 39.04C52.17 39.04 51.75 39.46 51.75 39.96 51.75 40.46 52.16 40.87 52.67 40.87 53.18 40.87 53.59 40.46 53.59 39.96 53.59 39.46 53.17 39.04 52.67 39.04Z" class="MsftOfcThm_Background1_Fill_v2" stroke="none" stroke-width="1" stroke-linecap="butt" stroke-linejoin="miter" stroke-miterlimit="4" fill="#FFFFFF" fill-opacity="1"/><path d="M52.67 34.78C52.16 34.78 51.75 35.19 51.75 35.69 51.75 36.19 52.16 36.61 52.67 36.61 53.18 36.61 53.59 36.2 53.59 35.69 53.59 35.18 53.18 34.78 52.67 34.78Z" class="MsftOfcThm_Background1_Fill_v2" stroke="none" stroke-width="1" stroke-linecap="butt" stroke-linejoin="miter" stroke-miterlimit="4" fill="#FFFFFF" fill-opacity="1"/></svg>