<svg viewBox="0 0 80 80" xmlns="http://www.w3.org/2000/svg" xmlns:xlink="http://www.w3.org/1999/xlink" id="icon_art" overflow="hidden"><style>
.MsftOfcThm_Background1_Fill_v2 {
 fill:#FFFFFF; 
}
</style>
<defs></defs><path d="M39.71 34.73C40.17 34.73 40.62 34.85 41.02 35.08L52.91 42.01C53.41 42.26 54.05 42.16 54.47 41.76 54.89 41.35 55.01 40.74 54.77 40.2L41.34 10.44C41.04 9.78 40.41 9.37 39.69 9.37 38.95 9.37 38.31 9.79 38.02 10.47L25.2 40.2C24.97 40.74 25.09 41.35 25.53 41.75L25.53 41.75C25.97 42.16 26.59 42.23 27.16 41.94L38.35 35.11C38.76 34.86 39.23 34.73 39.71 34.73ZM24.63 21.69C24.47 21.69 24.32 21.74 24.19 21.83 17.2 26.9 13.02 35.06 13.02 43.65 13.02 58.52 25.12 70.62 39.99 70.62 54.86 70.62 66.96 58.52 66.96 43.65 66.96 35.06 62.79 26.9 55.79 21.83 55.45 21.59 54.98 21.66 54.74 22 54.62 22.16 54.57 22.36 54.61 22.56 54.64 22.76 54.75 22.93 54.91 23.05 61.52 27.84 65.46 35.55 65.46 43.66 65.46 57.7 54.03 69.13 39.99 69.13 25.95 69.13 14.52 57.7 14.52 43.66 14.52 35.55 18.46 27.84 25.07 23.05 25.23 22.93 25.34 22.76 25.37 22.56 25.4 22.36 25.35 22.16 25.24 22 25.1 21.81 24.87 21.69 24.63 21.69ZM39.98 11.06 53.26 40.48 52.86 40.25 41.78 33.79C40.5 33.04 38.84 33.06 37.57 33.83L26.74 40.45 26.92 40.03 39.41 11.06C39.46 10.94 39.57 10.87 39.7 10.87 39.83 10.87 39.93 10.94 39.99 11.06Z" class="cls-1 MsftOfcThm_Background1_Fill_v2" stroke="none" stroke-width="1" stroke-linecap="butt" stroke-linejoin="miter" stroke-miterlimit="4" fill="#FFFFFF" fill-opacity="1"/></svg>