<svg viewBox="0 0 80 80" xmlns="http://www.w3.org/2000/svg" xmlns:xlink="http://www.w3.org/1999/xlink" id="icon_art" overflow="hidden"><style>
.MsftOfcThm_Background1_Fill_v2 {
 fill:#FFFFFF; 
}
</style>
<defs></defs><path d="M56.35 17.23C56.25 17.23 56.14 17.25 56.04 17.29L9.73 36.57C9.42 36.7 9.23 36.99 9.23 37.33 9.23 37.66 9.43 37.96 9.74 38.08L29.58 46.02C29.68 46.06 29.78 46.08 29.88 46.08 30.21 46.08 30.51 45.88 30.63 45.57 30.8 45.15 30.59 44.68 30.18 44.51L12.19 37.31 12.24 37.29 56.66 18.79C56.86 18.71 57.02 18.55 57.1 18.35 57.18 18.15 57.18 17.93 57.1 17.73 56.97 17.42 56.67 17.23 56.35 17.23Z" class="MsftOfcThm_Background1_Fill_v2" stroke="none" stroke-width="1" stroke-linecap="butt" stroke-linejoin="miter" stroke-miterlimit="4" fill="#FFFFFF" fill-opacity="1"/><path d="M69.96 11.95C69.77 11.95 69.58 12.02 69.44 12.15L32.73 45.88C32.73 45.88 32.67 45.95 32.64 45.99L32.64 45.99C32.64 45.99 32.58 46.08 32.56 46.13 32.53 46.2 32.5 46.27 32.49 46.34 32.49 46.38 32.48 46.41 32.48 46.45L32.48 67.28C32.48 67.63 32.71 67.93 33.05 68.02 33.12 68.04 33.19 68.05 33.26 68.05 33.53 68.05 33.78 67.91 33.92 67.67L42.9 52.62 42.92 52.62 58.88 61.4C59.09 61.52 59.35 61.53 59.57 61.43 59.79 61.33 59.95 61.13 60.01 60.9L70.72 12.89C70.79 12.56 70.65 12.22 70.35 12.05L70.35 12.05C70.23 11.98 70.1 11.95 69.96 11.95ZM33.99 64.64 33.99 47.68 34.02 47.7 41.61 51.87 41.58 51.93 33.99 64.64ZM58.75 59.63 58.68 59.59 34.5 46.3 34.56 46.24 68.74 14.83 68.7 15.03 58.75 59.63Z" class="MsftOfcThm_Background1_Fill_v2" stroke="none" stroke-width="1" stroke-linecap="butt" stroke-linejoin="miter" stroke-miterlimit="4" fill="#FFFFFF" fill-opacity="1"/></svg>