<svg viewBox="0 0 61.5 54.12" xmlns="http://www.w3.org/2000/svg" xmlns:xlink="http://www.w3.org/1999/xlink" id="Layer_2" overflow="hidden"><style>
.MsftOfcThm_Background1_Fill_v2 {
 fill:#FFFFFF; 
}
</style>
<g id="a"><path d="M58.2 29.42C62.07 26.23 62.62 20.5 59.42 16.63 57.7 14.54 55.14 13.33 52.43 13.33 50.85 13.33 49.3 13.75 47.94 14.54 46.36 5.06 37.39-1.34 27.91 0.24 21.98 1.22 16.98 5.2 14.68 10.75 9.17 8.57 2.94 11.27 0.76 16.78 0.25 18.04 0 19.39 0 20.75-0.01 23.32 0.92 25.81 2.62 27.75-1.26 32.23-0.77 39.01 3.71 42.89 5.67 44.58 8.17 45.51 10.75 45.5L14.75 45.5 14.75 44 10.75 44C5.64 44 1.5 39.86 1.5 34.75 1.5 29.64 5.64 25.5 10.75 25.5 12.14 25.5 13.52 25.82 14.77 26.43 15.14 26.61 15.59 26.46 15.77 26.08L15.8 26.01C18.78 17.75 27.89 13.47 36.15 16.45 41.95 18.54 46.02 23.79 46.59 29.93 46.63 30.34 47 30.64 47.41 30.6 47.55 30.6 47.69 30.54 47.8 30.45 49.11 29.41 50.74 28.84 52.42 28.84 56.61 28.84 60 32.23 60 36.42 60 40.61 56.61 44 52.42 44L46.75 44 46.75 45.5 52.42 45.5C57.43 45.51 61.5 41.44 61.5 36.43 61.5 33.72 60.29 31.15 58.2 29.42ZM56.89 28.53C55.53 27.75 53.99 27.34 52.42 27.34 50.85 27.34 49.29 27.76 47.93 28.56 46.35 19.07 37.39 12.66 27.91 14.24 21.98 15.22 16.97 19.2 14.68 24.76 10.94 23.27 6.69 24.02 3.68 26.68 2.26 25.03 1.49 22.92 1.5 20.75 1.5 15.64 5.64 11.51 10.75 11.5 12.15 11.51 13.52 11.82 14.78 12.43 15.16 12.61 15.6 12.44 15.78 12.07L15.81 12.01C18.79 3.74 27.9-0.54 36.17 2.44 41.96 4.54 46.03 9.79 46.6 15.92 46.64 16.33 47.01 16.64 47.42 16.6 47.56 16.58 47.7 16.53 47.81 16.44 49.13 15.4 50.75 14.83 52.43 14.83 56.62 14.84 60.01 18.23 60 22.42 60 24.83 58.84 27.1 56.89 28.53Z" class="MsftOfcThm_Background1_Fill_v2" stroke="none" stroke-width="1" stroke-linecap="butt" stroke-linejoin="miter" stroke-miterlimit="4" fill="#FFFFFF" fill-opacity="1"/><path d="M41.41 38.21 37.91 38.21 37.91 34.71C37.91 30.75 34.7 27.55 30.75 27.55 26.8 27.55 23.59 30.76 23.59 34.71L23.59 38.21 20.09 38.21C19.81 38.21 19.59 38.43 19.59 38.71L19.59 53.37C19.59 53.65 19.81 53.87 20.09 53.87L41.42 53.87C41.7 53.87 41.92 53.65 41.92 53.37L41.92 38.71C41.92 38.43 41.7 38.21 41.42 38.21ZM24.58 34.71C24.58 31.31 27.34 28.55 30.74 28.55 34.14 28.55 36.9 31.31 36.9 34.71L36.9 38.21 24.57 38.21 24.57 34.71ZM40.91 52.87 20.58 52.87 20.58 39.21 40.91 39.21 40.91 52.87Z" class="MsftOfcThm_Background1_Fill_v2" stroke="none" stroke-width="1" stroke-linecap="butt" stroke-linejoin="miter" stroke-miterlimit="4" fill="#FFFFFF" fill-opacity="1"/><path d="M41.41 38.21 41.41 37.96 38.16 37.96 38.16 34.71C38.16 30.62 34.84 27.3 30.75 27.3 26.66 27.3 23.34 30.62 23.34 34.71L23.34 37.96 20.09 37.96C19.68 37.96 19.34 38.3 19.34 38.71L19.34 53.37 19.34 53.37C19.34 53.78 19.68 54.12 20.09 54.12L41.42 54.12C41.83 54.12 42.17 53.78 42.17 53.37L42.17 38.71C42.17 38.3 41.83 37.96 41.42 37.96L41.42 38.21C41.42 38.21 41.42 38.46 41.42 38.46 41.56 38.46 41.67 38.57 41.67 38.71L41.67 53.37 41.67 53.37C41.67 53.51 41.56 53.62 41.42 53.62L20.09 53.62C19.95 53.62 19.84 53.51 19.84 53.37L19.84 38.71C19.84 38.57 19.95 38.46 20.09 38.46L23.84 38.46 23.84 34.71C23.84 32.8 24.61 31.07 25.87 29.82 27.12 28.57 28.85 27.8 30.76 27.79 32.67 27.79 34.4 28.56 35.65 29.82 36.9 31.07 37.67 32.8 37.68 34.71L37.68 38.46 41.43 38.46 41.43 38.21ZM24.58 34.71 24.83 34.71C24.83 33.08 25.49 31.6 26.56 30.53 27.63 29.46 29.11 28.8 30.74 28.8 32.37 28.8 33.85 29.46 34.92 30.53 35.99 31.6 36.65 33.08 36.65 34.71L36.65 37.96 24.82 37.96 24.82 34.71 24.32 34.71 24.32 38.46 37.15 38.46 37.15 34.71C37.15 31.17 34.28 28.3 30.74 28.3 27.2 28.3 24.33 31.17 24.33 34.71L24.58 34.71ZM40.91 52.87 40.91 52.62 20.83 52.62 20.83 39.46 40.66 39.46 40.66 52.87 40.91 52.87 40.91 52.62 40.91 52.87 41.16 52.87 41.16 38.96 20.33 38.96 20.33 53.12 41.16 53.12 41.16 52.87 40.91 52.87Z" class="MsftOfcThm_Background1_Fill_v2" stroke="none" stroke-width="1" stroke-linecap="butt" stroke-linejoin="miter" stroke-miterlimit="4" fill="#FFFFFF" fill-opacity="1"/><rect x="30.82" y="44.19" width="0.71" height="4.65" class="MsftOfcThm_Background1_Fill_v2" stroke="none" stroke-width="1" stroke-linecap="butt" stroke-linejoin="miter" stroke-miterlimit="4" fill="#FFFFFF" fill-opacity="1"/><path d="M30.82 44.19 30.82 44.44 31.28 44.44 31.28 48.59 31.07 48.59 31.07 44.19 30.82 44.19 30.82 44.44 30.82 44.19 30.57 44.19 30.57 48.84 30.65 49.02 30.82 49.09 31.53 49.09 31.71 49.02 31.78 48.84 31.78 44.19 31.71 44.01 31.53 43.94 30.82 43.94 30.65 44.01 30.57 44.19 30.82 44.19Z" class="MsftOfcThm_Background1_Fill_v2" stroke="none" stroke-width="1" stroke-linecap="butt" stroke-linejoin="miter" stroke-miterlimit="4" fill="#FFFFFF" fill-opacity="1"/></g></svg>