<svg viewBox="0 0 80 80" xmlns="http://www.w3.org/2000/svg" xmlns:xlink="http://www.w3.org/1999/xlink" id="icon_art" overflow="hidden"><style>
.MsftOfcThm_Background1_Fill_v2 {
 fill:#FFFFFF; 
}
</style>
<defs></defs><path d="M18.34 53.32C15.64 53.32 13.45 55.51 13.45 58.21 13.45 60.91 15.64 63.1 18.34 63.1 21.04 63.1 23.23 60.91 23.23 58.21 23.23 55.51 21.04 53.32 18.34 53.32ZM18.34 61.6C16.47 61.6 14.95 60.08 14.95 58.21 14.95 56.34 16.47 54.82 18.34 54.82 20.21 54.82 21.73 56.34 21.73 58.21 21.73 60.08 20.21 61.6 18.34 61.6Z" class="cls-1 MsftOfcThm_Background1_Fill_v2" stroke="none" stroke-width="1" stroke-linecap="butt" stroke-linejoin="miter" stroke-miterlimit="4" fill="#FFFFFF" fill-opacity="1"/><path d="M65.86 18.7C64.29 18.7 62.9 19.46 62 20.62 59.46 20.15 56.25 19.77 52.67 19.52 49.54 17.86 45.98 16.91 42.2 16.91 38.42 16.91 34.78 17.88 31.62 19.57 19.09 20.5 16.45 22.44 16.45 23.91 16.45 24.84 17.2 26.17 23.33 27.27 21.67 29.86 20.53 32.82 20.06 35.99 12.88 36.79 9.23 38.13 9.23 40 9.23 42.18 14.47 43.4 20.33 44.03 22.52 54.08 31.48 61.63 42.18 61.63 54.51 61.63 64.55 51.6 64.55 39.26 64.55 34.89 63.28 30.81 61.11 27.36 61.59 27.28 62.05 27.19 62.49 27.11 63.37 27.94 64.54 28.46 65.85 28.46 68.54 28.46 70.74 26.27 70.74 23.57 70.74 20.87 68.55 18.68 65.85 18.68ZM15.81 41.86C12.34 41.19 10.75 40.43 10.75 40.01 10.75 39.77 12.39 38.4 19.91 37.53 19.86 38.11 19.83 38.69 19.83 39.28 19.83 40.38 19.91 41.45 20.07 42.51 18.32 42.31 16.9 42.08 15.81 41.87ZM42.21 18.41C48.79 18.41 54.66 21.48 58.49 26.25 54.05 26.83 48.48 27.14 42.54 27.14 34.95 27.14 29.53 26.65 26 26.16 29.83 21.43 35.67 18.4 42.21 18.4ZM17.97 23.92C18.13 23.38 21.11 22.11 28.89 21.32 27.14 22.62 25.59 24.16 24.29 25.9 20.11 25.21 18.11 24.41 17.97 23.92ZM63.08 39.27C63.08 50.78 53.72 60.14 42.21 60.14 32.4 60.14 24.17 53.33 21.95 44.19 24.69 44.43 27.46 44.55 29.84 44.59 30.11 48.69 33.53 51.94 37.69 51.94 41.85 51.94 45.57 48.4 45.57 44.06 45.57 39.72 42.03 36.18 37.69 36.18 33.67 36.18 30.36 39.2 29.88 43.09 26.65 43.04 23.9 42.88 21.65 42.67 21.47 41.56 21.35 40.43 21.35 39.28 21.35 34.93 22.69 30.89 24.98 27.54 29.75 28.25 35.95 28.65 42.54 28.65 49.13 28.65 54.88 28.28 59.52 27.63 61.77 30.96 63.08 34.97 63.08 39.28ZM31.31 44.06C31.31 40.54 34.17 37.68 37.69 37.68 41.21 37.68 44.07 40.54 44.07 44.06 44.07 47.58 41.21 50.44 37.69 50.44 34.17 50.44 31.31 47.58 31.31 44.06ZM60.21 26C58.87 24.18 57.25 22.58 55.43 21.24 57.61 21.44 59.58 21.7 61.28 22 61.11 22.5 60.99 23.03 60.99 23.58 60.99 24.37 61.2 25.11 61.54 25.78 61.11 25.86 60.67 25.93 60.21 26ZM65.88 26.97C64.01 26.97 62.49 25.45 62.49 23.58 62.49 21.71 64.01 20.19 65.88 20.19 67.75 20.19 69.27 21.71 69.27 23.58 69.27 25.45 67.75 26.97 65.88 26.97Z" class="cls-1 MsftOfcThm_Background1_Fill_v2" stroke="none" stroke-width="1" stroke-linecap="butt" stroke-linejoin="miter" stroke-miterlimit="4" fill="#FFFFFF" fill-opacity="1"/></svg>