<svg viewBox="0 0 80 80" xmlns="http://www.w3.org/2000/svg" xmlns:xlink="http://www.w3.org/1999/xlink" overflow="hidden"><style>
.MsftOfcThm_Background1_Fill_v2 {
 fill:#FFFFFF; 
}
</style>
<defs></defs><g id="DO_NOT_TOUCH_Outlines_"><g><path d="M67.11 51.78C66.81 50.65 66.11 49.71 65.15 49.07 66.2 46.16 66.75 43.12 66.75 40 66.75 36.88 66.21 33.82 65.16 30.92 66.11 30.28 66.81 29.35 67.11 28.24 67.44 27.01 67.28 25.73 66.64 24.63 66.01 23.53 64.99 22.74 63.76 22.41 62.64 22.11 61.47 22.24 60.43 22.75 56.39 17.95 50.86 14.76 44.72 13.67 44.55 11.21 42.52 9.25 40.01 9.24L40 9.24C38.73 9.24 37.54 9.73 36.65 10.62 35.82 11.44 35.36 12.52 35.28 13.68 29.14 14.77 23.61 17.96 19.59 22.75 17.37 21.65 14.64 22.43 13.38 24.6 12.74 25.7 12.57 26.98 12.9 28.2 13.2 29.32 13.9 30.26 14.85 30.91 13.8 33.8 13.26 36.85 13.26 39.99 13.26 43.13 13.8 46.16 14.85 49.07 13.9 49.71 13.2 50.64 12.9 51.75 12.57 52.98 12.73 54.26 13.37 55.36 14 56.46 15.02 57.25 16.25 57.58 16.66 57.69 17.08 57.75 17.5 57.75 18.22 57.75 18.93 57.58 19.58 57.25 22.82 61.08 27.02 63.92 31.77 65.46L32.23 64.03C27.78 62.59 23.85 59.94 20.8 56.37 22.13 55.06 22.58 53.07 21.91 51.31L32.25 45.34 31.5 44.04 21.16 50.01C19.97 48.55 18.03 47.94 16.23 48.43 15.27 45.73 14.75 42.9 14.75 39.99 14.75 37.08 15.26 34.26 16.22 31.57 16.63 31.68 17.05 31.74 17.48 31.74 17.91 31.74 18.3 31.69 18.71 31.58 19.69 31.32 20.54 30.75 21.17 29.98L31.51 35.95 32.26 34.65 21.92 28.68C22.28 27.75 22.34 26.75 22.09 25.77 21.87 24.94 21.42 24.21 20.83 23.62 24.6 19.19 29.73 16.22 35.44 15.18 35.91 16.98 37.4 18.36 39.27 18.66L39.27 29.99 40.77 29.99 40.77 18.66C42.63 18.36 44.13 16.98 44.6 15.18 50.3 16.22 55.43 19.19 59.21 23.62 57.89 24.93 57.44 26.91 58.12 28.67L47.78 34.64 48.53 35.94 58.86 29.98C59.78 31.11 61.15 31.74 62.55 31.74 62.97 31.74 63.39 31.68 63.8 31.57 64.76 34.26 65.27 37.08 65.27 39.99 65.27 42.9 64.76 45.72 63.8 48.43 63 48.21 62.15 48.18 61.32 48.4 60.34 48.66 59.49 49.23 58.86 50L48.52 44.03 47.77 45.33 58.11 51.3C57.75 52.23 57.69 53.23 57.94 54.21 58.16 55.05 58.61 55.78 59.21 56.37 56.16 59.94 52.23 62.58 47.78 64.03L48.24 65.46C53 63.92 57.19 61.08 60.43 57.25 61.1 57.58 61.81 57.75 62.51 57.75 64.15 57.75 65.75 56.9 66.63 55.38 67.27 54.28 67.44 53 67.11 51.78ZM20.3 51.38C21.19 52.93 20.65 54.92 19.1 55.82 18.35 56.25 17.47 56.37 16.63 56.14 15.79 55.91 15.09 55.37 14.66 54.62 14.23 53.87 14.11 52.99 14.34 52.15 14.57 51.31 15.11 50.61 15.86 50.18 16.37 49.89 16.92 49.75 17.47 49.75 18.6 49.75 19.69 50.34 20.29 51.38ZM18.32 30.14C17.48 30.36 16.61 30.25 15.85 29.81 15.1 29.37 14.56 28.67 14.34 27.83 14.12 26.99 14.23 26.12 14.67 25.36 15.27 24.32 16.37 23.74 17.49 23.74 18.04 23.74 18.6 23.88 19.12 24.18 19.87 24.62 20.41 25.32 20.63 26.16 20.85 27 20.73 27.87 20.3 28.63 19.87 29.39 19.16 29.92 18.32 30.14ZM40 17.25 40 17.25C38.21 17.25 36.75 15.78 36.76 13.99 36.76 13.12 37.1 12.31 37.72 11.69 38.33 11.08 39.15 10.74 40.01 10.74L40.01 10.74C41.8 10.74 43.26 12.21 43.25 14 43.25 15.79 41.79 17.24 40 17.24ZM59.7 28.62C58.81 27.07 59.35 25.08 60.9 24.18 61.4 23.89 61.95 23.75 62.51 23.75 62.79 23.75 63.08 23.79 63.36 23.86 64.2 24.09 64.9 24.63 65.33 25.38 65.76 26.13 65.88 27.01 65.65 27.85 65.42 28.69 64.88 29.39 64.13 29.82 62.58 30.71 60.59 30.17 59.69 28.62ZM65.33 54.63C64.43 56.18 62.44 56.71 60.89 55.81 60.14 55.37 59.6 54.67 59.38 53.83 59.16 52.99 59.28 52.12 59.71 51.36 60.14 50.6 60.85 50.07 61.69 49.85 61.97 49.78 62.25 49.74 62.53 49.74 63.1 49.74 63.65 49.89 64.16 50.18 64.91 50.62 65.45 51.32 65.67 52.16 65.89 53 65.78 53.87 65.34 54.63Z" class="MsftOfcThm_Background1_Fill_v2" stroke="none" stroke-width="1" stroke-linecap="butt" stroke-linejoin="miter" stroke-miterlimit="4" fill="#FFFFFF" fill-opacity="1"/><path d="M44 37.25 43.25 37.25 43.25 36.5C43.25 34.71 41.79 33.25 40 33.25 38.21 33.25 36.75 34.71 36.75 36.5L36.75 37.25 36 37.25C35.59 37.25 35.25 37.59 35.25 38L35.25 44C35.25 44.41 35.59 44.75 36 44.75L44 44.75C44.41 44.75 44.75 44.41 44.75 44L44.75 38C44.75 37.59 44.41 37.25 44 37.25ZM38.25 36.5C38.25 35.54 39.04 34.75 40 34.75 40.96 34.75 41.75 35.54 41.75 36.5L41.75 37.25 38.25 37.25 38.25 36.5ZM43.25 43.25 36.75 43.25 36.75 38.75 43.25 38.75 43.25 43.25Z" class="MsftOfcThm_Background1_Fill_v2" stroke="none" stroke-width="1" stroke-linecap="butt" stroke-linejoin="miter" stroke-miterlimit="4" fill="#FFFFFF" fill-opacity="1"/><path d="M40.75 61.33 40.75 48 39.25 48 39.25 61.33C36.99 61.69 35.26 63.64 35.25 65.99 35.25 68.61 37.37 70.74 39.99 70.75L40 70.75C41.27 70.75 42.46 70.26 43.35 69.37 44.25 68.48 44.75 67.28 44.75 66.01 44.75 63.64 43.02 61.69 40.75 61.33ZM42.29 68.31C41.68 68.92 40.86 69.26 40 69.26L40 69.26C38.21 69.26 36.75 67.79 36.76 66 36.76 64.21 38.22 62.76 40.01 62.76L40.01 62.76C41.8 62.76 43.26 64.23 43.25 66.02 43.25 66.89 42.91 67.7 42.29 68.32Z" class="MsftOfcThm_Background1_Fill_v2" stroke="none" stroke-width="1" stroke-linecap="butt" stroke-linejoin="miter" stroke-miterlimit="4" fill="#FFFFFF" fill-opacity="1"/></g></g><g id="titles"><text class="MsftOfcThm_Background1_Fill_v2" fill="#FFFFFF" fill-opacity="1" font-family="MyriadPro-Regular,Myriad Pro" font-size="6" transform="matrix(1 0 0 1 0 -17.38)"><tspan class="MsftOfcThm_Background1_Fill_v2" fill="#FFFFFF" fill-opacity="1" x="0" y="0">SASE (</tspan><tspan class="MsftOfcThm_Background1_Fill_v2" fill="#FFFFFF" fill-opacity="1" letter-spacing="0em" x="15.52" y="0">S</tspan><tspan class="MsftOfcThm_Background1_Fill_v2" fill="#FFFFFF" fill-opacity="1" x="18.51" y="0">ecu</tspan><tspan class="MsftOfcThm_Background1_Fill_v2" fill="#FFFFFF" fill-opacity="1" letter-spacing="-0.01em" x="27.51" y="0">r</tspan><tspan class="MsftOfcThm_Background1_Fill_v2" fill="#FFFFFF" fill-opacity="1" x="29.41" y="0">e </tspan><tspan class="MsftOfcThm_Background1_Fill_v2" fill="#FFFFFF" fill-opacity="1" letter-spacing="-0.01em" x="33.69" y="0">A</tspan><tspan class="MsftOfcThm_Background1_Fill_v2" fill="#FFFFFF" fill-opacity="1" letter-spacing="0em" x="37.29" y="0">cc</tspan><tspan class="MsftOfcThm_Background1_Fill_v2" fill="#FFFFFF" fill-opacity="1" x="42.59" y="0">ess </tspan><tspan class="MsftOfcThm_Background1_Fill_v2" fill="#FFFFFF" fill-opacity="1" letter-spacing="0em" x="51.62" y="0">S</tspan><tspan class="MsftOfcThm_Background1_Fill_v2" fill="#FFFFFF" fill-opacity="1" x="54.61" y="0">e</tspan><tspan class="MsftOfcThm_Background1_Fill_v2" fill="#FFFFFF" fill-opacity="1" letter-spacing="0.02em" x="57.62" y="0">r</tspan><tspan class="MsftOfcThm_Background1_Fill_v2" fill="#FFFFFF" fill-opacity="1" letter-spacing="0em" x="59.73" y="0">v</tspan><tspan class="MsftOfcThm_Background1_Fill_v2" fill="#FFFFFF" fill-opacity="1" x="62.56" y="0">er </tspan><tspan class="MsftOfcThm_Background1_Fill_v2" fill="#FFFFFF" fill-opacity="1" letter-spacing="0em" x="0" y="7.2">E</tspan><tspan class="MsftOfcThm_Background1_Fill_v2" fill="#FFFFFF" fill-opacity="1" x="2.93" y="7.2">dge)</tspan></text></g></svg>