<?xml version="1.0" encoding="utf-8"?>
<!-- Generator: Adobe Illustrator 27.8.1, SVG Export Plug-In . SVG Version: 6.00 Build 0)  -->
<svg version="1.1" id="Layer_1" xmlns="http://www.w3.org/2000/svg" xmlns:xlink="http://www.w3.org/1999/xlink" x="0px" y="0px"
	 viewBox="0 0 80 80" style="enable-background:new 0 0 80 80;" xml:space="preserve">
<style type="text/css">
	.st0{fill:#FFFFFF;}
</style>
<g id="DO_NOT_TOUCH_Outlines_">
	<g>
		<path class="st0" d="M65.2,49.1c1.1-2.9,1.6-6,1.6-9.1s-0.5-6.2-1.6-9.1c1-0.6,1.7-1.6,1.9-2.7c0.3-1.2,0.2-2.5-0.5-3.6
			c-1.3-2.2-4-3-6.2-1.9c-4-4.8-9.6-8-15.8-9.1c-0.2-2.5-2.2-4.4-4.7-4.4c-1.3,0-2.5,0.5-3.4,1.4c-0.8,0.8-1.3,1.9-1.4,3.1
			C29,14.8,23.5,18,19.5,22.8c-2.2-1.1-4.9-0.3-6.2,1.9c-0.6,1.1-0.8,2.4-0.5,3.6c0.3,1.1,1,2.1,1.9,2.7c-1.1,2.9-1.6,5.9-1.6,9.1
			s0.5,6.2,1.6,9.1c-1,0.6-1.6,1.6-1.9,2.7c-0.3,1.2-0.1,2.5,0.5,3.6c0.9,1.5,2.5,2.4,4.1,2.4c0.7,0,1.4-0.2,2.1-0.5
			c3.2,3.8,7.4,6.7,12.2,8.2l0.5-1.4c-4.5-1.4-8.4-4.1-11.4-7.7c0.6-0.6,1-1.3,1.3-2.2c0.3-1.2,0.1-2.5-0.5-3.6s-1.7-1.9-2.9-2.2
			c-0.8-0.2-1.7-0.2-2.5,0c-1-2.7-1.5-5.5-1.5-8.4s0.5-5.7,1.5-8.4c0.4,0.1,0.8,0.2,1.3,0.2s0.8,0,1.2-0.2c1.2-0.3,2.2-1.1,2.9-2.2
			c0.6-1.1,0.8-2.4,0.5-3.6c-0.2-0.8-0.7-1.6-1.3-2.1c3.8-4.4,8.9-7.4,14.6-8.4c0.5,2,2.4,3.5,4.6,3.5s4-1.5,4.6-3.6
			c5.7,1,10.9,4,14.7,8.5c-0.6,0.6-1,1.3-1.3,2.1c-0.3,1.2-0.2,2.5,0.5,3.6c0.6,1.1,1.7,1.9,2.9,2.2c0.4,0.1,0.8,0.2,1.2,0.2
			s0.8-0.1,1.3-0.2c1,2.7,1.5,5.5,1.5,8.4s-0.5,5.7-1.5,8.4c-0.8-0.2-1.7-0.2-2.5,0c-1.2,0.3-2.2,1.1-2.9,2.2s-0.8,2.4-0.5,3.6
			c0.2,0.8,0.7,1.6,1.3,2.2c-3,3.6-7,6.2-11.4,7.7l0.5,1.4c4.8-1.5,9-4.4,12.2-8.2c0.7,0.3,1.4,0.5,2.1,0.5c1.6,0,3.2-0.8,4.1-2.4
			c0.6-1.1,0.8-2.4,0.5-3.6C66.8,50.6,66.1,49.7,65.2,49.1L65.2,49.1z M18.3,49.9c0.8,0.2,1.5,0.8,2,1.5s0.5,1.6,0.3,2.5
			s-0.8,1.5-1.5,2c-1.5,0.9-3.5,0.4-4.4-1.2c-0.4-0.8-0.6-1.6-0.3-2.5s0.8-1.5,1.5-2c0.5-0.3,1.1-0.4,1.6-0.4
			C17.8,49.8,18,49.8,18.3,49.9z M20.3,28.6c-0.4,0.8-1.1,1.3-2,1.5s-1.7,0.1-2.5-0.3c-0.8-0.4-1.3-1.1-1.5-2s-0.1-1.7,0.3-2.5
			c0.6-1,1.7-1.6,2.8-1.6c0.5,0,1.1,0.1,1.6,0.4c0.8,0.4,1.3,1.1,1.5,2S20.7,27.9,20.3,28.6z M39.9,17.2c-1.8,0-3.2-1.5-3.2-3.2
			c0-0.9,0.3-1.7,1-2.3c0.6-0.6,1.4-0.9,2.3-0.9c1.8,0,3.2,1.5,3.2,3.2S41.7,17.2,39.9,17.2z M61.7,30.1c-0.8-0.2-1.5-0.8-2-1.5
			s-0.5-1.6-0.3-2.5s0.8-1.5,1.5-2c0.5-0.3,1.1-0.4,1.6-0.4c1.1,0,2.2,0.6,2.8,1.6c0.4,0.8,0.6,1.6,0.3,2.5s-0.8,1.5-1.5,2
			S62.5,30.4,61.7,30.1z M65.3,54.6c-0.9,1.5-2.9,2.1-4.4,1.2c-0.8-0.4-1.3-1.1-1.5-2c-0.2-0.8-0.1-1.7,0.3-2.5s1.1-1.3,2-1.5
			c0.3-0.1,0.6-0.1,0.8-0.1c0.6,0,1.1,0.2,1.6,0.4c0.8,0.4,1.3,1.1,1.5,2S65.8,53.9,65.3,54.6L65.3,54.6z"/>
		<path class="st0" d="M44,63.2h-0.8v-0.8c0-1.8-1.5-3.2-3.2-3.2s-3.2,1.5-3.2,3.2v0.8H36c-0.4,0-0.8,0.3-0.8,0.8v6
			c0,0.4,0.3,0.8,0.8,0.8h8c0.4,0,0.8-0.3,0.8-0.8v-6C44.8,63.6,44.4,63.2,44,63.2z M38.2,62.5c0-1,0.8-1.8,1.8-1.8s1.8,0.8,1.8,1.8
			v0.8h-3.5L38.2,62.5L38.2,62.5z M43.2,69.2h-6.5v-4.5h6.5V69.2z"/>
	</g>
</g>
<text transform="matrix(1 0 0 1 -8.8838 -20.6004)"><tspan x="0" y="0" style="font-family:'CiscoSansTT-ExtraLight'; font-size:10px;">Secure Service Edge  </tspan><tspan x="36.2" y="12" style="font-family:'CiscoSansTT-ExtraLight'; font-size:10px;">(SSE)</tspan></text>
</svg>
