<svg viewBox="0 0 80 80" xmlns="http://www.w3.org/2000/svg" xmlns:xlink="http://www.w3.org/1999/xlink" xml:space="preserve" overflow="hidden"><style>
.MsftOfcThm_Background1_Fill_v2 {
 fill:#FFFFFF; 
}
</style>
<g id="guides"><g></g></g><g id="labels"></g><g id="icon_art"><g id="New_icons_00000116929259560865885620000005516164892065952652_"></g><g id="New_icons_00000029732068479709631870000004700274992073973945_"></g><g><path d="M-500.3-719.5-501.6-719.5C-501.6-719.9-501.5-720.4-501.5-720.7-501.5-728.8-508.1-735.5-516.3-735.5-521.8-735.5-526.9-732.4-529.4-727.5L-532.3-727.5C-537.2-727.5-541.4-724.2-542.7-719.5L-548.3-719.5C-552-719.5-555.1-716.5-555.1-712.7-555.1-708.9-552.1-705.9-548.3-705.9L-545-705.9C-544.6-703.6-542.7-701.9-540.3-701.9L-508.3-701.9C-505.9-701.9-504-703.6-503.6-705.9L-500.3-705.9C-496.6-705.9-493.5-708.9-493.5-712.7-493.5-716.5-496.6-719.5-500.3-719.5ZM-500.3-707.5-505.1-707.5-505.1-706.7C-505.1-704.9-506.6-703.5-508.3-703.5L-540.3-703.5C-542.1-703.5-543.5-705-543.5-706.7L-543.5-707.5-548.3-707.5C-551.2-707.5-553.5-709.9-553.5-712.7-553.5-715.5-551.1-717.9-548.3-717.9L-541.5-717.9-541.4-718.5C-540.5-722.8-536.7-725.9-532.3-725.9L-528.5-725.9-528.3-726.3C-526.1-730.9-521.4-733.9-516.4-733.9-509.1-733.9-503.2-728-503.2-720.7-503.2-720.1-503.2-719.5-503.4-718.8L-503.5-717.9-500.5-717.9C-497.6-717.9-495.3-715.5-495.3-712.7-495.3-709.9-497.4-707.5-500.3-707.5Z" class="MsftOfcThm_Background1_Fill_v2" stroke="none" stroke-width="1" stroke-linecap="butt" stroke-linejoin="miter" stroke-miterlimit="4" fill="#FFFFFF" fill-opacity="1"/><path d="M-500.3-763.5-501.9-763.5C-503.1-768.2-507.4-771.5-512.3-771.5L-520.3-771.5C-523.6-771.5-526.6-770-528.6-767.5L-530.3-767.5C-533.2-767.5-536-766-537.6-763.5L-548.3-763.5C-552-763.5-555.1-760.5-555.1-756.7-555.1-752.9-552.1-749.9-548.3-749.9L-545-749.9C-544.6-747.6-542.7-745.9-540.3-745.9L-508.3-745.9C-505.9-745.9-504-747.6-503.6-749.9L-500.3-749.9C-496.6-749.9-493.5-752.9-493.5-756.7-493.5-760.5-496.6-763.5-500.3-763.5ZM-500.3-751.5-505.1-751.5-505.1-750.7C-505.1-748.9-506.6-747.5-508.3-747.5L-540.3-747.5C-542.1-747.5-543.5-749-543.5-750.7L-543.5-751.5-548.3-751.5C-551.2-751.5-553.5-753.9-553.5-756.7-553.5-759.5-551.1-761.9-548.3-761.9L-536.8-761.9-536.6-762.3C-535.3-764.5-532.9-765.9-530.3-765.9L-527.9-765.9-527.7-766.2C-525.9-768.6-523.2-769.9-520.3-769.9L-512.3-769.9C-507.9-769.9-504.1-766.8-503.2-762.5L-503.1-761.9-500.3-761.9C-497.4-761.9-495.1-759.5-495.1-756.7-495.1-753.9-497.4-751.5-500.3-751.5Z" class="MsftOfcThm_Background1_Fill_v2" stroke="none" stroke-width="1" stroke-linecap="butt" stroke-linejoin="miter" stroke-miterlimit="4" fill="#FFFFFF" fill-opacity="1"/><path d="M-400.1-809.7C-400.4-810-400.9-810-401.2-809.7L-483.6-727.3C-483.9-727-483.9-726.5-483.6-726.2-483.5-726.1-483.3-726-483.1-726-482.9-726-482.7-726.1-482.6-726.2L-400.2-808.6C-399.8-809-399.8-809.4-400.1-809.7Z" class="MsftOfcThm_Background1_Fill_v2" stroke="none" stroke-width="1" stroke-linecap="butt" stroke-linejoin="miter" stroke-miterlimit="4" fill="#FFFFFF" fill-opacity="1"/><path d="M-397.3-806.9C-397.6-807.2-398.1-807.2-398.4-806.9L-480.8-724.5C-481.1-724.2-481.1-723.7-480.8-723.4-480.7-723.3-480.5-723.2-480.3-723.2-480.1-723.2-479.9-723.3-479.8-723.4L-397.4-805.8C-397-806.1-397-806.6-397.3-806.9Z" class="MsftOfcThm_Background1_Fill_v2" stroke="none" stroke-width="1" stroke-linecap="butt" stroke-linejoin="miter" stroke-miterlimit="4" fill="#FFFFFF" fill-opacity="1"/><path d="M-394.5-804.1C-394.8-804.4-395.3-804.4-395.6-804.1L-478-721.7C-478.3-721.4-478.3-720.9-478-720.6-477.9-720.5-477.7-720.4-477.5-720.4-477.3-720.4-477.1-720.5-477-720.6L-394.6-803C-394.2-803.3-394.2-803.8-394.5-804.1Z" class="MsftOfcThm_Background1_Fill_v2" stroke="none" stroke-width="1" stroke-linecap="butt" stroke-linejoin="miter" stroke-miterlimit="4" fill="#FFFFFF" fill-opacity="1"/><path d="M-391.6-801.2C-391.9-801.5-392.4-801.5-392.7-801.2L-475.1-718.8C-475.4-718.5-475.4-718-475.1-717.7-475-717.6-474.8-717.5-474.6-717.5-474.4-717.5-474.2-717.6-474.1-717.7L-391.7-800.1C-391.3-800.5-391.3-801-391.6-801.2Z" class="MsftOfcThm_Background1_Fill_v2" stroke="none" stroke-width="1" stroke-linecap="butt" stroke-linejoin="miter" stroke-miterlimit="4" fill="#FFFFFF" fill-opacity="1"/><path d="M-388.8-798.4C-389.1-798.7-389.6-798.7-389.9-798.4L-472.3-716C-472.6-715.7-472.6-715.2-472.3-714.9-472.2-714.8-472-714.7-471.8-714.7-471.6-714.7-471.4-714.8-471.3-714.9L-388.9-797.3C-388.5-797.7-388.5-798.1-388.8-798.4Z" class="MsftOfcThm_Background1_Fill_v2" stroke="none" stroke-width="1" stroke-linecap="butt" stroke-linejoin="miter" stroke-miterlimit="4" fill="#FFFFFF" fill-opacity="1"/><path d="M-386-795.6C-386.3-795.9-386.8-795.9-387.1-795.6L-469.5-713.2C-469.8-712.9-469.8-712.4-469.5-712.1-469.4-712-469.2-711.9-469-711.9-468.8-711.9-468.6-712-468.5-712.1L-386.1-794.5C-385.7-794.8-385.7-795.3-386-795.6Z" class="MsftOfcThm_Background1_Fill_v2" stroke="none" stroke-width="1" stroke-linecap="butt" stroke-linejoin="miter" stroke-miterlimit="4" fill="#FFFFFF" fill-opacity="1"/><path d="M-383.1-792.8C-383.4-793.1-383.9-793.1-384.2-792.8L-466.6-710.4C-466.9-710.1-466.9-709.6-466.6-709.3-466.5-709.2-466.3-709.1-466.1-709.1-465.9-709.1-465.7-709.2-465.6-709.3L-383.2-791.7C-382.8-792-382.8-792.5-383.1-792.8Z" class="MsftOfcThm_Background1_Fill_v2" stroke="none" stroke-width="1" stroke-linecap="butt" stroke-linejoin="miter" stroke-miterlimit="4" fill="#FFFFFF" fill-opacity="1"/><path d="M-380.3-789.9C-380.6-790.2-381.1-790.2-381.4-789.9L-463.8-707.5C-464.1-707.2-464.1-706.7-463.8-706.4-463.7-706.3-463.5-706.2-463.3-706.2-463.1-706.2-462.9-706.3-462.8-706.4L-380.4-788.8C-380-789.2-380-789.6-380.3-789.9Z" class="MsftOfcThm_Background1_Fill_v2" stroke="none" stroke-width="1" stroke-linecap="butt" stroke-linejoin="miter" stroke-miterlimit="4" fill="#FFFFFF" fill-opacity="1"/><path d="M-377.5-787.1C-377.8-787.4-378.3-787.4-378.6-787.1L-461-704.7C-461.3-704.4-461.3-703.9-461-703.6-460.9-703.5-460.7-703.4-460.5-703.4-460.3-703.4-460.1-703.5-460-703.6L-377.6-786C-377.2-786.3-377.2-786.8-377.5-787.1Z" class="MsftOfcThm_Background1_Fill_v2" stroke="none" stroke-width="1" stroke-linecap="butt" stroke-linejoin="miter" stroke-miterlimit="4" fill="#FFFFFF" fill-opacity="1"/><path d="M-374.7-784.3C-375-784.6-375.5-784.6-375.8-784.3L-458.2-701.9C-458.5-701.6-458.5-701.1-458.2-700.8-458.1-700.7-457.9-700.6-457.7-700.6-457.5-700.6-457.3-700.7-457.2-700.8L-374.8-783.2C-374.4-783.5-374.4-784-374.7-784.3Z" class="MsftOfcThm_Background1_Fill_v2" stroke="none" stroke-width="1" stroke-linecap="butt" stroke-linejoin="miter" stroke-miterlimit="4" fill="#FFFFFF" fill-opacity="1"/><path d="M-371.8-781.5C-372.1-781.8-372.6-781.8-372.9-781.5L-455.3-699.1C-455.6-698.8-455.6-698.3-455.3-698-455.2-697.9-455-697.8-454.8-697.8-454.6-697.8-454.4-697.9-454.3-698L-371.9-780.4C-371.5-780.7-371.5-781.2-371.8-781.5Z" class="MsftOfcThm_Background1_Fill_v2" stroke="none" stroke-width="1" stroke-linecap="butt" stroke-linejoin="miter" stroke-miterlimit="4" fill="#FFFFFF" fill-opacity="1"/><path d="M-369-778.6C-369.3-778.9-369.8-778.9-370.1-778.6L-452.5-696.2C-452.8-695.9-452.8-695.4-452.5-695.1-452.4-695-452.2-694.9-452-694.9-451.8-694.9-451.6-695-451.5-695.1L-369.1-777.5C-368.7-777.9-368.7-778.3-369-778.6Z" class="MsftOfcThm_Background1_Fill_v2" stroke="none" stroke-width="1" stroke-linecap="butt" stroke-linejoin="miter" stroke-miterlimit="4" fill="#FFFFFF" fill-opacity="1"/><path d="M-366.2-775.8C-366.5-776.1-367-776.1-367.3-775.8L-449.7-693.4C-450-693.1-450-692.6-449.7-692.3-449.6-692.2-449.4-692.1-449.2-692.1-449-692.1-448.8-692.2-448.7-692.3L-366.3-774.7C-365.9-775-365.9-775.5-366.2-775.8Z" class="MsftOfcThm_Background1_Fill_v2" stroke="none" stroke-width="1" stroke-linecap="butt" stroke-linejoin="miter" stroke-miterlimit="4" fill="#FFFFFF" fill-opacity="1"/><path d="M-363.3-773C-363.6-773.3-364.1-773.3-364.4-773L-446.8-690.6C-447.1-690.3-447.1-689.8-446.8-689.5-446.7-689.4-446.5-689.3-446.3-689.3-446.1-689.3-445.9-689.4-445.8-689.5L-363.4-771.9C-363-772.2-363-772.7-363.3-773Z" class="MsftOfcThm_Background1_Fill_v2" stroke="none" stroke-width="1" stroke-linecap="butt" stroke-linejoin="miter" stroke-miterlimit="4" fill="#FFFFFF" fill-opacity="1"/><path d="M-360.5-770.1C-360.8-770.4-361.3-770.4-361.6-770.1L-444-687.7C-444.3-687.4-444.3-686.9-444-686.6-443.9-686.5-443.7-686.4-443.5-686.4-443.3-686.4-443.1-686.5-443-686.6L-360.6-769C-360.2-769.4-360.2-769.8-360.5-770.1Z" class="MsftOfcThm_Background1_Fill_v2" stroke="none" stroke-width="1" stroke-linecap="butt" stroke-linejoin="miter" stroke-miterlimit="4" fill="#FFFFFF" fill-opacity="1"/><path d="M-358.7-767.3-441.1-684.9C-441.4-684.6-441.4-684.1-441.1-683.8-441-683.7-440.8-683.6-440.6-683.6-440.4-683.6-440.2-683.7-440.1-683.8L-357.7-766.2C-357.4-766.5-357.4-767-357.7-767.3-358-767.6-358.4-767.6-358.7-767.3Z" class="MsftOfcThm_Background1_Fill_v2" stroke="none" stroke-width="1" stroke-linecap="butt" stroke-linejoin="miter" stroke-miterlimit="4" fill="#FFFFFF" fill-opacity="1"/><path d="M-569.9-677.4-575.9-671.4-580.8-666.5C-581-667.4-581.4-668.2-581.8-669.1L-577.7-673.2-571.7-679.2C-571.4-679.5-571.4-680-571.7-680.3-572-680.6-572.5-680.6-572.8-680.3L-578.8-674.3-582.6-670.5C-583.1-671.2-583.6-671.9-584.1-672.5L-580.5-676.1-574.5-682.1C-574.2-682.4-574.2-682.9-574.5-683.2-574.8-683.5-575.3-683.5-575.6-683.2L-581.6-677.2-585.2-673.6C-585.8-674.2-586.5-674.7-587.2-675.1L-577.4-684.9C-577.1-685.2-577.1-685.7-577.4-686-577.7-686.3-578.2-686.3-578.5-686L-588.6-675.9C-589.4-676.3-590.3-676.6-591.2-676.9L-580.3-687.8C-580-688.1-580-688.6-580.3-688.9-580.6-689.2-581.1-689.2-581.4-688.9L-593-677.3C-593.7-677.4-594.4-677.5-595.2-677.5-600.9-677.5-605.8-674.2-608.3-669.5L-611.2-669.5C-616.2-669.5-620.4-666.1-621.6-661.5L-627.2-661.5C-630.9-661.5-634-658.5-634-654.7-634-650.9-631-647.9-627.2-647.9L-623.9-647.9C-623.8-647.5-623.7-647.1-623.5-646.7L-623.8-646.4C-624.1-646.1-624.1-645.6-623.8-645.3-623.7-645.2-623.5-645.1-623.3-645.1-623.1-645.1-622.9-645.2-622.8-645.3L-622.7-645.4C-622.1-644.8-621.4-644.3-620.5-644.1L-621-643.6C-621.3-643.3-621.3-642.8-621-642.5-620.9-642.4-620.7-642.3-620.5-642.3-620.3-642.3-620.1-642.4-620-642.5L-618.6-643.9-615.1-643.9-618.2-640.8-624.2-634.8C-624.5-634.5-624.5-634-624.2-633.7-624.1-633.6-623.9-633.5-623.7-633.5-623.5-633.5-623.3-633.6-623.2-633.7L-617.2-639.7-613-643.9-609.5-643.9-615.5-637.9-621.5-631.9C-621.8-631.6-621.8-631.1-621.5-630.8-621.4-630.7-621.2-630.6-621-630.6-620.8-630.6-620.6-630.7-620.5-630.8L-614.5-636.8-607.5-643.8-604-643.8-612.8-635-618.8-629C-619.1-628.7-619.1-628.2-618.8-627.9-618.7-627.8-618.5-627.7-618.3-627.7-618.1-627.7-617.9-627.8-617.8-627.9L-611.8-633.9-601.9-643.8-598.4-643.8-616-626.2C-616.3-625.9-616.3-625.4-616-625.1-615.9-625-615.7-624.9-615.5-624.9-615.3-624.9-615.1-625-615-625.1L-596.3-643.8-592.8-643.8-613.3-623.3C-613.6-623-613.6-622.5-613.3-622.2-613.2-622.1-613-622-612.8-622-612.6-622-612.4-622.1-612.3-622.2L-590.8-643.7-587.7-643.7C-585.3-643.7-583.4-645.4-583-647.7L-579.7-647.7C-576-647.7-572.9-650.7-572.9-654.5-572.9-656.4-573.7-658.2-575-659.4L-569.8-664.6C-569.5-664.9-569.5-665.4-569.8-665.7-570.1-666-570.6-666-570.9-665.7L-576.3-660.3C-577.1-660.8-578-661.1-579-661.2L-572.7-667.5C-572.4-667.8-572.4-668.3-572.7-668.6-573-668.9-573.5-668.9-573.8-668.6L-581.1-661.3C-581.1-661.7-581-662.1-581-662.5-581-663.2-581.1-664-581.2-664.7L-575.6-670.3-569.6-676.3C-569.3-676.6-569.3-677.1-569.6-677.4-569.9-677.7-569.7-677.7-569.9-677.4ZM-582.1-665.2-586.1-661.2-589.6-661.2-583-667.8C-582.6-667-582.3-666.1-582.1-665.2ZM-582.2-659.5-588.4-653.3-591.9-653.3-585.4-659.8-582.1-659.8C-582.1-659.7-582.2-659.6-582.2-659.5ZM-584.1-649.8C-584-649.6-584-649.4-583.9-649.3L-584.6-649.3-584.1-649.8ZM-586.8-649.2-588.7-649.2C-587.6-649.8-586.5-650.4-585.5-651.3-585.3-651.2-585.2-651.1-585-651L-586.8-649.2ZM-620.2-659.7-610.2-659.7-616.7-653.2-618.7-653.2C-619.7-654.7-620.3-656.5-620.3-658.4-620.3-658.9-620.3-659.3-620.2-659.7ZM-608.3-662.5C-608.3-664.4-607.9-666.1-607.2-667.7L-603-667.7C-602.7-667.7-602.4-667.7-602.2-667.7L-608.2-661.7C-608.3-661.9-608.3-662.2-608.3-662.5ZM-595.2-663.4-597.3-661.3-600.8-661.3-596.7-665.4C-596.2-664.8-595.7-664.1-595.2-663.4ZM-600.5-650.4-599.2-651.7-596.9-651.7C-597.7-651-598.6-650.4-599.6-650-599.8-650.1-600.1-650.3-600.5-650.4ZM-616.1-651.7-612.6-651.7-614.5-649.8C-615.3-650.1-616.1-650.5-616.8-651.1L-616.1-651.7ZM-614.6-653.2-609.3-658.5C-609.1-657.6-608.7-656.8-608.3-655.9L-611-653.2-614.6-653.2ZM-607.2-657.1C-607.6-657.9-607.9-658.8-608.1-659.7L-604.6-659.7-607.2-657.1ZM-602.4-659.7-598.9-659.7-605-653.6C-605.6-654.2-606.1-654.9-606.5-655.6L-602.4-659.7ZM-607.5-654.6C-607.2-654.1-606.9-653.7-606.5-653.2L-608.9-653.2-607.5-654.6ZM-601.8-651.1C-602.1-651.3-602.4-651.5-602.7-651.7L-601.1-651.7-601.8-651.1ZM-597.6-653.2-594-656.8C-594.2-655.5-594.8-654.2-595.5-653.2L-597.6-653.2ZM-593.9-659.1-599.8-653.2-603.3-653.2-596.8-659.7-594-659.7C-593.9-659.5-593.9-659.3-593.9-659.1ZM-595.3-661.2-594.6-661.9C-594.5-661.7-594.4-661.4-594.3-661.2L-595.3-661.2ZM-603-661.2-606.5-661.2-600.4-667.3C-599.5-667-598.7-666.7-598-666.2L-603-661.2ZM-618.8-651.1-620.6-649.3-622.1-649.3C-621.8-650.6-620.7-651.6-619.3-651.8-619.2-651.5-619-651.3-618.8-651.1ZM-617.7-650.1C-617.3-649.8-616.9-649.5-616.5-649.3L-618.6-649.3-617.7-650.1ZM-612.8-649.4-610.5-651.7-607-651.7-609.5-649.2-611.2-649.2C-611.6-649.2-612.2-649.3-612.8-649.4ZM-604.9-651.6C-604.3-651-603.6-650.5-602.9-650.1L-603.7-649.3-607.2-649.3-604.9-651.6ZM-595.9-649.3-593.4-651.8-589.9-651.8-592-649.7C-593-649.5-594-649.3-595-649.3-595.4-649.2-595.6-649.3-595.9-649.3ZM-587.8-651.7-587.4-651.7C-587.8-651.4-588.2-651.2-588.6-650.9L-587.8-651.7ZM-585.8-653.1C-586-653.2-586.2-653.2-586.4-653.2L-583.6-656C-584.2-654.9-584.9-653.9-585.8-653.1ZM-593.3-654C-592.7-655.4-592.3-656.9-592.3-658.5-592.3-658.5-592.3-658.5-592.3-658.5L-591.1-659.7-587.6-659.7-593.3-654ZM-583.7-669.3-591.7-661.3-592.7-661.3C-592.9-662-593.1-662.6-593.4-663.2L-585.2-671.4C-584.6-670.7-584.1-670-583.7-669.3ZM-586.3-672.4-594.2-664.5C-594.7-665.2-595.2-665.8-595.8-666.4L-588.3-673.9C-587.6-673.4-586.9-672.9-586.3-672.4ZM-589.7-674.6-597-667.3C-597.7-667.8-598.5-668.2-599.3-668.5L-592.4-675.4C-591.4-675.3-590.5-675-589.7-674.6ZM-595.1-675.7C-594.8-675.7-594.5-675.7-594.3-675.7L-601-669C-601.7-669.1-602.4-669.2-603.2-669.2L-606.6-669.2C-604.1-673.1-599.9-675.7-595.1-675.7ZM-611.1-667.7-608.9-667.7C-609.5-666.1-609.9-664.3-609.9-662.5-609.9-662.1-609.9-661.7-609.8-661.3L-619.9-661.3C-618.7-665-615.2-667.7-611.1-667.7ZM-632.3-654.5C-632.3-657.4-629.9-659.7-627.1-659.7L-621.8-659.7C-621.8-659.3-621.9-658.9-621.9-658.5-621.9-656.5-621.3-654.7-620.4-653.1-622.2-652.6-623.5-651.1-623.8-649.3L-627.1-649.3C-630-649.2-632.3-651.6-632.3-654.5ZM-622.2-647.7-622.2-647.7-622.2-647.7C-622.2-647.7-622.2-647.7-622.2-647.7ZM-619.1-645.2C-620.1-645.2-620.9-645.6-621.5-646.3L-620.1-647.7-616.6-647.7-619.1-645.2-619.1-645.2ZM-616.9-645.2-614.4-647.7-611.1-647.7-610.9-647.7-613.4-645.2-616.9-645.2ZM-611.3-645.2-608.8-647.7-605.3-647.7-607.8-645.2-611.3-645.2ZM-605.6-645.2-603.1-647.7-603.1-647.7-599.6-647.7-602.1-645.2-605.6-645.2ZM-599.9-645.2-597.4-647.7-593.9-647.7-596.4-645.2-599.9-645.2ZM-594.3-645.2-591.8-647.7-588.3-647.7-590.8-645.2-594.3-645.2ZM-587.1-645.2-588.7-645.2-586.2-647.7-584-647.7C-584.3-646.3-585.5-645.2-587.1-645.2ZM-573.8-654.5C-573.8-651.6-576.2-649.3-579-649.3L-582.3-649.3C-582.4-649.9-582.6-650.4-582.9-650.9L-575.4-658.4C-574.5-657.4-573.8-656-573.8-654.5ZM-579.1-659.7C-578.3-659.7-577.5-659.5-576.8-659.2L-584-652C-584.1-652.1-584.3-652.2-584.4-652.3-582.7-654.1-581.5-656.2-580.9-658.6L-579.9-659.6-579.1-659.6ZM-581.8-662.5C-581.8-662.1-581.8-661.7-581.9-661.3L-584-661.3-581.9-663.4C-581.8-663.1-581.8-662.8-581.8-662.5Z" class="MsftOfcThm_Background1_Fill_v2" stroke="none" stroke-width="1" stroke-linecap="butt" stroke-linejoin="miter" stroke-miterlimit="4" fill="#FFFFFF" fill-opacity="1"/><path d="M64 35.2 62.7 35.2C62.7 34.8 62.8 34.4 62.8 34 62.8 30.2 61.3 26.7 59 24.1L66.4 16.7C66.7 16.4 66.7 15.9 66.4 15.6 66.1 15.3 65.6 15.3 65.3 15.6L57.9 23C57.3 22.4 56.6 21.9 55.9 21.5L60.7 16.7C61 16.4 61 15.9 60.7 15.6 60.4 15.3 59.9 15.3 59.6 15.6L54.5 20.7C53.7 20.3 52.8 20 51.9 19.7L55 16.6C55.3 16.3 55.3 15.8 55 15.5 54.7 15.2 54.2 15.2 53.9 15.5L50.2 19.2C49.5 19.1 48.8 19 48 19 42.5 19 37.4 22.1 34.9 27L32 27C27 27 22.8 30.4 21.6 35L16 35C12.3 35 9.2 38 9.2 41.8 9.2 45.6 12.2 48.6 16 48.6L19.3 48.6C19.7 50.9 21.6 52.6 24 52.6L33.8 52.6 25.8 60.6C25.5 60.9 25.5 61.4 25.8 61.7 25.9 61.8 26.1 61.9 26.3 61.9 26.5 61.9 26.7 61.8 26.8 61.7L35.8 52.7 39.3 52.7 31.3 60.7C31 61 31 61.5 31.3 61.8 31.4 61.9 31.6 62 31.8 62 32 62 32.2 61.9 32.3 61.8L41.3 52.8 44.8 52.8 36.8 60.8C36.5 61.1 36.5 61.6 36.8 61.9 36.9 62 37.1 62.1 37.3 62.1 37.5 62.1 37.7 62 37.8 61.9L46.8 52.9 56 52.9C58.6 52.9 60.8 50.8 60.8 48.1 60.8 47.7 60.5 47.3 60 47.3 59.5 47.3 59.2 47.6 59.2 48.1 59.2 49.9 57.7 51.3 56 51.3L24 51.3C22.5 51.3 21.2 50.2 20.8 48.8L32 48.8 36 48.8C36.4 48.8 36.8 48.5 36.8 48 36.8 47.5 36.5 47.2 36 47.2L32 47.2C26.9 47.2 22.8 43.1 22.8 38 22.8 32.9 26.9 28.8 32 28.8L40 28.8C45.1 28.8 49.2 32.9 49.2 38 49.2 38.4 49.5 38.8 50 38.8 50.5 38.8 50.8 38.5 50.8 38 50.8 37.6 50.8 37.2 50.7 36.8L61 36.8C59.7 42.8 54.4 47.3 48 47.3 47.6 47.3 47.2 47.6 47.2 48.1 47.2 48.6 47.5 48.9 48 48.9 55.2 48.9 61.2 43.7 62.5 36.9L64 36.9C66.9 36.9 69.2 39.3 69.2 42.1 69.2 44.9 66.8 47.3 64 47.3 63.6 47.3 63.2 47.6 63.2 48.1 63.2 48.6 63.5 48.9 64 48.9 67.7 48.9 70.8 45.9 70.8 42.1 70.8 38.3 67.7 35.2 64 35.2ZM26.6 47.2 16 47.2C13.1 47.2 10.8 44.8 10.8 42 10.8 39.2 13.2 36.8 16 36.8L21.3 36.8C21.3 37.2 21.2 37.6 21.2 38 21.2 41.9 23.4 45.4 26.6 47.2ZM53.4 21.9 46.1 29.2C45.4 28.7 44.6 28.3 43.8 28L50.7 21.1C51.6 21.2 52.5 21.5 53.4 21.9ZM36.6 27.2C39 23.2 43.3 20.7 48 20.7 48.3 20.7 48.6 20.7 48.8 20.7L42.1 27.4C41.4 27.3 40.7 27.2 39.9 27.2L36.6 27.2ZM47.3 30.1 54.8 22.6C55.5 23 56.2 23.5 56.8 24.1L48.9 32C48.5 31.3 47.9 30.7 47.3 30.1ZM50.4 35.2C50.2 34.5 50 33.9 49.7 33.3L57.9 25.1C60 27.4 61.3 30.5 61.3 33.9 61.3 34.3 61.3 34.7 61.2 35.1L50.4 35.1Z" class="MsftOfcThm_Background1_Fill_v2" stroke="none" stroke-width="1" stroke-linecap="butt" stroke-linejoin="miter" stroke-miterlimit="4" fill="#FFFFFF" fill-opacity="1"/></g></g></svg>