<svg viewBox="0 0 80 80" xmlns="http://www.w3.org/2000/svg" xmlns:xlink="http://www.w3.org/1999/xlink" overflow="hidden"><style>
.MsftOfcThm_Background1_Fill_v2 {
 fill:#0D274D; 
}
</style>
<defs></defs><g id="DO_NOT_TOUCH_Outlines_"><g><path d="M65.15 49.07C66.2 46.16 66.75 43.12 66.75 40 66.75 36.88 66.21 33.82 65.16 30.92 66.12 30.28 66.81 29.34 67.11 28.21 67.44 26.98 67.26 25.71 66.63 24.61 65.37 22.44 62.65 21.66 60.43 22.75 56.38 17.94 50.82 14.73 44.66 13.66 44.48 11.2 42.45 9.24 39.94 9.24 38.67 9.24 37.48 9.73 36.58 10.63 35.75 11.46 35.29 12.54 35.22 13.69 29.1 14.79 23.6 17.98 19.59 22.75 17.37 21.65 14.64 22.43 13.38 24.6 12.74 25.7 12.57 26.98 12.9 28.2 13.2 29.32 13.9 30.26 14.85 30.91 13.8 33.8 13.26 36.85 13.26 39.99 13.26 43.13 13.8 46.16 14.85 49.07 13.89 49.71 13.2 50.65 12.9 51.78 12.57 53.01 12.75 54.29 13.38 55.38 14.26 56.9 15.86 57.74 17.5 57.74 18.21 57.74 18.92 57.57 19.58 57.24 22.82 61.07 27.02 63.91 31.77 65.45L32.23 64.02C27.78 62.58 23.85 59.93 20.8 56.36 21.4 55.77 21.85 55.04 22.07 54.2 22.4 52.97 22.22 51.69 21.59 50.6 20.95 49.5 19.93 48.72 18.7 48.39 17.87 48.17 17.03 48.2 16.22 48.42 15.26 45.72 14.74 42.89 14.74 39.98 14.74 37.07 15.25 34.25 16.21 31.56 16.62 31.67 17.04 31.73 17.47 31.73 17.9 31.73 18.29 31.68 18.7 31.57 19.93 31.24 20.95 30.46 21.59 29.36 22.23 28.26 22.4 26.98 22.07 25.76 21.85 24.93 21.4 24.2 20.81 23.61 24.56 19.19 29.68 16.23 35.36 15.18 35.9 17.21 37.74 18.72 39.94 18.72 42.14 18.72 43.99 17.2 44.52 15.15 50.24 16.18 55.4 19.15 59.18 23.61 58.58 24.2 58.14 24.92 57.92 25.75 57.59 26.98 57.77 28.26 58.4 29.35 59.04 30.45 60.06 31.23 61.29 31.56 61.7 31.67 62.11 31.72 62.52 31.72 62.93 31.72 63.37 31.66 63.78 31.55 64.74 34.24 65.25 37.06 65.25 39.97 65.25 42.88 64.74 45.7 63.78 48.41 62.97 48.19 62.13 48.16 61.3 48.38 60.07 48.71 59.05 49.49 58.41 50.59 57.77 51.69 57.6 52.97 57.93 54.19 58.15 55.03 58.6 55.76 59.2 56.35 56.15 59.92 52.22 62.56 47.77 64.01L48.23 65.44C52.99 63.9 57.18 61.06 60.42 57.23 61.09 57.56 61.8 57.73 62.5 57.73 64.14 57.73 65.74 56.88 66.62 55.37 67.26 54.27 67.43 52.99 67.1 51.77 66.8 50.64 66.1 49.7 65.14 49.06ZM18.32 49.86C19.16 50.08 19.86 50.62 20.3 51.37 20.74 52.12 20.85 53 20.63 53.84 20.41 54.68 19.87 55.38 19.12 55.82 17.57 56.72 15.58 56.19 14.68 54.64 14.24 53.89 14.13 53.01 14.35 52.17 14.57 51.33 15.11 50.63 15.86 50.19 16.36 49.9 16.92 49.75 17.48 49.75 17.76 49.75 18.04 49.79 18.32 49.86ZM20.3 28.63C19.86 29.38 19.16 29.92 18.32 30.14 17.48 30.36 16.61 30.25 15.85 29.81 15.1 29.37 14.56 28.67 14.34 27.83 14.12 26.99 14.23 26.12 14.67 25.36 15.27 24.32 16.37 23.74 17.49 23.74 18.04 23.74 18.6 23.88 19.12 24.18 19.87 24.62 20.41 25.32 20.63 26.16 20.85 27 20.73 27.87 20.3 28.63ZM39.95 17.25C38.16 17.25 36.7 15.79 36.7 14 36.7 13.13 37.04 12.32 37.65 11.7 38.26 11.09 39.08 10.75 39.95 10.75 41.74 10.75 43.2 12.21 43.2 14 43.2 15.79 41.74 17.25 39.95 17.25ZM61.69 30.14C60.85 29.92 60.15 29.38 59.71 28.63 59.27 27.88 59.16 27 59.38 26.16 59.6 25.32 60.14 24.62 60.89 24.18 61.4 23.88 61.96 23.74 62.51 23.74 63.63 23.74 64.72 24.32 65.33 25.36 65.77 26.11 65.88 26.99 65.66 27.83 65.44 28.67 64.9 29.37 64.15 29.81 63.4 30.25 62.53 30.36 61.69 30.14ZM65.34 54.63C64.44 56.18 62.45 56.71 60.9 55.81 60.15 55.37 59.61 54.67 59.39 53.83 59.17 52.99 59.29 52.12 59.72 51.36 60.15 50.6 60.86 50.07 61.7 49.85 61.98 49.78 62.26 49.74 62.54 49.74 63.11 49.74 63.66 49.89 64.17 50.18 64.92 50.62 65.46 51.32 65.68 52.16 65.9 53 65.79 53.87 65.35 54.63Z" class="MsftOfcThm_Background1_Fill_v2" stroke="none" stroke-width="1" stroke-linecap="butt" stroke-linejoin="miter" stroke-miterlimit="4" fill="#0D274D" fill-opacity="1"/><path d="M44 63.25 43.25 63.25 43.25 62.5C43.25 60.71 41.79 59.25 40 59.25 38.21 59.25 36.75 60.71 36.75 62.5L36.75 63.25 36 63.25C35.59 63.25 35.25 63.59 35.25 64L35.25 70C35.25 70.41 35.59 70.75 36 70.75L44 70.75C44.41 70.75 44.75 70.41 44.75 70L44.75 64C44.75 63.59 44.41 63.25 44 63.25ZM38.25 62.5C38.25 61.54 39.04 60.75 40 60.75 40.96 60.75 41.75 61.54 41.75 62.5L41.75 63.25 38.25 63.25 38.25 62.5ZM43.25 69.25 36.75 69.25 36.75 64.75 43.25 64.75 43.25 69.25Z" class="MsftOfcThm_Background1_Fill_v2" stroke="none" stroke-width="1" stroke-linecap="butt" stroke-linejoin="miter" stroke-miterlimit="4" fill="#0D274D" fill-opacity="1"/></g></g><g id="titles"><text class="MsftOfcThm_Background1_Fill_v2" fill="#0D274D" fill-opacity="1" font-family="MyriadPro-Regular,Myriad Pro" font-size="6" transform="matrix(1 0 0 1 0 -17.38)"><tspan class="MsftOfcThm_Background1_Fill_v2" fill="#0D274D" fill-opacity="1" x="0" y="0">SSE (</tspan><tspan class="MsftOfcThm_Background1_Fill_v2" fill="#0D274D" fill-opacity="1" letter-spacing="0em" x="11.84" y="0">S</tspan><tspan class="MsftOfcThm_Background1_Fill_v2" fill="#0D274D" fill-opacity="1" x="14.84" y="0">ecu</tspan><tspan class="MsftOfcThm_Background1_Fill_v2" fill="#0D274D" fill-opacity="1" letter-spacing="-0.01em" x="23.84" y="0">r</tspan><tspan class="MsftOfcThm_Background1_Fill_v2" fill="#0D274D" fill-opacity="1" x="25.74" y="0">e </tspan><tspan class="MsftOfcThm_Background1_Fill_v2" fill="#0D274D" fill-opacity="1" letter-spacing="0em" x="30.02" y="0">S</tspan><tspan class="MsftOfcThm_Background1_Fill_v2" fill="#0D274D" fill-opacity="1" x="33.01" y="0">e</tspan><tspan class="MsftOfcThm_Background1_Fill_v2" fill="#0D274D" fill-opacity="1" letter-spacing="0.03em" x="36.02" y="0">r</tspan><tspan class="MsftOfcThm_Background1_Fill_v2" fill="#0D274D" fill-opacity="1" x="38.13" y="0">vi</tspan><tspan class="MsftOfcThm_Background1_Fill_v2" fill="#0D274D" fill-opacity="1" letter-spacing="0em" x="42.42" y="0">c</tspan><tspan class="MsftOfcThm_Background1_Fill_v2" fill="#0D274D" fill-opacity="1" x="45.07" y="0">e </tspan><tspan class="MsftOfcThm_Background1_Fill_v2" fill="#0D274D" fill-opacity="1" letter-spacing="0em" x="49.35" y="0">E</tspan><tspan class="MsftOfcThm_Background1_Fill_v2" fill="#0D274D" fill-opacity="1" x="52.28" y="0">dge)</tspan></text><text class="MsftOfcThm_Background1_Fill_v2" fill="#0D274D" fill-opacity="1" font-family="CiscoSansTT-Bold,CiscoSansTT" font-weight="700" font-size="21" transform="matrix(1 0 0 1 0 -64.88)"><tspan class="MsftOfcThm_Background1_Fill_v2" fill="#0D274D" fill-opacity="1" x="0" y="0">Secu</tspan><tspan class="MsftOfcThm_Background1_Fill_v2" fill="#0D274D" fill-opacity="1" letter-spacing="0em" x="51.7" y="0">r</tspan><tspan class="MsftOfcThm_Background1_Fill_v2" fill="#0D274D" fill-opacity="1" x="59.83" y="0">e</tspan></text></g></svg>