<svg viewBox="0 0 80 80" xmlns="http://www.w3.org/2000/svg" xmlns:xlink="http://www.w3.org/1999/xlink" id="icon_art" overflow="hidden"><style>
.MsftOfcThm_Background1_Fill_v2 {
 fill:#0D274D; 
}
</style>
<defs></defs><path d="M49.92 36.19C49.7 36.19 49.15 36.23 48.72 36.65 48.49 36.87 48.23 37.26 48.23 37.92 48.23 39.19 48.23 44.48 48.23 47.52L48.23 49.52C48.23 51.46 49.27 56.38 58.96 60.11 59.25 60.22 59.65 60.22 59.93 60.11 69.61 56.39 70.66 51.46 70.66 49.52L70.66 47.54C70.66 44.62 70.66 39.19 70.66 37.91 70.66 37.26 70.39 36.86 70.17 36.64 69.75 36.24 69.25 36.19 69.11 36.18L69.04 36.18C64.48 35.75 62.53 34.72 61.24 34.04L61.18 34.01C59.99 33.26 58.92 33.25 57.79 33.96L57.65 34.03C56.36 34.71 54.42 35.74 49.97 36.17L49.92 36.17ZM59.44 58.7 59.37 58.67C50.41 55.19 49.72 50.79 49.72 49.53L49.72 47.48C49.72 44.59 49.72 39.2 49.68 37.9L49.68 37.73 49.99 37.7C54.85 37.25 56.96 36.13 58.35 35.39L58.54 35.29C58.89 35.07 59.16 34.98 59.44 34.98 59.73 34.98 60.03 35.09 60.43 35.34L60.54 35.4C61.94 36.14 64.04 37.26 68.99 37.66L69.16 37.66 69.16 37.83C69.16 37.83 69.16 37.88 69.16 37.93 69.16 39.18 69.16 44.52 69.16 47.8L69.16 49.55C69.16 50.82 68.46 55.21 59.51 58.69L59.44 58.72Z" class="cls-1 MsftOfcThm_Background1_Fill_v2" stroke="none" stroke-width="1" stroke-linecap="butt" stroke-linejoin="miter" stroke-miterlimit="4" fill="#0D274D" fill-opacity="1"/><path d="M21.4 36.87C18.66 36.87 15.97 37.84 13.81 39.59 10.97 41.89 9.35 45.32 9.35 48.98 9.35 52.64 10.44 55.32 12.58 57.43 16.18 60.97 21.5 61.08 22.09 61.08L49.89 61.08C50.3 61.08 50.64 60.74 50.64 60.33 50.64 59.92 50.3 59.58 49.89 59.58L22.09 59.58C21.56 59.58 16.8 59.49 13.63 56.36 11.78 54.54 10.85 52.06 10.85 48.97 10.85 45.88 12.28 42.77 14.76 40.75 16.98 38.95 19.76 38.12 22.6 38.43 22.8 38.45 22.99 38.4 23.15 38.27 23.31 38.15 23.4 37.97 23.43 37.77 24.55 27.88 32.9 20.42 42.86 20.42 49.59 20.42 55.76 23.83 59.38 29.54 59.49 29.71 59.65 29.83 59.85 29.87 60.05 29.91 60.25 29.87 60.42 29.77 60.59 29.66 60.71 29.5 60.75 29.3 60.79 29.1 60.75 28.9 60.65 28.74 56.76 22.59 50.11 18.92 42.87 18.92 37.84 18.92 32.97 20.72 29.16 23.99 25.36 27.25 22.84 31.77 22.08 36.72L22.06 36.88 21.9 36.88C21.75 36.87 21.59 36.86 21.44 36.86Z" class="cls-1 MsftOfcThm_Background1_Fill_v2" stroke="none" stroke-width="1" stroke-linecap="butt" stroke-linejoin="miter" stroke-miterlimit="4" fill="#0D274D" fill-opacity="1"/></svg>