<svg viewBox="0 0 80 80" xmlns="http://www.w3.org/2000/svg" xmlns:xlink="http://www.w3.org/1999/xlink" id="icons" overflow="hidden"><style>
.MsftOfcThm_Background1_Fill_v2 {
 fill:#FFFFFF; 
}
</style>
<defs></defs><path d="M60 9.25 25.25 9.25 25.25 10.75 60 10.75C64 10.75 67.25 14 67.25 18L67.25 62C67.25 66 64 69.25 60 69.25L25.25 69.25 25.25 70.75 60 70.75C64.83 70.75 68.75 66.82 68.75 62L68.75 18C68.75 13.18 64.83 9.25 60 9.25Z" class="MsftOfcThm_Background1_Fill_v2" stroke="none" stroke-width="0" stroke-linecap="butt" stroke-linejoin="miter" stroke-miterlimit="4" stroke-opacity="1" fill="#FFFFFF" fill-opacity="1"/><path d="M54.75 65.25 18 65.25C15.11 65.25 12.75 62.9 12.75 60L12.75 20C12.75 17.1 15.11 14.75 18 14.75L54.75 14.75 54.75 13.25 18 13.25C14.28 13.25 11.25 16.28 11.25 20L11.25 60C11.25 63.72 14.28 66.75 18 66.75L54.75 66.75 54.75 65.25Z" class="MsftOfcThm_Background1_Fill_v2" stroke="none" stroke-width="0" stroke-linecap="butt" stroke-linejoin="miter" stroke-miterlimit="4" stroke-opacity="1" fill="#FFFFFF" fill-opacity="1"/><path d="M40 38.75C44.41 38.75 48 35.16 48 30.75 48 26.34 44.41 22.75 40 22.75 35.59 22.75 32 26.34 32 30.75 32 35.16 35.59 38.75 40 38.75ZM40 24.25C43.58 24.25 46.5 27.17 46.5 30.75 46.5 34.33 43.58 37.25 40 37.25 36.42 37.25 33.5 34.33 33.5 30.75 33.5 27.17 36.42 24.25 40 24.25Z" class="MsftOfcThm_Background1_Fill_v2" stroke="none" stroke-width="0" stroke-linecap="butt" stroke-linejoin="miter" stroke-miterlimit="4" stroke-opacity="1" fill="#FFFFFF" fill-opacity="1"/><path d="M25.25 50 25.25 62.75 56 62.75C58.62 62.75 60.75 60.62 60.75 58L60.75 22C60.75 19.38 58.62 17.25 56 17.25L25.25 17.25 25.25 18.75 56 18.75C57.79 18.75 59.25 20.21 59.25 22L59.25 58C59.25 59.79 57.79 61.25 56 61.25L54.75 61.25 54.75 50C54.75 45.18 50.83 41.25 46 41.25L34 41.25C29.17 41.25 25.25 45.18 25.25 50ZM34 42.75 46 42.75C50 42.75 53.25 46 53.25 50L53.25 61.25 26.75 61.25 26.75 50C26.75 46 30 42.75 34 42.75Z" class="MsftOfcThm_Background1_Fill_v2" stroke="none" stroke-width="0" stroke-linecap="butt" stroke-linejoin="miter" stroke-miterlimit="4" stroke-opacity="1" fill="#FFFFFF" fill-opacity="1"/><path d="M40 58.9C43.31 58.9 46 56.21 46 52.9 46 51.87 45.74 50.89 45.28 50.04L48.53 46.79 47.47 45.73 44.38 48.82C43.28 47.64 41.73 46.9 40 46.9 36.69 46.9 34 49.59 34 52.9 34 56.21 36.69 58.9 40 58.9ZM40 48.4C41.32 48.4 42.49 48.98 43.32 49.88L40 53.2 37.78 50.98 36.72 52.04 39.47 54.79C39.62 54.94 39.81 55.01 40 55.01 40.19 55.01 40.38 54.94 40.53 54.79L44.15 51.17C44.37 51.7 44.5 52.29 44.5 52.9 44.5 55.38 42.48 57.4 40 57.4 37.52 57.4 35.5 55.38 35.5 52.9 35.5 50.42 37.52 48.4 40 48.4Z" class="MsftOfcThm_Background1_Fill_v2" stroke="none" stroke-width="0" stroke-linecap="butt" stroke-linejoin="miter" stroke-miterlimit="4" stroke-opacity="1" fill="#FFFFFF" fill-opacity="1"/></svg>