<svg viewBox="0 0 80 80" xmlns="http://www.w3.org/2000/svg" xmlns:xlink="http://www.w3.org/1999/xlink" id="icons" overflow="hidden"><style>
.MsftOfcThm_Background1_Fill_v2 {
 fill:#FFFFFF; 
}
</style>
<defs></defs><path d="M45.25 43.89C45.25 45.96 46.93 47.64 49 47.64 51.07 47.64 52.75 45.96 52.75 43.89 52.75 41.82 51.07 40.14 49 40.14 46.93 40.14 45.25 41.82 45.25 43.89ZM51.25 43.89C51.25 45.13 50.24 46.14 49 46.14 47.76 46.14 46.75 45.13 46.75 43.89 46.75 42.65 47.76 41.64 49 41.64 50.24 41.64 51.25 42.65 51.25 43.89Z" class="MsftOfcThm_Background1_Fill_v2" stroke="none" stroke-width="0" stroke-linecap="butt" stroke-linejoin="miter" stroke-miterlimit="4" stroke-opacity="1" fill="#FFFFFF" fill-opacity="1"/><path d="M56.47 21.47 53.38 24.56C52.28 23.38 50.73 22.64 49 22.64 45.69 22.64 43 25.33 43 28.64 43 31.95 45.69 34.64 49 34.64 52.31 34.64 55 31.95 55 28.64 55 27.61 54.74 26.63 54.28 25.78L57.53 22.53 56.47 21.47ZM53.5 28.64C53.5 31.12 51.48 33.14 49 33.14 46.52 33.14 44.5 31.12 44.5 28.64 44.5 26.16 46.52 24.14 49 24.14 50.32 24.14 51.49 24.72 52.32 25.62L49 28.94 46.78 26.72 45.72 27.78 48.47 30.53C48.62 30.68 48.81 30.75 49 30.75 49.19 30.75 49.38 30.68 49.53 30.53L53.15 26.91C53.37 27.44 53.5 28.03 53.5 28.64Z" class="MsftOfcThm_Background1_Fill_v2" stroke="none" stroke-width="0" stroke-linecap="butt" stroke-linejoin="miter" stroke-miterlimit="4" stroke-opacity="1" fill="#FFFFFF" fill-opacity="1"/><rect x="23.75" y="48" width="1.5" height="10" class="MsftOfcThm_Background1_Fill_v2" stroke="none" stroke-width="0" stroke-linecap="butt" stroke-linejoin="miter" stroke-miterlimit="4" stroke-opacity="1" fill="#FFFFFF" fill-opacity="1"/><circle cx="24.5" cy="36" r="1" class="MsftOfcThm_Background1_Fill_v2" stroke="none" stroke-width="0" stroke-linecap="butt" stroke-linejoin="miter" stroke-miterlimit="4" stroke-opacity="1" fill="#FFFFFF" fill-opacity="1"/><circle cx="24.5" cy="40" r="1" class="MsftOfcThm_Background1_Fill_v2" stroke="none" stroke-width="0" stroke-linecap="butt" stroke-linejoin="miter" stroke-miterlimit="4" stroke-opacity="1" fill="#FFFFFF" fill-opacity="1"/><circle cx="24.5" cy="44" r="1" class="MsftOfcThm_Background1_Fill_v2" stroke="none" stroke-width="0" stroke-linecap="butt" stroke-linejoin="miter" stroke-miterlimit="4" stroke-opacity="1" fill="#FFFFFF" fill-opacity="1"/><path d="M38 29.25 20 29.25C19.59 29.25 19.25 29.59 19.25 30L19.25 62C19.25 62.41 19.59 62.75 20 62.75L43.89 62.75C43.89 62.75 43.96 62.77 44.01 62.77 44.06 62.77 44.09 62.75 44.13 62.75L53.9 62.75C53.9 62.75 53.97 62.77 54.02 62.77 54.07 62.77 54.1 62.75 54.14 62.75L56.02 62.75C58.64 62.75 60.77 60.62 60.77 58L60.77 22C60.77 19.38 58.64 17.25 56.02 17.25L25.27 17.25 25.27 18.75 56.02 18.75C57.81 18.75 59.27 20.21 59.27 22L59.27 58C59.27 59.79 57.81 61.25 56.02 61.25L54.77 61.25 54.77 54.02C54.77 51.4 52.64 49.27 50.02 49.27L48.02 49.27C45.4 49.27 43.27 51.4 43.27 54.02L43.27 61.25 38.77 61.25 38.77 30C38.77 29.59 38.43 29.25 38.02 29.25ZM20.75 61.25 20.75 30.75 28.25 30.75 28.25 61.25 20.75 61.25ZM29.75 61.25 29.75 30.75 37.25 30.75 37.25 61.25 29.75 61.25ZM44.75 54.02C44.75 52.23 46.21 50.77 48 50.77L50 50.77C51.79 50.77 53.25 52.23 53.25 54.02L53.25 61.25 44.75 61.25 44.75 54.02Z" class="MsftOfcThm_Background1_Fill_v2" stroke="none" stroke-width="0" stroke-linecap="butt" stroke-linejoin="miter" stroke-miterlimit="4" stroke-opacity="1" fill="#FFFFFF" fill-opacity="1"/><rect x="32.75" y="48" width="1.5" height="10" class="MsftOfcThm_Background1_Fill_v2" stroke="none" stroke-width="0" stroke-linecap="butt" stroke-linejoin="miter" stroke-miterlimit="4" stroke-opacity="1" fill="#FFFFFF" fill-opacity="1"/><circle cx="33.5" cy="36" r="1" class="MsftOfcThm_Background1_Fill_v2" stroke="none" stroke-width="0" stroke-linecap="butt" stroke-linejoin="miter" stroke-miterlimit="4" stroke-opacity="1" fill="#FFFFFF" fill-opacity="1"/><circle cx="33.5" cy="40" r="1" class="MsftOfcThm_Background1_Fill_v2" stroke="none" stroke-width="0" stroke-linecap="butt" stroke-linejoin="miter" stroke-miterlimit="4" stroke-opacity="1" fill="#FFFFFF" fill-opacity="1"/><circle cx="33.5" cy="44" r="1" class="MsftOfcThm_Background1_Fill_v2" stroke="none" stroke-width="0" stroke-linecap="butt" stroke-linejoin="miter" stroke-miterlimit="4" stroke-opacity="1" fill="#FFFFFF" fill-opacity="1"/><path d="M60 9.25 25.25 9.25 25.25 10.75 60 10.75C64 10.75 67.25 14 67.25 18L67.25 62C67.25 66 64 69.25 60 69.25L25.25 69.25 25.25 70.75 60 70.75C64.83 70.75 68.75 66.82 68.75 62L68.75 18C68.75 13.18 64.83 9.25 60 9.25Z" class="MsftOfcThm_Background1_Fill_v2" stroke="none" stroke-width="0" stroke-linecap="butt" stroke-linejoin="miter" stroke-miterlimit="4" stroke-opacity="1" fill="#FFFFFF" fill-opacity="1"/><path d="M54.75 65.25 18 65.25C15.11 65.25 12.75 62.9 12.75 60L12.75 20C12.75 17.1 15.11 14.75 18 14.75L54.75 14.75 54.75 13.25 18 13.25C14.28 13.25 11.25 16.28 11.25 20L11.25 60C11.25 63.72 14.28 66.75 18 66.75L54.75 66.75 54.75 65.25Z" class="MsftOfcThm_Background1_Fill_v2" stroke="none" stroke-width="0" stroke-linecap="butt" stroke-linejoin="miter" stroke-miterlimit="4" stroke-opacity="1" fill="#FFFFFF" fill-opacity="1"/></svg>