<svg viewBox="0 0 80 80" xmlns="http://www.w3.org/2000/svg" xmlns:xlink="http://www.w3.org/1999/xlink" id="icon_art" overflow="hidden"><style>
.MsftOfcThm_Background1_Fill_v2 {
 fill:#0D274D; 
}
</style>
<defs></defs><path d="M50.71 37.69C50.71 37.4 50.55 37.14 50.29 37.02L40.33 32.1C40.12 32 39.87 32 39.67 32.1L29.71 37.02C29.45 37.15 29.29 37.41 29.29 37.69 29.29 37.97 29.45 38.24 29.71 38.36L33.02 40 29.71 41.64C29.45 41.77 29.29 42.03 29.29 42.31 29.29 42.59 29.45 42.86 29.71 42.98L39.67 47.9C39.77 47.95 39.89 47.98 40 47.98 40.11 47.98 40.23 47.95 40.33 47.9L50.29 42.98C50.55 42.85 50.71 42.59 50.71 42.31 50.71 42.03 50.55 41.76 50.29 41.64L46.98 40 50.29 38.36C50.55 38.23 50.71 37.97 50.71 37.69ZM48.26 42.31 39.99 46.39 31.72 42.31 34.7 40.84 39.65 43.28C39.75 43.33 39.87 43.36 39.98 43.36 40.09 43.36 40.21 43.33 40.31 43.28L45.26 40.84 48.24 42.31ZM36.4 40 39.99 38.23 43.58 40 39.99 41.77 36.4 40ZM45.28 39.16 40.33 36.72C40.12 36.62 39.87 36.62 39.67 36.72L34.72 39.16 31.74 37.69 40.01 33.61 48.28 37.69 45.3 39.16Z" class="cls-1 MsftOfcThm_Background1_Fill_v2" stroke="none" stroke-width="1" stroke-linecap="butt" stroke-linejoin="miter" stroke-miterlimit="4" fill="#0D274D" fill-opacity="1"/><path d="M69.05 25.01C68.37 24.46 67.56 24.14 66.71 24.07 66.01 20.95 63.21 18.67 59.95 18.67 57.55 18.67 55.27 19.97 54.02 22.02 52.85 22.14 51.75 22.64 50.89 23.47L50.89 23.47 40.75 17.7 40.75 10.01C40.75 9.74 40.61 9.5 40.38 9.36 40.15 9.23 39.86 9.23 39.63 9.36L13.3 24.35C13.07 24.48 12.92 24.73 12.92 25L12.92 55C12.92 55.27 13.06 55.52 13.3 55.65L39.63 70.65C39.74 70.72 39.87 70.75 40 70.75 40.13 70.75 40.26 70.72 40.38 70.65 40.61 70.52 40.75 70.27 40.75 70L40.75 62.31 59.57 51.59C59.8 51.46 59.95 51.21 59.95 50.94L59.95 32.55 66.19 32.55C66.52 32.55 68.25 32.49 69.47 31.28 70.23 30.53 70.62 29.53 70.62 28.31 70.62 27.03 70.05 25.83 69.05 25.02ZM39.25 68.71 14.42 54.56 14.42 25.44 39.25 11.29 39.25 17.69 20.43 28.41C20.2 28.54 20.05 28.79 20.05 29.06L20.05 50.93C20.05 51.2 20.19 51.45 20.43 51.58L39.25 62.3 39.25 68.7ZM58.45 50.5 40.75 60.58 40.75 50.97C40.75 50.56 40.41 50.22 40 50.22 39.59 50.22 39.25 50.56 39.25 50.97L39.25 60.58 21.55 50.5 21.55 29.5 39.25 19.42 39.25 29.1C39.25 29.51 39.59 29.85 40 29.85 40.41 29.85 40.75 29.51 40.75 29.1L40.75 19.42 49.98 24.68C49.54 25.46 49.28 26.34 49.28 27.27 49.28 31.13 52.69 32.38 54.01 32.54L58.45 32.54 58.45 50.5ZM68.42 30.21C67.58 31.04 66.25 31.05 66.25 31.05L54.2 31.05C54.06 31.03 50.78 30.52 50.78 27.27 50.78 26.23 51.19 25.27 51.94 24.55 52.63 23.89 53.53 23.51 54.49 23.5L54.94 23.5 55.15 23.1C56.08 21.32 57.97 20.18 59.96 20.18 62.69 20.18 65.01 22.22 65.35 24.93L65.44 25.64 66.16 25.58C66.87 25.52 67.57 25.73 68.12 26.19 68.76 26.71 69.13 27.49 69.13 28.32 69.13 29.15 68.9 29.76 68.43 30.22Z" class="cls-1 MsftOfcThm_Background1_Fill_v2" stroke="none" stroke-width="1" stroke-linecap="butt" stroke-linejoin="miter" stroke-miterlimit="4" fill="#0D274D" fill-opacity="1"/></svg>