<svg viewBox="0 0 80 80" xmlns="http://www.w3.org/2000/svg" xmlns:xlink="http://www.w3.org/1999/xlink" id="icon_art" overflow="hidden"><style>
.MsftOfcThm_Background1_Fill_v2 {
 fill:#FFFFFF; 
}
</style>
<defs></defs><path d="M39.67 32.1 29.71 37.02C29.45 37.15 29.29 37.41 29.29 37.69 29.29 37.97 29.45 38.24 29.71 38.36L33.02 40 29.71 41.64C29.45 41.77 29.29 42.03 29.29 42.31 29.29 42.59 29.45 42.86 29.71 42.98L39.67 47.9C39.77 47.95 39.89 47.98 40 47.98 40.11 47.98 40.23 47.95 40.33 47.9L50.29 42.98C50.55 42.85 50.71 42.59 50.71 42.31 50.71 42.03 50.55 41.76 50.29 41.64L46.98 40 50.29 38.36C50.55 38.23 50.71 37.97 50.71 37.69 50.71 37.41 50.55 37.14 50.29 37.02L40.33 32.1C40.12 32 39.87 32 39.67 32.1ZM48.27 42.31 40 46.39 31.73 42.31 34.71 40.84 39.66 43.28C39.76 43.33 39.88 43.36 39.99 43.36 40.1 43.36 40.22 43.33 40.32 43.28L45.27 40.84 48.25 42.31ZM36.41 40 40 38.23 43.59 40 40 41.77 36.41 40ZM45.29 39.16 40.34 36.72C40.13 36.62 39.88 36.62 39.68 36.72L34.73 39.16 31.75 37.69 40.02 33.61 48.29 37.69 45.31 39.16Z" class="cls-1 MsftOfcThm_Background1_Fill_v2" stroke="none" stroke-width="1" stroke-linecap="butt" stroke-linejoin="miter" stroke-miterlimit="4" fill="#FFFFFF" fill-opacity="1"/><path d="M59.57 28.41 40.75 17.69 40.75 10C40.75 9.73 40.61 9.49 40.38 9.35 40.15 9.22 39.86 9.22 39.63 9.35L13.3 24.35C13.07 24.48 12.92 24.73 12.92 25L12.92 55C12.92 55.27 13.06 55.52 13.3 55.65L39.63 70.65C39.74 70.72 39.87 70.75 40 70.75 40.13 70.75 40.26 70.72 40.38 70.65 40.61 70.52 40.75 70.27 40.75 70L40.75 62.31 59.57 51.59C59.8 51.46 59.95 51.21 59.95 50.94L59.95 29.07C59.95 28.8 59.81 28.55 59.57 28.42ZM39.25 68.71 14.42 54.56 14.42 25.44 39.25 11.29 39.25 17.69 20.43 28.41C20.2 28.54 20.05 28.79 20.05 29.06L20.05 50.93C20.05 51.2 20.19 51.45 20.43 51.58L39.25 62.3 39.25 68.7ZM58.45 50.5 40.75 60.58 40.75 50.97C40.75 50.56 40.41 50.22 40 50.22 39.59 50.22 39.25 50.56 39.25 50.97L39.25 60.58 21.55 50.5 21.55 29.5 39.25 19.42 39.25 29.1C39.25 29.51 39.59 29.85 40 29.85 40.41 29.85 40.75 29.51 40.75 29.1L40.75 19.42 58.45 29.5 58.45 50.5Z" class="cls-1 MsftOfcThm_Background1_Fill_v2" stroke="none" stroke-width="1" stroke-linecap="butt" stroke-linejoin="miter" stroke-miterlimit="4" fill="#FFFFFF" fill-opacity="1"/></svg>