<svg viewBox="0 0 80 80" xmlns="http://www.w3.org/2000/svg" xmlns:xlink="http://www.w3.org/1999/xlink" id="icon_art" overflow="hidden"><style>
.MsftOfcThm_Background1_Fill_v2 {
 fill:#FFFFFF; 
}
</style>
<defs></defs><path d="M39.69 70.54 39.69 70.54C39.9 70.63 40.1 70.63 40.29 70.54L40.32 70.54 67.24 58.73C67.24 58.73 67.25 58.72 67.26 58.71L67.31 58.68C67.41 58.62 67.49 58.55 67.55 58.47L67.57 58.45C67.61 58.39 67.64 58.31 67.66 58.22 67.66 58.2 67.66 58.18 67.66 58.16 67.66 58.12 67.66 58.1 67.67 58.09 67.67 58.08 67.67 58.07 67.67 58.05L67.67 21.95C67.67 21.95 67.67 21.92 67.67 21.91 67.67 21.89 67.67 21.88 67.67 21.86L67.67 21.84C67.67 21.84 67.67 21.8 67.66 21.78 67.64 21.68 67.6 21.61 67.56 21.54L67.56 21.54C67.5 21.46 67.45 21.4 67.38 21.35 67.36 21.33 67.34 21.32 67.31 21.31 67.29 21.31 67.28 21.29 67.27 21.28L40.28 9.44C40.13 9.38 39.9 9.37 39.71 9.45L39.69 9.45 12.76 21.26C12.76 21.26 12.71 21.29 12.69 21.3 12.67 21.31 12.64 21.33 12.62 21.34 12.55 21.39 12.49 21.45 12.45 21.51L12.43 21.53C12.39 21.59 12.36 21.67 12.33 21.77 12.33 21.79 12.33 21.81 12.33 21.83 12.33 21.87 12.33 21.89 12.32 21.9 12.32 21.91 12.32 21.92 12.32 21.94L12.32 58.05C12.32 58.05 12.32 58.08 12.32 58.09 12.32 58.11 12.32 58.12 12.32 58.14 12.32 58.18 12.32 58.2 12.33 58.22 12.35 58.31 12.38 58.39 12.42 58.45L12.44 58.48C12.5 58.56 12.58 58.63 12.68 58.69L12.76 58.74 39.68 70.54ZM40.75 68.71 40.75 58.54 40.83 58.5 56.2 51.76 65.38 57.91 40.74 68.71ZM39.25 68.71 14.61 57.91 23.79 51.76 23.86 51.79 39.25 58.54 39.25 68.71ZM40.75 56.9 40.75 41.4 40.97 41.55 54.73 50.77 40.75 56.9ZM39.25 56.9 25.27 50.77 25.48 50.63 39.25 41.41 39.25 56.91ZM66.19 56.64 57.03 50.51 57.03 29.49 57.09 29.45 66.18 23.36 66.18 56.64ZM13.81 56.64 13.81 23.36 22.97 29.49 22.97 50.51 22.91 50.55 13.82 56.64ZM55.53 49.5 55.31 49.35 41.34 39.99 41.51 39.87 55.52 30.48 55.52 49.49ZM24.46 49.5 24.46 30.5 24.68 30.65 38.65 40.01 38.48 40.13 24.47 49.52ZM40.74 38.59 40.74 23.09 54.72 29.22 54.51 29.36 40.74 38.58ZM39.24 38.59 39.02 38.44 25.26 29.22 39.24 23.09 39.24 38.59ZM56.2 28.23 56.13 28.2 40.74 21.45 40.74 11.29 65.38 22.09 56.2 28.24ZM23.78 28.23 14.6 22.08 39.24 11.28 39.24 21.45 39.16 21.49 23.79 28.23Z" class="MsftOfcThm_Background1_Fill_v2" stroke="none" stroke-width="1" stroke-linecap="butt" stroke-linejoin="miter" stroke-miterlimit="4" fill="#FFFFFF" fill-opacity="1"/></svg>