<svg viewBox="0 0 80 80" xmlns="http://www.w3.org/2000/svg" xmlns:xlink="http://www.w3.org/1999/xlink" id="icon_art" overflow="hidden"><style>
.MsftOfcThm_Background1_Fill_v2 {
 fill:#FFFFFF; 
}
</style>
<defs></defs><path d="M40.28 28.48C33.87 28.48 28.65 33.7 28.65 40.11 28.65 46.52 33.87 51.74 40.28 51.74 46.69 51.74 51.91 46.52 51.91 40.11 51.91 33.7 46.69 28.48 40.28 28.48ZM40.28 50.23C34.7 50.23 30.16 45.69 30.16 40.1 30.16 34.51 34.7 29.98 40.28 29.98 45.86 29.98 50.4 34.52 50.4 40.1 50.4 45.68 45.86 50.23 40.28 50.23Z" class="cls-1 MsftOfcThm_Background1_Fill_v2" stroke="none" stroke-width="1" stroke-linecap="butt" stroke-linejoin="miter" stroke-miterlimit="4" fill="#FFFFFF" fill-opacity="1"/><path d="M16.83 39.25C16.42 39.25 16.08 39.59 16.08 40 16.08 53.35 26.94 64.21 40.29 64.21 51.08 64.21 60.65 56.96 63.57 46.58L63.6 46.47 63.81 46.47C63.81 46.47 63.9 46.49 63.95 46.49 67.46 46.49 70.32 43.63 70.32 40.12 70.32 36.61 67.46 33.75 63.95 33.75 63.92 33.75 63.88 33.75 63.85 33.75L63.65 33.75 63.62 33.65C60.77 23.14 51.17 15.81 40.28 15.81 39.86 15.81 39.53 16.15 39.53 16.56 39.53 16.97 39.87 17.31 40.28 17.31 50.57 17.31 59.35 23.96 62.12 33.87L62.16 34 62.03 34.04C59.37 34.88 57.58 37.32 57.58 40.11 57.58 42.9 59.35 45.3 61.98 46.16L62.11 46.2 62.07 46.33C59.24 56.12 50.48 62.69 40.28 62.69 27.76 62.69 17.58 52.51 17.58 39.99 17.58 39.58 17.24 39.24 16.83 39.24ZM63.95 44.98C61.27 44.98 59.08 42.8 59.08 40.11 59.08 37.42 61.26 35.24 63.95 35.24 66.64 35.24 68.82 37.42 68.82 40.11 68.82 42.8 66.64 44.98 63.95 44.98Z" class="cls-1 MsftOfcThm_Background1_Fill_v2" stroke="none" stroke-width="1" stroke-linecap="butt" stroke-linejoin="miter" stroke-miterlimit="4" fill="#FFFFFF" fill-opacity="1"/><path d="M19.92 11.8C16.41 11.8 13.55 14.66 13.55 18.17 13.55 19.71 14.12 21.21 15.15 22.38L15.23 22.46 15.17 22.55C11.59 27.7 9.69 33.73 9.69 39.99 9.69 43.67 10.34 47.27 11.61 50.69 11.75 51.07 12.21 51.27 12.58 51.13 12.77 51.06 12.92 50.92 13 50.74 13.08 50.56 13.09 50.35 13.02 50.17 11.81 46.92 11.19 43.5 11.19 40 11.19 34.11 12.95 28.43 16.29 23.57L16.37 23.45 16.49 23.53C17.52 24.19 18.71 24.54 19.93 24.54 23.44 24.54 26.3 21.68 26.3 18.17 26.3 17.1 26.03 16.04 25.51 15.11L25.44 14.99 25.56 14.92C30.03 12.29 35.12 10.9 40.29 10.9 52.36 10.9 63 18.16 67.4 29.4 67.55 29.78 67.99 29.98 68.37 29.83 68.56 29.76 68.7 29.62 68.79 29.43 68.87 29.25 68.87 29.04 68.8 28.86 64.17 17.04 52.98 9.41 40.29 9.41 34.78 9.41 29.37 10.91 24.63 13.73L24.53 13.79 24.45 13.71C23.24 12.49 21.63 11.81 19.92 11.81ZM19.92 23.04C17.24 23.04 15.05 20.86 15.05 18.17 15.05 15.48 17.23 13.3 19.92 13.3 22.61 13.3 24.79 15.48 24.79 18.17 24.79 20.86 22.61 23.04 19.92 23.04Z" class="cls-1 MsftOfcThm_Background1_Fill_v2" stroke="none" stroke-width="1" stroke-linecap="butt" stroke-linejoin="miter" stroke-miterlimit="4" fill="#FFFFFF" fill-opacity="1"/><path d="M68.32 49.55C68.01 49.55 67.73 49.74 67.61 50.04 63.42 61.44 52.44 69.1 40.29 69.1 39.87 69.1 39.54 69.44 39.54 69.85 39.54 70.26 39.88 70.6 40.29 70.6 53.07 70.6 64.62 62.54 69.03 50.55 69.17 50.16 68.97 49.73 68.58 49.59L68.58 49.59C68.5 49.56 68.41 49.54 68.32 49.54Z" class="cls-1 MsftOfcThm_Background1_Fill_v2" stroke="none" stroke-width="1" stroke-linecap="butt" stroke-linejoin="miter" stroke-miterlimit="4" fill="#FFFFFF" fill-opacity="1"/></svg>