<svg viewBox="0 0 80 80" xmlns="http://www.w3.org/2000/svg" xmlns:xlink="http://www.w3.org/1999/xlink" id="Layer_1" xml:space="preserve" overflow="hidden"><style>
.MsftOfcThm_Background1_Fill_v2 {
 fill:#0D274D; 
}
</style>
<g><path d="M72 39.3 67.7 39.3C67.3 24.6 55.4 12.7 40.7 12.3L40.7 8C40.7 7.6 40.4 7.2 39.9 7.2 39.4 7.2 39.2 7.6 39.2 8L39.2 12.3C24.5 12.7 12.6 24.6 12.2 39.3L8 39.3C7.6 39.3 7.2 39.6 7.2 40.1 7.2 40.6 7.5 40.9 8 40.9L12.3 40.9C12.7 55.6 24.6 67.4 39.3 67.8L39.3 72C39.3 72.4 39.6 72.8 40.1 72.8 40.6 72.8 40.9 72.5 40.9 72L40.9 67.7C48 67.5 54.7 64.7 59.8 59.6 60.1 59.3 60.1 58.8 59.8 58.5 59.5 58.2 59 58.2 58.7 58.5 53.7 63.5 47.2 66.2 40.1 66.2 25.6 66.2 13.9 54.4 13.9 40 13.9 25.5 25.7 13.8 40.1 13.8 54.3 13.8 66 25.2 66.3 39.4L60.8 39.4C60.7 36.6 60.1 33.9 58.9 31.4 58.7 31 58.3 30.9 57.9 31 57.5 31.2 57.4 31.6 57.5 32 58.6 34.3 59.2 36.8 59.2 39.4L53.7 39.4C53.4 32 47.3 26.2 40 26.2 32.4 26.2 26.2 32.4 26.2 40 26.2 47.6 32.4 53.8 40 53.8 43.7 53.8 47.1 52.4 49.7 49.8 50 49.5 50 49 49.7 48.7 49.4 48.4 48.9 48.4 48.6 48.7 46.3 51 43.2 52.3 39.9 52.3 33.1 52.3 27.7 46.8 27.7 40.1 27.7 33.4 33.2 27.8 40 27.8 46.5 27.8 51.9 32.9 52.2 39.4L40 39.4C39.6 39.4 39.2 39.7 39.2 40.2 39.2 40.7 39.5 41 40 41L72 41C72.4 41 72.8 40.7 72.8 40.2 72.8 39.7 72.4 39.3 72 39.3Z" class="MsftOfcThm_Background1_Fill_v2" stroke="none" stroke-width="1" stroke-linecap="butt" stroke-linejoin="miter" stroke-miterlimit="4" fill="#0D274D" fill-opacity="1"/><path d="M53.6 53.6C50 57.2 45.1 59.2 40 59.2 37.2 59.2 34.5 58.6 31.9 57.4 31.5 57.2 31.1 57.4 30.9 57.8 30.7 58.2 30.9 58.6 31.3 58.8 34 60.1 37 60.7 40 60.7 45.5 60.7 50.8 58.5 54.7 54.6 55 54.3 55 53.8 54.7 53.5 54.4 53.2 53.9 53.3 53.6 53.6Z" class="MsftOfcThm_Background1_Fill_v2" stroke="none" stroke-width="1" stroke-linecap="butt" stroke-linejoin="miter" stroke-miterlimit="4" fill="#0D274D" fill-opacity="1"/><path d="M40 20.8C42.8 20.8 45.5 21.4 48.1 22.6 48.5 22.8 48.9 22.6 49.1 22.2 49.3 21.8 49.1 21.4 48.7 21.2 46 19.9 43 19.2 40 19.2 28.6 19.2 19.2 28.5 19.2 40 19.2 43 19.8 46 21.1 48.7 21.2 49 21.5 49.1 21.8 49.1 21.9 49.1 22 49.1 22.1 49 22.5 48.8 22.6 48.4 22.5 48 21.3 45.5 20.7 42.7 20.7 39.9 20.8 29.4 29.4 20.8 40 20.8Z" class="MsftOfcThm_Background1_Fill_v2" stroke="none" stroke-width="1" stroke-linecap="butt" stroke-linejoin="miter" stroke-miterlimit="4" fill="#0D274D" fill-opacity="1"/><path d="M57.9 25.9C57.9 23.8 56.2 22.1 54.1 22.1 52 22.1 50.3 23.8 50.3 25.9 50.3 28 52 29.7 54.1 29.7 56.2 29.7 57.9 27.9 57.9 25.9ZM51.9 25.9C51.9 24.7 52.9 23.7 54.1 23.7 55.3 23.7 56.3 24.7 56.3 25.9 56.3 27.1 55.3 28.1 54.1 28.1 52.9 28.1 51.9 27.1 51.9 25.9Z" class="MsftOfcThm_Background1_Fill_v2" stroke="none" stroke-width="1" stroke-linecap="butt" stroke-linejoin="miter" stroke-miterlimit="4" fill="#0D274D" fill-opacity="1"/><path d="M25.9 57.9C28 57.9 29.7 56.2 29.7 54.1 29.7 52 28 50.3 25.9 50.3 23.8 50.3 22.1 52 22.1 54.1 22.1 56.2 23.8 57.9 25.9 57.9ZM25.9 51.9C27.1 51.9 28.1 52.9 28.1 54.1 28.1 55.3 27.1 56.3 25.9 56.3 24.7 56.3 23.7 55.3 23.7 54.1 23.7 52.9 24.6 51.9 25.9 51.9Z" class="MsftOfcThm_Background1_Fill_v2" stroke="none" stroke-width="1" stroke-linecap="butt" stroke-linejoin="miter" stroke-miterlimit="4" fill="#0D274D" fill-opacity="1"/></g></svg>